<svg version="1.2" xmlns="http://www.w3.org/2000/svg" viewBox="0 0 260 125" width="260" height="125"><defs><clipPath clipPathUnits="userSpaceOnUse" id="cp1"><path d="m-830-28h1920v3200h-1920z"/></clipPath></defs><style>.a{fill:#fff}</style><g clip-path="url(#cp1)"><path fill-rule="evenodd" class="a" d="m94.5 116.8h0.7v2.4c0.3-0.4 0.7-0.7 1.3-0.7 1 0 1.7 0.8 1.7 2 0 1.4-0.9 2-1.8 2-0.5 0-1-0.2-1.3-0.7v0.7h-0.6c0-0.3 0-0.7 0-1zm0.7 4.1q0 0.1 0 0.2c0.2 0.5 0.6 0.8 1.1 0.8 0.7 0 1.2-0.6 1.2-1.4 0-0.8-0.4-1.5-1.2-1.5-0.5 0-0.9 0.4-1 0.9q-0.1 0.1-0.1 0.3z"/><path class="a" d="m99.3 118.6l0.8 2.3c0.1 0.2 0.2 0.5 0.3 0.8 0.1-0.3 0.2-0.6 0.3-0.8l0.7-2.3h0.8l-1.1 2.7c-0.5 1.4-0.8 2-1.3 2.5-0.4 0.3-0.7 0.4-0.9 0.4l-0.1-0.6c0.1 0 0.4-0.1 0.6-0.3 0.2-0.2 0.4-0.4 0.6-0.8q0-0.1 0-0.2 0 0 0-0.1l-1.5-3.6z"/><path class="a" d="m105.8 116v2.7h3.1v-2.7h0.9v6.5h-0.9v-3.1h-3.1v3.1h-0.8v-6.5z"/><path class="a" d="m115.5 119.4h-2.5v2.4h2.8v0.7h-3.7v-6.5h3.5v0.7h-2.6v2h2.5z"/><path class="a" d="m123.3 119.6c-0.1-0.9-0.1-2-0.1-2.8h-0.1q-0.3 1.2-0.8 2.5l-1.1 3.1h-0.6l-1.1-3.1q-0.4-1.3-0.7-2.5c-0.1 0.8-0.1 1.9-0.2 2.9l-0.1 2.8h-0.8l0.4-6.5h1.1l1.1 3.1q0.4 1.2 0.6 2.2 0.3-1 0.7-2.2l1.2-3.1h1l0.4 6.5h-0.8z"/><path class="a" d="m127.5 116.5c0 0.3-0.2 0.5-0.6 0.5-0.3 0-0.5-0.2-0.5-0.5 0-0.3 0.2-0.5 0.6-0.5 0.3 0 0.5 0.2 0.5 0.5zm-1 6v-4.7h0.9v4.7z"/><path class="a" d="m129.8 121.4c0.4 0.3 0.9 0.5 1.5 0.5 0.8 0 1.3-0.5 1.3-1.1 0-0.6-0.3-1-1.2-1.3-1.1-0.4-1.7-0.9-1.7-1.8 0-1 0.8-1.8 2.1-1.8 0.6 0 1.1 0.2 1.4 0.3l-0.2 0.7c-0.2-0.1-0.7-0.3-1.2-0.3-0.9 0-1.3 0.5-1.3 1 0 0.6 0.4 0.9 1.3 1.2 1.1 0.4 1.7 1 1.7 1.9 0 1-0.8 1.9-2.3 1.9-0.6 0-1.3-0.2-1.6-0.5z"/><path fill-rule="evenodd" class="a" d="m135.7 116.1q0.6-0.1 1.6-0.1 1.2 0 1.8 0.5c0.4 0.3 0.6 0.8 0.6 1.3q0 0.9-0.5 1.4c-0.5 0.5-1.2 0.7-2 0.7q-0.4 0-0.7 0v2.6h-0.8zm0.8 3.1q0.3 0 0.7 0c1 0 1.6-0.5 1.6-1.3 0-0.9-0.6-1.3-1.5-1.3q-0.5 0-0.8 0.1z"/><path class="a" d="m142.8 116v2.7h3.1v-2.7h0.9v6.5h-0.9v-3.1h-3.1v3.1h-0.8v-6.5z"/><path class="a" d="m152.5 119.4h-2.5v2.4h2.8v0.7h-3.7v-6.5h3.5v0.7h-2.6v2h2.5z"/><path fill-rule="evenodd" class="a" d="m155.1 116.1c0.4-0.1 1-0.1 1.6-0.1 0.9 0 1.4 0.1 1.8 0.5 0.3 0.3 0.5 0.7 0.5 1.2 0 0.9-0.5 1.4-1.2 1.7 0.5 0.2 0.8 0.6 1 1.3 0.2 0.9 0.3 1.5 0.5 1.8h-0.9c-0.1-0.2-0.2-0.8-0.4-1.6-0.2-0.9-0.6-1.2-1.3-1.2h-0.8v2.8h-0.8zm0.8 2.9h0.9c0.8 0 1.4-0.5 1.4-1.2 0-0.9-0.6-1.2-1.5-1.2q-0.6 0-0.8 0z"/><path class="a" d="m165.2 119.4h-2.5v2.4h2.8v0.7h-3.6v-6.5h3.5v0.7h-2.7v2h2.5z"/><path class="a" d="m113.9 31.3h32.2v3.4h-32.2z"/><path class="a" d="m156.7 7.8c-8.1 6.7-10.6 21.4-10.6 21.4h-32.2c0 0-2.5-14.7-10.6-21.4 0 0 6.2-1.6 8.2 4.6 0 0 3.3-2.5 5.6-0.4 0 0-3.3 1.6-3 6.2 0.3 3.3 2.8 6.5 7.7 5.7 5-0.9 5.7-5.2 5.3-8-0.3-2.8-2.8-6.5-6.2-4.8 0 0 1.4-3.7 6.1-2.6 0 0-0.2-5 3-8q0 0 0 0 0 0 0 0c3.2 3 3 8 3 8 4.7-1.1 6.1 2.6 6.1 2.6-3.4-1.7-5.9 2-6.2 4.8-0.4 2.8 0.3 7.1 5.3 8 4.9 0.8 7.5-2.4 7.7-5.7 0.3-4.6-3-6.2-3-6.2 2.3-2.1 5.6 0.4 5.6 0.4 2-6.2 8.2-4.6 8.2-4.6z"/><path class="a" d="m113.9 36.4h32.2v3.4h-32.2z"/><path class="a" d="m130 78.6c-70.8 0-128.3-0.3-128.3-0.7 0-0.4 57.5-0.7 128.3-0.7 70.8 0 128.3 0.3 128.3 0.7 0 0.4-57.5 0.7-128.3 0.7z"/><path class="a" d="m102.1 92.6c0 1.4 0 2.6 0.1 3.2 0 0.4 0.1 0.7 0.5 0.8 0.3 0 0.6 0 0.7 0 0.1 0 0.2 0.1 0.2 0.2q0 0.1-0.3 0.1c-0.8 0-1.8-0.1-1.9-0.1-0.1 0-1.1 0.1-1.5 0.1q-0.3 0-0.3-0.1c0-0.1 0.1-0.2 0.2-0.2 0.1 0 0.3 0 0.4 0 0.3-0.1 0.4-0.4 0.4-0.8 0.1-0.6 0.1-1.8 0.1-3.2v-1.5q0-0.1-0.1-0.1h-6.4q-0.1 0-0.1 0.1v1.5c0 1.4 0 2.6 0.1 3.2 0 0.4 0.1 0.7 0.5 0.8 0.3 0 0.6 0 0.7 0 0.1 0 0.1 0.1 0.1 0.2q0.1 0.1-0.2 0.1c-0.9 0-1.8-0.1-1.9-0.1-0.1 0-1.1 0.1-1.5 0.1q-0.3 0-0.3-0.1c0-0.1 0-0.2 0.1-0.2 0.2 0 0.4 0 0.5 0 0.3-0.1 0.3-0.4 0.4-0.8 0.1-0.6 0.1-1.8 0.1-3.2v-2.7c0-2.3 0-2.7 0-3.2-0.1-0.5-0.2-0.7-0.7-0.8-0.1 0-0.4 0-0.5 0 0 0-0.1-0.1-0.1-0.2q0-0.1 0.2-0.1c0.7 0 1.7 0.1 1.8 0.1 0.1 0 1-0.1 1.5-0.1q0.3 0 0.3 0.1c0 0.1-0.1 0.2-0.2 0.2-0.1 0-0.2 0-0.3 0-0.5 0.1-0.6 0.3-0.6 0.8 0 0.5 0 1 0 3.3v0.3c0 0.1 0 0.1 0.1 0.1h6.4c0.1 0 0.1 0 0.1-0.1v-0.3c0-2.3 0-2.8 0-3.3-0.1-0.5-0.1-0.7-0.6-0.8-0.2 0-0.4 0-0.6 0 0 0-0.1-0.1-0.1-0.2q0-0.1 0.2-0.1c0.7 0 1.7 0.1 1.8 0.1 0.1 0 1.1-0.1 1.5-0.1q0.3 0 0.3 0.1c0 0.1-0.1 0.2-0.2 0.2-0.1 0-0.1 0-0.3 0-0.4 0.1-0.5 0.3-0.6 0.8 0 0.5 0 0.9 0 3.2z"/><path fill-rule="evenodd" class="a" d="m116.9 85.4c3.5 0 6.1 2.1 6.1 5.6 0 3.3-2.5 6.1-6.2 6.1-4.2 0-6-3.2-6-5.9 0-2.4 1.8-5.8 6.1-5.8zm0.4 11.1c1.3 0 4.1-0.8 4.1-5.1 0-3.6-2.2-5.4-4.6-5.4-2.6 0-4.4 1.6-4.4 4.8 0 3.5 2.1 5.7 4.9 5.7z"/><path class="a" d="m134.9 92.6c0 1.4 0 2.6 0 3.2 0.1 0.4 0.2 0.7 0.6 0.8 0.3 0 0.6 0 0.7 0 0.2 0 0.2 0.1 0.2 0.2q0 0.1-0.3 0.1c-0.8 0-1.8-0.1-1.9-0.1-0.1 0-1.1 0.1-1.6 0.1q-0.2 0-0.2-0.1 0-0.1 0.1-0.1c0.1 0 0.3-0.1 0.5-0.1 0.3-0.1 0.4-0.4 0.4-0.8 0.1-0.6 0.1-1.8 0.1-3.2v-6.3h-2.2c-1 0.1-1.4 0.2-1.6 0.5-0.2 0.3-0.2 0.4-0.3 0.5 0 0.1 0 0.1-0.1 0.1 0 0-0.1 0-0.1-0.1 0-0.2 0.3-1.5 0.3-1.6 0.1-0.1 0.1-0.3 0.2-0.3 0.1 0 0.2 0.1 0.7 0.2 0.4 0 1 0.1 1.2 0.1h5.8q0.7-0.1 1.1-0.1 0.3-0.1 0.4-0.1c0.1 0 0.1 0.1 0.1 0.2 0 0.4-0.1 1.5-0.1 1.7 0 0.1 0 0.2-0.1 0.2-0.1 0-0.1-0.1-0.1-0.3v-0.1c-0.1-0.5-0.4-0.8-1.9-0.9h-1.9z"/><path class="a" d="m147.5 89.9c0-2.3 0-2.7-0.1-3.2 0-0.5-0.1-0.7-0.6-0.8-0.1 0-0.4 0-0.5 0-0.1 0-0.2-0.1-0.2-0.2q0-0.1 0.3-0.1c0.7 0 1.7 0.1 1.8 0.1 0.1 0 3.3 0 3.7 0 0.3-0.1 0.5-0.1 0.7-0.1 0 0 0.1-0.1 0.2-0.1 0 0 0 0.1 0 0.1 0 0.1-0.1 0.3-0.1 0.7 0 0.2 0 0.8-0.1 1 0 0.1 0 0.2-0.1 0.2q-0.1 0-0.1-0.2c0-0.1-0.1-0.4-0.1-0.5-0.1-0.3-0.3-0.4-1.1-0.5-0.3 0-2.1 0-2.3 0q0 0 0 0.1v4.1c0 0.1 0 0.1 0 0.1 0.2 0 2.3 0 2.6 0 0.4-0.1 0.6-0.1 0.8-0.2 0.1-0.1 0.2-0.2 0.2-0.2q0.1 0 0.1 0.1c0 0.1-0.1 0.3-0.1 0.8-0.1 0.3-0.1 0.9-0.1 1 0 0.1 0 0.3-0.1 0.3q-0.1 0-0.1-0.2c0-0.1 0-0.3-0.1-0.5-0.1-0.2-0.2-0.3-0.8-0.4-0.4-0.1-2.1-0.1-2.3-0.1-0.1 0-0.1 0.1-0.1 0.1v1.3c0 0.5-0.1 2.2 0 2.5 0 1 0.3 1.2 1.8 1.2 0.4 0 1.1 0 1.5-0.2 0.4-0.1 0.7-0.4 0.7-1 0.1-0.2 0.1-0.2 0.2-0.2 0.1 0 0.1 0.1 0.1 0.2 0 0.1-0.1 1.1-0.2 1.4-0.1 0.4-0.3 0.4-0.9 0.4q-1.7 0-2.6 0c-0.7-0.1-1.1-0.1-1.3-0.1-0.1 0-0.4 0-0.7 0.1-0.3 0-0.6 0-0.9 0q-0.2 0-0.2-0.1c0-0.1 0-0.2 0.1-0.2 0.1 0 0.3 0 0.5 0 0.3-0.1 0.3-0.4 0.4-0.8 0.1-0.6 0.1-1.8 0.1-3.2z"/><path class="a" d="m163.8 92.6c0 2.2 0 3.1 0.3 3.3 0.2 0.3 0.8 0.4 2 0.4 0.8 0 1.5 0 1.9-0.5 0.2-0.2 0.3-0.5 0.4-0.8 0-0.1 0-0.2 0.1-0.2q0.1 0 0.1 0.2c0 0.2-0.1 1.1-0.2 1.5-0.1 0.4-0.2 0.4-1 0.4-1.1 0-2 0-2.7 0-0.7 0-1.2-0.1-1.7-0.1 0 0-0.3 0-0.6 0.1-0.3 0-0.6 0-0.9 0q-0.2 0-0.2-0.1c0-0.1 0-0.2 0.1-0.2 0.1 0 0.3 0 0.5 0 0.3-0.1 0.3-0.4 0.4-0.8 0.1-0.6 0.1-1.8 0.1-3.2v-2.7c0-2.3 0-2.7-0.1-3.2 0-0.5-0.1-0.7-0.6-0.8-0.1 0-0.4 0-0.5 0-0.1 0-0.1-0.1-0.1-0.2q-0.1-0.1 0.2-0.1c0.7 0 1.7 0.1 1.7 0.1 0.1 0 1.3-0.1 1.7-0.1q0.3 0 0.3 0.1c0 0.1-0.1 0.2-0.1 0.2-0.1 0-0.4 0-0.5 0-0.5 0.1-0.6 0.3-0.6 0.8 0 0.5 0 0.9 0 3.2z"/><path class="a" d="m15.7 64.4c0-2.2-0.1-2.4-1.2-2.7-0.2-0.1-0.6-0.1-0.9-0.1-0.1 0-0.2-0.1-0.2-0.2q0-0.2 0.4-0.2c1.2 0 2.9 0.1 3.1 0.1 0.1 0 1.8-0.1 2.6-0.1q0.4 0 0.4 0.2c0 0.1-0.1 0.2-0.2 0.2-0.2 0-0.4 0-0.7 0.1-0.7 0.1-0.9 0.5-1 1.5 0 0.8 0 1.6 0 2.8v3c0 1.2 0 1.2-0.4 1.4-1.7 0.9-4.1 1.2-5.6 1.2-2.1 0-5.9-0.3-8.8-2.9-1.7-1.4-3.2-4.2-3.2-7.6 0-4.2 2.1-7.3 4.5-8.8 2.4-1.5 5-1.6 7.1-1.6 1.6 0 3.5 0.3 4.1 0.4 0.5 0.1 1.4 0.2 2.1 0.3 0.3 0 0.3 0.1 0.3 0.2 0 0.4-0.1 1.1-0.1 3.8 0 0.4-0.1 0.6-0.3 0.6-0.1 0-0.2-0.2-0.2-0.4 0-0.4-0.1-1.2-0.5-1.8-0.7-1-2.9-2.2-6.3-2.2-1.7 0-3.7 0.2-5.7 1.8-1.6 1.2-2.7 3.7-2.7 6.8 0 3.8 1.9 6.5 2.9 7.4 2.1 2 4.5 2.8 7 2.8 0.9 0 2.3-0.1 3-0.5q0.5-0.3 0.5-0.9z"/><path fill-rule="evenodd" class="a" d="m23.5 60.6c0-3.5 0-4.2-0.1-4.9-0.1-0.7-0.2-1.1-1-1.2-0.1-0.1-0.5-0.1-0.8-0.1 0 0-0.1-0.1-0.1-0.2q-0.1-0.2 0.3-0.2c1.1 0 2.7 0.1 2.8 0.1 0.2 0 2.2-0.1 2.9-0.1 1.5 0 3.2 0.2 4.4 1 0.6 0.5 1.7 1.6 1.7 3.1 0 1.7-0.7 3.3-2.9 5.2 1.9 2.4 3.5 4.5 4.9 5.9 1.2 1.3 2 1.5 2.6 1.6 0.5 0 0.7 0 0.8 0 0.2 0 0.2 0.2 0.2 0.2 0 0.2-0.1 0.2-0.5 0.2h-1.5c-1.3 0-1.9-0.1-2.5-0.4-1-0.6-1.9-1.7-3.2-3.4-1-1.2-2-2.7-2.5-3.3-0.2-0.1-0.2-0.1-0.4-0.1l-3-0.1q-0.1 0-0.1 0.2v0.6c0 2.1 0 3.9 0.1 4.8 0.1 0.7 0.2 1.1 0.9 1.2 0.3 0.1 0.9 0.1 1.1 0.1 0.1 0 0.2 0.2 0.2 0.2 0 0.1-0.2 0.2-0.4 0.2-1.3 0-2.8-0.1-2.9-0.1 0 0-1.6 0.1-2.3 0.1q-0.4 0-0.4-0.2c0 0 0.1-0.2 0.2-0.2 0.2 0 0.5 0 0.7-0.1 0.5-0.1 0.5-0.5 0.6-1.2 0.2-0.9 0.2-2.7 0.2-4.9zm2 1.9q0 0.2 0.1 0.3c0.4 0.2 1.6 0.4 2.6 0.4 0.6 0 1.2 0 1.8-0.4 0.8-0.5 1.4-1.7 1.4-3.5 0-2.8-1.5-4.4-4-4.4-0.7 0-1.5 0-1.7 0.1q-0.2 0.1-0.2 0.3z"/><path fill-rule="evenodd" class="a" d="m43.1 54.5c0.3-0.7 0.4-0.9 0.6-0.9 0.2 0 0.3 0.3 0.5 0.8 0.5 1 4.2 10.4 5.7 13.8 0.8 2.1 1.5 2.4 2 2.5 0.3 0.1 0.7 0.1 0.9 0.1 0.1 0 0.3 0.1 0.3 0.2 0 0.2-0.3 0.2-0.5 0.2-0.4 0-2.1 0-3.7 0-0.5-0.1-0.9-0.1-0.9-0.2 0-0.1 0.1-0.1 0.2-0.2 0.1 0 0.4-0.2 0.2-0.6l-2.1-5.2c-0.1-0.1-0.1-0.1-0.2-0.1h-5.4q-0.2 0-0.3 0.2l-1.3 3.6c-0.2 0.6-0.4 1.1-0.4 1.5 0 0.5 0.4 0.6 0.8 0.6h0.2c0.2 0 0.3 0.1 0.3 0.2q0 0.2-0.4 0.2c-0.5 0-1.8-0.1-2.1-0.1-0.2 0-1.4 0.1-2.3 0.1q-0.5 0-0.5-0.2c0-0.1 0.1-0.2 0.2-0.2 0.2 0 0.5 0 0.7 0 1.1-0.1 1.5-0.9 2-2.1zm2.6 9.5c0.1 0 0.1-0.1 0.1-0.2l-2.3-6.2q-0.2-0.5-0.4 0l-2.2 6.2q-0.1 0.2 0 0.2z"/><path class="a" d="m55.2 68.1c0 1.9 0.3 2.5 0.9 2.6 0.4 0.1 1 0.1 1.2 0.1 0.1 0 0.2 0.1 0.2 0.2q-0.1 0.2-0.5 0.2c-1.3 0-2.2-0.1-2.5-0.1-0.2 0-1.2 0.1-2.2 0.1-0.3 0-0.4 0-0.4-0.2 0-0.1 0.1-0.2 0.2-0.2 0.2 0 0.6 0 1-0.1 0.5-0.1 0.6-0.8 0.6-2.8v-13c0-0.9 0.2-1.2 0.3-1.2 0.3 0 0.7 0.5 0.9 0.7 0.4 0.4 3.8 4 7.5 7.8 2.3 2.4 4.8 5.1 5.5 5.8l-0.2-11.4c0-1.4-0.2-1.9-0.9-2.1-0.4-0.1-1-0.1-1.1-0.1-0.2 0-0.2-0.1-0.2-0.2 0-0.1 0.2-0.2 0.4-0.2 1.1 0 2.2 0.1 2.5 0.1 0.3 0 1-0.1 2-0.1 0.2 0 0.4 0.1 0.4 0.2 0 0.1-0.1 0.2-0.3 0.2q-0.1 0-0.5 0.1c-0.8 0.1-0.8 0.6-0.8 1.9l-0.1 13.4c0 1.4 0 1.6-0.2 1.6-0.2 0-0.5-0.2-1.8-1.4-0.2-0.2-3.6-3.6-6.1-6.2-2.7-2.8-5.4-5.6-6.1-6.4z"/><path fill-rule="evenodd" class="a" d="m73.9 60.6c0-3.5 0-4.2 0-4.9-0.1-0.7-0.2-1.1-1-1.2-0.2-0.1-0.6-0.1-0.8-0.1-0.1 0-0.2-0.1-0.2-0.2q0-0.2 0.4-0.2c1.1 0 2.6 0.1 2.7 0.1 0.3 0 1.8-0.1 3.2-0.1 2.3 0 6.6-0.2 9.4 2.6 1.2 1.2 2.3 3.1 2.3 5.8 0 2.9-1.2 5.1-2.6 6.4-1 1-3.1 2.6-7.1 2.6-1 0-2.3-0.1-3.3-0.1-1-0.1-1.8-0.2-1.9-0.2 0 0-0.5 0.1-1 0.1-0.4 0-1 0-1.4 0q-0.3 0-0.3-0.2c0 0 0-0.2 0.1-0.2 0.3 0 0.6 0 0.8-0.1 0.4-0.1 0.5-0.5 0.6-1.2 0.1-0.9 0.1-2.7 0.1-4.9zm2.1 2.5c0 2.4 0 4.5 0.1 4.9 0 0.6 0.1 1.4 0.2 1.7 0.3 0.4 1.2 0.9 3.9 0.9 2.2 0 4.1-0.8 5.5-2.1 1.3-1.1 1.9-3.3 1.9-5.4 0-2.9-1.3-4.7-2.2-5.7-2.2-2.2-4.8-2.5-7.6-2.5-0.5 0-1.2 0.1-1.5 0.1-0.2 0.1-0.3 0.2-0.3 0.5z"/><path class="a" d="m120.7 67.8c0.1 0.9 0.3 2.4 1.4 2.8 0.8 0.2 1.5 0.2 1.8 0.2q0.2 0 0.2 0.2c0 0.1-0.3 0.2-0.6 0.2-0.6 0-3.5-0.1-4.4-0.1-0.7-0.1-0.8-0.2-0.8-0.3q0-0.2 0.2-0.2c0.1 0 0.2-0.5 0.1-1l-1.3-13.7h-0.1l-6.5 13.9c-0.6 1.1-0.6 1.4-0.9 1.4-0.2 0-0.3-0.3-0.8-1.3-0.7-1.3-3-5.9-3.1-6.2-0.3-0.4-3.3-6.8-3.6-7.6h-0.1l-1 12.4c-0.1 0.5-0.1 0.9-0.1 1.4 0 0.4 0.3 0.7 0.7 0.8 0.5 0.1 0.9 0.1 1 0.1 0.1 0 0.3 0.1 0.3 0.2 0 0.2-0.2 0.2-0.5 0.2-1 0-2.3-0.1-2.5-0.1-0.2 0-1.5 0.1-2.3 0.1-0.2 0-0.4 0-0.4-0.2 0-0.1 0.1-0.2 0.3-0.2 0.2 0 0.4 0 0.8 0 0.8-0.2 0.9-1.2 1-2.2l2-17.5c0-0.3 0.1-0.4 0.2-0.4 0.2 0 0.3 0.1 0.4 0.4l8.2 16.8 7.9-16.8c0.1-0.3 0.2-0.4 0.4-0.4 0.2 0 0.2 0.2 0.3 0.7z"/><path fill-rule="evenodd" class="a" d="m130.4 54.5c0.3-0.7 0.4-0.9 0.6-0.9 0.2 0 0.3 0.3 0.5 0.8 0.5 1 4.2 10.4 5.7 13.8 0.8 2.1 1.5 2.4 2 2.5 0.3 0.1 0.7 0.1 0.9 0.1 0.1 0 0.3 0.1 0.3 0.2 0 0.2-0.3 0.2-0.5 0.2-0.4 0-2.1 0-3.7 0-0.5-0.1-0.9-0.1-0.9-0.2 0-0.1 0.1-0.1 0.2-0.2 0.1 0 0.4-0.2 0.2-0.6l-2.1-5.2c-0.1-0.1-0.1-0.1-0.2-0.1h-5.4q-0.2 0-0.3 0.2l-1.3 3.6c-0.2 0.6-0.4 1.1-0.4 1.5 0 0.5 0.4 0.6 0.8 0.6h0.2c0.2 0 0.3 0.1 0.3 0.2q0 0.2-0.4 0.2c-0.5 0-1.8-0.1-2.1-0.1-0.2 0-1.4 0.1-2.4 0.1q-0.4 0-0.4-0.2c0-0.1 0.1-0.2 0.2-0.2 0.2 0 0.5 0 0.7 0 1.1-0.1 1.5-0.9 2-2.1zm2.6 9.5c0.1 0 0.1-0.1 0.1-0.2l-2.3-6.2q-0.2-0.5-0.4 0l-2.2 6.2q-0.1 0.2 0 0.2z"/><path fill-rule="evenodd" class="a" d="m141.5 60.6c0-3.5 0-4.2-0.1-4.9 0-0.7-0.1-1.1-0.9-1.2-0.2-0.1-0.6-0.1-0.8-0.1-0.1 0-0.2-0.1-0.2-0.2q0-0.2 0.4-0.2c1 0 2.6 0.1 2.8 0.1 0.2 0 2.2-0.1 2.9-0.1 1.5 0 3.1 0.2 4.4 1 0.6 0.5 1.6 1.6 1.6 3.1 0 1.7-0.7 3.3-2.9 5.2 1.9 2.4 3.6 4.5 4.9 5.9 1.3 1.3 2.1 1.5 2.6 1.6 0.5 0 0.7 0 0.9 0 0.1 0 0.2 0.2 0.2 0.2 0 0.2-0.1 0.2-0.6 0.2h-1.4c-1.4 0-2-0.1-2.6-0.4-1-0.6-1.8-1.7-3.2-3.4-0.9-1.2-2-2.7-2.5-3.3-0.1-0.1-0.2-0.1-0.3-0.1l-3-0.1q-0.2 0-0.2 0.2v0.6c0 2.1 0 3.9 0.1 4.8 0.1 0.7 0.3 1.1 1 1.2 0.3 0.1 0.8 0.1 1 0.1 0.2 0 0.2 0.2 0.2 0.2 0 0.1-0.1 0.2-0.4 0.2-1.3 0-2.7-0.1-2.9-0.1 0 0-1.6 0.1-2.3 0.1q-0.3 0-0.4-0.2c0 0 0.1-0.2 0.2-0.2 0.2 0 0.5 0 0.8-0.1 0.4-0.1 0.5-0.5 0.6-1.2 0.1-0.9 0.1-2.7 0.1-4.9zm2 1.9q0 0.2 0.2 0.3c0.3 0.2 1.5 0.4 2.6 0.4 0.5 0 1.2 0 1.7-0.4 0.8-0.5 1.5-1.7 1.5-3.5 0-2.8-1.6-4.4-4.1-4.4-0.7 0-1.4 0-1.7 0.1q-0.2 0.1-0.2 0.3z"/><path class="a" d="m168.9 65.4c0-1.8-0.1-2.1-1-2.3-0.2 0-0.6 0-0.8 0-0.1 0-0.2-0.1-0.2-0.2 0-0.2 0.1-0.2 0.4-0.2 1 0 2.6 0.1 2.7 0.1 0.1 0 1.6-0.1 2.3-0.1 0.3 0 0.4 0 0.4 0.2 0 0.1-0.1 0.2-0.2 0.2-0.1 0-0.3 0-0.6 0-0.6 0.1-0.8 0.5-0.9 1.3 0 0.7 0 1.4 0 2.3v2.6c0 1 0 1-0.3 1.2-1.5 0.8-3.6 1-5 1-1.8 0-5.1-0.2-7.7-2.4-1.5-1.2-2.8-3.6-2.8-6.5 0-3.6 1.8-6.2 3.9-7.4 2.1-1.3 4.4-1.5 6.2-1.5 1.5 0 3.2 0.3 3.6 0.4 0.5 0.1 1.3 0.2 1.9 0.2 0.3 0 0.3 0.1 0.3 0.3 0 0.3-0.1 0.9-0.1 3.2 0 0.3-0.1 0.4-0.3 0.4-0.1 0-0.1-0.1-0.1-0.3-0.1-0.3-0.2-1-0.6-1.5-0.6-0.9-2.3-1.8-5.4-1.8-1.4 0-3.1 0.1-4.9 1.5-1.4 1-2.3 3.1-2.3 5.7 0 3.2 1.6 5.5 2.5 6.3 1.8 1.7 3.8 2.4 6 2.4 0.8 0 1.9-0.1 2.5-0.5 0.3-0.1 0.5-0.2 0.5-0.6z"/><path class="a" d="m190.4 64.6c0 2.2 0.1 4 0.2 4.9 0.1 0.7 0.1 1.1 0.8 1.2 0.3 0.1 0.9 0.1 1.1 0.1 0.1 0 0.2 0.2 0.2 0.2q0 0.2-0.4 0.2c-1.3 0-2.8-0.1-2.9-0.1-0.1 0-1.7 0.1-2.4 0.1q-0.3 0-0.3-0.2c0 0 0-0.2 0.2-0.2 0.2 0 0.4 0 0.7-0.1 0.4-0.1 0.5-0.5 0.6-1.2 0.1-0.9 0.1-2.6 0.1-4.8v-2.3q0-0.1-0.1-0.1h-9.8q-0.2 0-0.2 0.1v2.3c0 2.2 0 3.9 0.1 4.8 0.1 0.7 0.2 1.1 0.9 1.2 0.3 0.1 0.8 0.1 1.1 0.1 0.1 0 0.2 0.2 0.2 0.2 0 0.1-0.2 0.2-0.4 0.2-1.3 0-2.8-0.1-2.9-0.1-0.2 0-1.7 0.1-2.4 0.1q-0.4 0-0.4-0.2c0 0 0.1-0.2 0.2-0.2 0.2 0 0.5 0 0.7-0.1 0.5-0.1 0.6-0.5 0.7-1.2 0.1-0.9 0.1-2.7 0.1-4.9v-4c0-3.5 0-4.2-0.1-4.9 0-0.7-0.1-1.1-0.9-1.2-0.2-0.1-0.6-0.1-0.8-0.1-0.1 0-0.2-0.1-0.2-0.2q0-0.2 0.4-0.2c1 0 2.5 0.1 2.7 0.1 0.1 0 1.6-0.1 2.3-0.1q0.4 0 0.4 0.2c0 0.1-0.1 0.2-0.2 0.2-0.2 0-0.3 0-0.6 0.1-0.7 0.1-0.8 0.4-0.8 1.2-0.1 0.7-0.1 1.4-0.1 5v0.5c0 0.1 0.1 0.1 0.2 0.1h9.8c0.1 0 0.1 0 0.1-0.1v-0.5c0-3.6 0-4.3 0-5-0.1-0.7-0.2-1.1-1-1.2-0.2-0.1-0.6-0.1-0.8-0.1-0.1 0-0.2-0.1-0.2-0.2q0-0.2 0.4-0.2c1 0 2.6 0.1 2.7 0.1 0.1 0 1.6-0.1 2.3-0.1q0.4 0 0.4 0.2c0 0.1-0.1 0.2-0.2 0.2-0.2 0-0.3 0-0.6 0.1-0.6 0.1-0.8 0.4-0.8 1.2-0.1 0.7-0.1 1.4-0.1 4.9z"/><path class="a" d="m196.2 60.6c0-3.5 0-4.2-0.1-4.9 0-0.7-0.2-1.1-0.9-1.2-0.2-0.1-0.6-0.1-0.8-0.1-0.1 0-0.2-0.1-0.2-0.2q0-0.2 0.4-0.2c1 0 2.5 0.1 2.7 0.1 0.1 0 5.1 0 5.6 0 0.4 0 0.9-0.1 1.1-0.1 0.1-0.1 0.2-0.1 0.3-0.1 0.1 0 0.1 0.1 0.1 0.2 0 0.1-0.1 0.4-0.2 1 0 0.3-0.1 1.3-0.1 1.5-0.1 0.1-0.1 0.3-0.3 0.3q-0.1 0-0.1-0.3c0-0.2-0.1-0.6-0.2-0.8-0.1-0.4-0.4-0.6-1.7-0.7-0.4-0.1-3.1-0.1-3.3-0.1q-0.2 0-0.2 0.2v6.2c0 0.2 0 0.3 0.2 0.3 0.2 0 3.3 0 3.9-0.1 0.5 0 0.9-0.1 1.1-0.3 0.2-0.2 0.3-0.3 0.4-0.3q0.1 0 0.1 0.2c0 0.1-0.1 0.5-0.2 1.2 0 0.5-0.1 1.3-0.1 1.5 0 0.2 0 0.4-0.2 0.4q-0.2 0-0.2-0.2c0-0.2 0-0.4-0.1-0.7 0-0.4-0.3-0.6-1.2-0.7-0.6-0.1-3.1-0.1-3.5-0.1-0.2 0-0.2 0-0.2 0.1v1.9c0 0.8 0 3.4 0 3.9 0.1 1.5 0.5 1.8 2.8 1.8 0.6 0 1.8 0 2.4-0.2 0.6-0.3 0.9-0.7 1-1.6 0.1-0.3 0.2-0.3 0.3-0.3 0.1 0 0.1 0.1 0.1 0.3 0 0.2-0.1 1.7-0.3 2.2-0.1 0.6-0.4 0.6-1.3 0.6-1.7 0-3.1-0.1-4.1-0.1-1-0.1-1.6-0.1-1.9-0.1-0.1 0-0.5 0-1 0.1-0.5 0-1 0-1.4 0q-0.4 0-0.4-0.2c0 0 0.1-0.2 0.2-0.2 0.2 0 0.5 0 0.7-0.1 0.5 0 0.5-0.5 0.6-1.2 0.2-0.9 0.2-2.7 0.2-4.9z"/><path fill-rule="evenodd" class="a" d="m208.9 60.6c0-3.5 0-4.2-0.1-4.9 0-0.7-0.1-1.1-0.9-1.2-0.2-0.1-0.6-0.1-0.8-0.1-0.1 0-0.2-0.1-0.2-0.2q0-0.2 0.4-0.2c1 0 2.6 0.1 2.7 0.1 0.3 0 2.3-0.1 3-0.1 1.5 0 3.1 0.2 4.4 1 0.6 0.5 1.6 1.6 1.6 3.1 0 1.7-0.7 3.3-2.9 5.2 1.9 2.4 3.6 4.5 4.9 5.9 1.3 1.3 2.1 1.5 2.6 1.6 0.5 0 0.7 0 0.9 0 0.1 0 0.2 0.2 0.2 0.2 0 0.2-0.1 0.2-0.6 0.2h-1.4c-1.4 0-2-0.1-2.6-0.4-1-0.6-1.8-1.7-3.2-3.4-0.9-1.2-2-2.7-2.5-3.3-0.1-0.1-0.2-0.1-0.3-0.1l-3-0.1q-0.2 0-0.2 0.2v0.6c0 2.1 0 3.9 0.1 4.8 0.1 0.7 0.2 1.1 1 1.2 0.3 0.1 0.8 0.1 1 0.1 0.2 0 0.2 0.2 0.2 0.2 0 0.1-0.1 0.2-0.4 0.2-1.3 0-2.8-0.1-2.9-0.1 0 0-1.6 0.1-2.3 0.1q-0.4 0-0.4-0.2c0 0 0.1-0.2 0.2-0.2 0.2 0 0.5 0 0.8-0.1 0.4-0.1 0.5-0.5 0.6-1.2 0.1-0.9 0.1-2.7 0.1-4.9zm2 1.9q0 0.2 0.2 0.3c0.3 0.2 1.5 0.4 2.6 0.4 0.5 0 1.2 0 1.7-0.4 0.8-0.5 1.5-1.7 1.5-3.5 0-2.8-1.6-4.4-4.1-4.4-0.7 0-1.4 0-1.7 0.1q-0.2 0.1-0.2 0.3z"/><path class="a" d="m227 64.6c0 2.2 0 4 0.1 4.9 0.1 0.7 0.1 1.1 0.8 1.2 0.4 0.1 0.9 0.1 1.1 0.1 0.1 0 0.2 0.2 0.2 0.2 0 0.1-0.1 0.2-0.4 0.2-1.3 0-2.8-0.1-2.9-0.1-0.1 0-1.6 0.1-2.3 0.1q-0.4 0-0.4-0.2c0 0 0-0.2 0.2-0.2 0.2 0 0.5 0 0.7-0.1 0.5-0.1 0.5-0.5 0.6-1.2 0.1-0.9 0.1-2.7 0.1-4.9v-4c0-3.5 0-4.2 0-4.9-0.1-0.7-0.2-1.1-0.8-1.2-0.2-0.1-0.5-0.1-0.7-0.1-0.1 0-0.2-0.1-0.2-0.2q0-0.2 0.4-0.2c0.8 0 2.3 0.1 2.4 0.1 0.1 0 1.6-0.1 2.3-0.1q0.4 0 0.4 0.2c0 0.1-0.1 0.2-0.2 0.2-0.1 0-0.3 0-0.6 0.1-0.6 0.1-0.7 0.4-0.8 1.2 0 0.7 0 1.4 0 4.9z"/><path class="a" d="m238.4 64.6c0 2.2 0 4 0.1 4.9 0 0.7 0.2 1.1 0.9 1.2 0.3 0.1 0.8 0.1 1 0.1 0.2 0 0.2 0.2 0.2 0.2 0 0.1-0.1 0.2-0.3 0.2-1.3 0-2.8-0.1-3-0.1-0.1 0-1.7 0.1-2.4 0.1q-0.4 0-0.4-0.2c0 0 0.1-0.1 0.2-0.1 0.2 0 0.5-0.1 0.7-0.1 0.5-0.1 0.6-0.6 0.7-1.3 0.1-0.9 0.1-2.7 0.1-4.9v-9.5h-3.4c-1.4 0.1-2 0.2-2.3 0.8-0.3 0.4-0.3 0.5-0.4 0.7-0.1 0.2-0.2 0.2-0.3 0.2 0 0-0.1-0.1-0.1-0.2 0-0.2 0.5-2.3 0.5-2.4 0-0.2 0.1-0.5 0.2-0.5 0.2 0 0.4 0.2 1.1 0.3 0.6 0.1 1.5 0.1 1.8 0.1h8.9c0.8 0 1.3-0.1 1.7-0.1q0.5-0.1 0.6-0.1c0.1 0 0.1 0.1 0.1 0.3 0 0.6 0 2.3 0 2.5 0 0.2-0.1 0.3-0.3 0.3-0.1 0-0.1 0-0.1-0.4l-0.1-0.2c0-0.7-0.6-1.2-2.8-1.3h-2.9z"/><path fill-rule="evenodd" class="a" d="m250 54.5c0.3-0.7 0.4-0.9 0.6-0.9 0.2 0 0.3 0.3 0.5 0.8 0.5 1 4.2 10.4 5.7 13.8 0.8 2.1 1.5 2.4 2 2.5 0.3 0.1 0.7 0.1 0.9 0.1 0.1 0 0.3 0.1 0.3 0.2 0 0.2-0.3 0.2-0.5 0.2-0.4 0-2.1 0-3.7 0-0.5-0.1-0.9-0.1-0.9-0.2 0-0.1 0.1-0.1 0.2-0.2 0.1 0 0.4-0.2 0.2-0.6l-2.1-5.2c-0.1-0.1-0.1-0.1-0.2-0.1h-5.4q-0.2 0-0.3 0.2l-1.3 3.6c-0.2 0.6-0.4 1.1-0.4 1.5 0 0.5 0.4 0.6 0.8 0.6h0.2c0.2 0 0.3 0.1 0.3 0.2q0 0.2-0.4 0.2c-0.5 0-1.8-0.1-2.1-0.1-0.2 0-1.4 0.1-2.4 0.1q-0.4 0-0.4-0.2c0-0.1 0.1-0.2 0.2-0.2 0.2 0 0.5 0 0.7 0 1.1-0.1 1.5-0.9 2-2.1zm2.6 9.5c0.1 0 0.1-0.1 0.1-0.2l-2.3-6.2q-0.2-0.5-0.4 0l-2.2 6.2q-0.1 0.2 0 0.2z"/></g></svg>