<svg version="1.2" xmlns="http://www.w3.org/2000/svg" viewBox="0 0 26 25" width="26" height="25"><defs><clipPath clipPathUnits="userSpaceOnUse" id="cp1"><path d="m-945-2074h1920v2530h-1920z"/></clipPath></defs><style>.a{fill:#fff}</style><g clip-path="url(#cp1)"><path fill-rule="evenodd" class="a" d="m23.5 23c-0.7 1.1-2.2 2-3.5 2h-14c-1.3 0-2.8-0.9-3.5-2-3.3-6.3-3.3-13.7 0-20 0.7-1.1 2.2-2 3.5-2h14c1.3 0 2.8 0.9 3.5 2 3.3 6.3 3.3 13.7 0 20zm-0.9-19.5c-0.5-0.9-1.8-1.5-2.6-1.5h-14c-0.8 0-2.1 0.6-2.6 1.5-3.2 5.9-3.2 13.1 0 19 0.5 0.9 1.8 1.5 2.6 1.5h14c0.8 0 2.1-0.6 2.6-1.5 3.2-5.9 3.2-13.1 0-19z"/><path fill-rule="evenodd" class="a" d="m16 16.4v4.3c0 0.5-0.5 0.9-1 0.9h-4c-0.5 0-1-0.4-1-0.9v-4.3c0-0.5 0.3-1 0.8-1.2 1.3-0.7 3.1-0.7 4.4 0 0.5 0.2 0.8 0.7 0.8 1.2zm-1 4.3v-4.3c0-0.1-0.1-0.3-0.2-0.4-0.6-0.2-1.2-0.4-1.8-0.4-0.6 0-1.2 0.2-1.8 0.5-0.1 0-0.2 0.2-0.2 0.3v4.3h4z"/><path class="a" d="m8 6.3v6.2c0 0.3-0.2 0.5-0.5 0.5-0.2 0-0.5-0.2-0.5-0.5v-6.2c0-0.3 0.3-0.5 0.5-0.5 0.3 0 0.5 0.2 0.5 0.5z"/><path class="a" d="m19 6.3v6.2c0 0.3-0.3 0.5-0.5 0.5-0.3 0-0.5-0.2-0.5-0.5v-6.2c0-0.3 0.2-0.5 0.5-0.5 0.2 0 0.5 0.2 0.5 0.5z"/><path fill-rule="evenodd" class="a" d="m6 25c-1.3 0-2.8-0.9-3.5-2-3.3-6.3-3.3-13.7 0-20 0.7-1.1 2.2-2 3.5-2h14c1.3 0 2.8 0.9 3.5 2 3.3 6.3 3.3 13.7 0 20-0.7 1.1-2.2 2-3.5 2zm-2.7-21.5c-3.2 5.9-3.2 13.1 0 19 0.5 0.9 1.8 1.5 2.7 1.5h13.9c0.8 0 2.1-0.6 2.6-1.5 3.2-5.9 3.2-13.1 0-19-0.5-0.9-1.8-1.5-2.6-1.5h-13.9c-0.9 0-2.2 0.6-2.7 1.5zm11.6 18.1h-4c-0.5 0-1-0.4-1-0.9v-4.3c0-0.5 0.3-1 0.8-1.2 1.3-0.7 3.1-0.7 4.4 0 0.5 0.2 0.8 0.7 0.8 1.2v4.3c0 0.5-0.5 0.9-1 0.9zm-3.8-5.5c-0.1 0-0.2 0.2-0.2 0.3v4.3h4v-4.3c0-0.1-0.1-0.3-0.2-0.4-0.6-0.2-1.2-0.4-1.8-0.4-0.6 0-1.2 0.2-1.8 0.5zm6.8-3.6v-6.2c0-0.3 0.2-0.5 0.5-0.5 0.2 0 0.5 0.2 0.5 0.5v6.2c0 0.3-0.3 0.5-0.5 0.5-0.3 0-0.5-0.2-0.5-0.5zm-11 0v-6.2c0-0.3 0.3-0.5 0.5-0.5 0.3 0 0.5 0.2 0.5 0.5v6.2c0 0.3-0.2 0.5-0.5 0.5-0.2 0-0.5-0.2-0.5-0.5z"/></g></svg>