<svg version="1.2" xmlns="http://www.w3.org/2000/svg" viewBox="0 0 28 26" width="28" height="26"><defs><clipPath clipPathUnits="userSpaceOnUse" id="cp1"><path d="m-641-1878h1920v2530h-1920z"/></clipPath></defs><style>.a{fill:#fff}</style><g clip-path="url(#cp1)"><path class="a" d="m24.5 21.1q0 0 0.1 0.1l1.9 4.1c0.1 0.3 0 0.6-0.3 0.7q-0.1 0-0.2 0c-0.1 0-0.3-0.1-0.4-0.3l-1.9-4.1q-0.1-0.1-0.1-0.2h-2.9v4.1c0 0.3-0.2 0.5-0.4 0.5-0.3 0-0.5-0.2-0.5-0.5v-4.1q0-0.1 0-0.1c-0.6-0.2-1-0.7-1-1.3 0-0.8 0.7-1.4 1.5-1.4h3.3c0.3 0 0.5 0.2 0.5 0.5 0 0.2-0.2 0.4-0.5 0.4h-3.3c-0.3 0-0.5 0.2-0.5 0.5 0 0.2 0.2 0.4 0.5 0.4h3.3c0.3 0 0.7-0.2 0.8-0.5l1.7-6.1c0-0.2 0.3-0.4 0.5-0.3 0.3 0.1 0.5 0.3 0.4 0.6l-1.7 6c-0.1 0.4-0.4 0.8-0.8 1z"/><path class="a" d="m9.2 20c0 0.6-0.4 1.1-1 1.3v4.2c0 0.3-0.2 0.5-0.5 0.5-0.2 0-0.4-0.2-0.4-0.5v-4.1h-2.9c0 0 0 0.1-0.1 0.2l-1.9 4.1c-0.1 0.2-0.3 0.3-0.4 0.3q-0.1 0-0.2 0c-0.3-0.1-0.4-0.4-0.3-0.7l1.9-4.1q0.1-0.1 0.1-0.1c-0.4-0.2-0.7-0.6-0.8-1l-1.7-6c-0.1-0.3 0.1-0.5 0.4-0.6 0.2-0.1 0.5 0.1 0.5 0.3l1.7 6.1c0.1 0.3 0.5 0.5 0.8 0.5h3.3c0.3 0 0.5-0.2 0.5-0.4 0-0.3-0.2-0.5-0.5-0.5h-3.3c-0.3 0-0.5-0.2-0.5-0.4 0-0.3 0.2-0.5 0.5-0.5h3.3c0.8 0 1.5 0.6 1.5 1.4z"/><path class="a" d="m18.3 25.5c0 0.3-0.2 0.5-0.4 0.5-1.8 0-3.9-2.6-3.9-5.6 0-1.9 1.3-3.6 2.2-4.6h-4.4c0.9 1 2.2 2.7 2.2 4.6 0 3-2.1 5.6-3.9 5.6-0.2 0-0.4-0.2-0.4-0.5 0-0.2 0.2-0.4 0.4-0.4 1.2 0 2.9-2.1 2.9-4.7 0-2.2-2-4.1-2.6-4.6h-2.2c-0.2 0-0.5-0.2-0.5-0.4 0-0.3 0.3-0.5 0.5-0.5h11.6c0.2 0 0.5 0.2 0.5 0.5 0 0.2-0.3 0.4-0.5 0.4h-2.2c-0.6 0.5-2.6 2.4-2.6 4.6 0 2.6 1.7 4.7 2.9 4.7 0.2 0 0.4 0.2 0.4 0.4z"/><path fill-rule="evenodd" class="a" d="m1.5 7.5c0-0.2 0.1-0.4 0.3-0.4l11.7-4.9v-0.7c0-0.3 0.2-0.5 0.5-0.5 0.3 0 0.5 0.2 0.5 0.5v0.7l11.7 4.9c0.2 0 0.3 0.2 0.3 0.4 0 1-0.8 1.8-1.9 1.8h-1.9c-0.6 0-1.1-0.2-1.5-0.6-0.3 0.4-0.8 0.6-1.4 0.6h-1.9c-0.6 0-1.1-0.2-1.5-0.6-0.3 0.4-0.9 0.6-1.4 0.6h-0.5v4.2c0 0.3-0.2 0.5-0.5 0.5-0.3 0-0.5-0.2-0.5-0.5v-4.2h-0.5c-0.5 0-1.1-0.2-1.4-0.6-0.4 0.4-0.9 0.6-1.5 0.6h-1.9c-0.6 0-1.1-0.2-1.4-0.6-0.4 0.4-0.9 0.6-1.5 0.6h-1.9c-1.1 0-1.9-0.8-1.9-1.8zm1 0.3c0.1 0.3 0.5 0.6 0.9 0.6h1.9c0.6 0 1-0.4 1-0.9 0-0.3 0.2-0.5 0.5-0.5 0.2 0 0.5 0.2 0.5 0.5 0 0.5 0.4 0.9 0.9 0.9h1.9c0.6 0 1-0.4 1-0.9 0-0.3 0.2-0.5 0.5-0.5 0.3 0 0.5 0.2 0.5 0.5 0 0.5 0.4 0.9 0.9 0.9h2c0.5 0 0.9-0.4 0.9-0.9 0-0.3 0.2-0.5 0.5-0.5 0.3 0 0.5 0.2 0.5 0.5 0 0.5 0.4 0.9 1 0.9h1.9c0.5 0 0.9-0.4 0.9-0.9 0-0.3 0.3-0.5 0.5-0.5 0.3 0 0.5 0.2 0.5 0.5 0 0.5 0.4 0.9 1 0.9h1.9c0.4 0 0.8-0.3 0.9-0.6l-11.5-4.8z"/><path fill-rule="evenodd" class="a" d="m25.6 25.7l-1.9-4.1q-0.1-0.1-0.1-0.2h-2.9v4.1c0 0.3-0.2 0.5-0.4 0.5-0.3 0-0.5-0.2-0.5-0.5v-4.1q0-0.1 0-0.1c-0.6-0.2-1-0.7-1-1.3 0-0.8 0.7-1.4 1.5-1.4h3.3c0.3 0 0.5 0.2 0.5 0.5 0 0.2-0.2 0.4-0.5 0.4h-3.3c-0.3 0-0.5 0.2-0.5 0.5 0 0.2 0.2 0.4 0.5 0.4h3.3c0.3 0 0.7-0.2 0.8-0.5l1.7-6.1c0-0.2 0.3-0.4 0.5-0.3 0.3 0.1 0.5 0.3 0.4 0.6l-1.7 6c-0.1 0.4-0.4 0.8-0.8 1q0 0 0.1 0.1l1.9 4.1c0.1 0.3 0 0.6-0.3 0.7q-0.1 0-0.2 0c-0.1 0-0.3-0.1-0.4-0.3zm-11.6-5.3c0-1.9 1.3-3.6 2.2-4.6h-4.4c0.9 1 2.2 2.7 2.2 4.6 0 3-2.1 5.6-3.9 5.6-0.2 0-0.4-0.2-0.4-0.5 0-0.2 0.2-0.4 0.4-0.4 1.2 0 2.9-2.1 2.9-4.7 0-2.2-2-4.1-2.6-4.6h-2.2c-0.2 0-0.5-0.2-0.5-0.4 0-0.3 0.3-0.5 0.5-0.5h11.6c0.2 0 0.5 0.2 0.5 0.5 0 0.2-0.3 0.4-0.5 0.4h-2.2c-0.6 0.5-2.6 2.4-2.6 4.6 0 2.6 1.7 4.7 2.9 4.7 0.2 0 0.4 0.2 0.4 0.4 0 0.3-0.2 0.5-0.4 0.5-1.8 0-3.9-2.6-3.9-5.6zm-6.7 5.1v-4.1h-2.9c0 0 0 0.1-0.1 0.2l-1.9 4.1c-0.1 0.2-0.3 0.3-0.4 0.3q-0.1 0-0.2 0c-0.3-0.1-0.4-0.4-0.3-0.7l1.9-4.1q0.1-0.1 0.1-0.1c-0.4-0.2-0.7-0.6-0.8-1l-1.7-6c-0.1-0.3 0.1-0.5 0.4-0.6 0.2-0.1 0.5 0.1 0.5 0.3l1.7 6.1c0.1 0.3 0.5 0.5 0.8 0.5h3.3c0.3 0 0.5-0.2 0.5-0.4 0-0.3-0.2-0.5-0.5-0.5h-3.3c-0.3 0-0.5-0.2-0.5-0.4 0-0.3 0.2-0.5 0.5-0.5h3.3c0.8 0 1.5 0.6 1.5 1.4 0 0.6-0.4 1.1-1 1.3v4.2c0 0.3-0.2 0.5-0.5 0.5-0.2 0-0.4-0.2-0.4-0.5zm6.2-12v-4.2h-0.5c-0.5 0-1.1-0.2-1.4-0.6-0.4 0.4-0.9 0.6-1.5 0.6h-1.9c-0.6 0-1.1-0.2-1.4-0.6-0.4 0.4-0.9 0.6-1.5 0.6h-1.9c-1.1 0-1.9-0.8-1.9-1.8 0-0.2 0.1-0.4 0.3-0.4l11.7-4.9v-0.7c0-0.3 0.2-0.5 0.5-0.5 0.3 0 0.5 0.2 0.5 0.5v0.7l11.7 4.9c0.2 0 0.3 0.2 0.3 0.4 0 1-0.8 1.8-1.9 1.8h-1.9c-0.6 0-1.1-0.2-1.5-0.6-0.3 0.4-0.8 0.6-1.4 0.6h-1.9c-0.6 0-1.1-0.2-1.5-0.6-0.3 0.4-0.9 0.6-1.4 0.6h-0.5v4.2c0 0.3-0.2 0.5-0.5 0.5-0.3 0-0.5-0.2-0.5-0.5zm8.2-6c0 0.5 0.4 0.9 1 0.9h1.9c0.4 0 0.8-0.3 0.9-0.6l-11.5-4.8-11.5 4.8c0.1 0.3 0.5 0.6 0.9 0.6h1.9c0.6 0 1-0.4 1-0.9 0-0.3 0.2-0.5 0.5-0.5 0.2 0 0.5 0.2 0.5 0.5 0 0.5 0.4 0.9 0.9 0.9h1.9c0.6 0 1-0.4 1-0.9 0-0.3 0.2-0.5 0.5-0.5 0.3 0 0.5 0.2 0.5 0.5 0 0.5 0.4 0.9 0.9 0.9h2c0.5 0 0.9-0.4 0.9-0.9 0-0.3 0.2-0.5 0.5-0.5 0.3 0 0.5 0.2 0.5 0.5 0 0.5 0.4 0.9 1 0.9h1.9c0.5 0 0.9-0.4 0.9-0.9 0-0.3 0.3-0.5 0.5-0.5 0.3 0 0.5 0.2 0.5 0.5z"/></g></svg>