<svg version="1.2" xmlns="http://www.w3.org/2000/svg" viewBox="0 0 27 28" width="27" height="28"><defs><clipPath clipPathUnits="userSpaceOnUse" id="cp1"><path d="m-641-1917h1920v2530h-1920z"/></clipPath></defs><style>.a{fill:#fff}</style><g clip-path="url(#cp1)"><path fill-rule="evenodd" class="a" d="m26.5 18.1c-0.4 0.4-0.9 1.2-1.2 2.2l-0.5 2.1c-0.3 1.1-1.3 2-2.5 2.2q0.3 0.3 0.5 0.7c0.4 0.7 1 0.7 1.5 0.7 0.3 0 0.5 0.3 0.5 0.5 0 0.3-0.2 0.5-0.5 0.5-0.5 0-1.7 0-2.3-1.2-0.4-0.7-1-1.1-1.2-1.2h-12.5q-0.2 0-0.4 0c-0.2 0.1-0.8 0.5-1.2 1.2-0.6 1.2-1.8 1.2-2.3 1.2-0.3 0-0.5-0.2-0.5-0.5 0-0.2 0.2-0.5 0.5-0.5 0.5 0 1.1 0 1.5-0.7 0.2-0.3 0.4-0.7 0.7-0.9-1.3-0.3-2.9-1.1-3.4-3l-0.6-2.1c-0.2-0.7-0.4-1.1-0.5-1.3q-0.1-0.2-0.1-0.3c0 0-0.3-0.5-0.7-1-0.3-0.4-0.4-1-0.2-1.4 0.2-0.3 0.6-0.8 1.8-0.8h3.9c1.1 0 2.9 0.3 3.9 0.7l0.3 0.1c0.9 0.3 2.6 0.6 3.6 0.6h9.7v-11.5c0-1.4-1.2-2.4-2.9-2.4-1.6 0-2.9 1-2.9 2.4v0.5c1.3 0.3 1.8 1.7 1.9 2.1q0.1 0.1 0.1 0.3c0 0.2-0.3 0.4-0.5 0.4h-3.9q-0.3 0-0.4-0.1-0.2-0.2-0.1-0.5c0 0 0.5-1.8 1.9-2.2v-0.5c0-1.9 1.7-3.4 3.9-3.4 2.2 0 3.9 1.5 3.9 3.4v11.5c1.1 0 1.5 0.5 1.6 0.8 0.2 0.4 0.1 1-0.4 1.4zm-8.5-12.3c-0.6 0-1 0.5-1.2 1h2.4c-0.2-0.5-0.6-1-1.2-1zm8 11.3c0-0.1-0.2-0.2-0.7-0.2h-10.7c-1.1 0-2.9-0.3-4-0.7l-0.2-0.1c-0.9-0.4-2.6-0.7-3.6-0.7h-3.9c-0.5 0-0.8 0.2-0.9 0.3-0.1 0.1 0 0.3 0.1 0.4 0.2 0.3 0.8 1.1 0.9 1.4q0 0 0 0.1c0.1 0.2 0.3 0.7 0.5 1.5l0.6 2.1c0.7 2.2 3.1 2.4 4.2 2.4h13.6c0.9 0 1.8-0.7 2-1.5l0.5-2c0.2-1 0.8-2.1 1.5-2.7 0.1-0.1 0.1-0.3 0.1-0.3z"/><path class="a" d="m7.8 21.8c0 0.2-0.2 0.4-0.5 0.4q0 0 0 0c-1.3-0.1-2-1.5-2-1.6-0.1-0.2 0-0.5 0.2-0.6 0.3-0.1 0.6 0 0.7 0.2 0 0 0.4 1 1.1 1.1 0.3 0 0.5 0.2 0.5 0.5z"/><path class="a" d="m15.6 10.6v-1.4c0-0.3 0.2-0.5 0.5-0.5 0.2 0 0.4 0.2 0.4 0.5v1.4c0 0.3-0.2 0.5-0.4 0.5-0.3 0-0.5-0.2-0.5-0.5z"/><path class="a" d="m18 11.1c-0.3 0-0.5-0.2-0.5-0.5v-1.4c0-0.3 0.2-0.5 0.5-0.5 0.3 0 0.5 0.2 0.5 0.5v1.4c0 0.3-0.2 0.5-0.5 0.5z"/><path class="a" d="m20 11.1c-0.3 0-0.5-0.2-0.5-0.5v-1.4c0-0.3 0.2-0.5 0.5-0.5 0.2 0 0.4 0.2 0.4 0.5v1.4c0 0.3-0.2 0.5-0.4 0.5z"/><path fill-rule="evenodd" class="a" d="m22 25.8c-0.4-0.7-1-1.1-1.2-1.2h-12.5q-0.2 0-0.4 0c-0.2 0.1-0.8 0.5-1.2 1.2-0.6 1.2-1.8 1.2-2.3 1.2-0.3 0-0.5-0.2-0.5-0.5 0-0.2 0.2-0.5 0.5-0.5 0.5 0 1.1 0 1.5-0.7 0.2-0.3 0.4-0.7 0.7-0.9-1.3-0.3-2.9-1.1-3.4-3l-0.6-2.1c-0.2-0.7-0.4-1.1-0.5-1.3q-0.1-0.2-0.1-0.3c0 0-0.3-0.5-0.7-1-0.3-0.4-0.4-1-0.2-1.4 0.2-0.3 0.6-0.8 1.8-0.8h3.9c1.1 0 2.9 0.3 3.9 0.7l0.3 0.1c0.9 0.3 2.6 0.6 3.6 0.6h9.7v-11.5c0-1.4-1.2-2.4-2.9-2.4-1.6 0-2.9 1-2.9 2.4v0.5c1.3 0.3 1.8 1.7 1.9 2.1q0.1 0.1 0.1 0.3c0 0.2-0.3 0.4-0.5 0.4h-3.9q-0.3 0-0.4-0.1-0.2-0.2-0.1-0.5c0 0 0.5-1.8 1.9-2.2v-0.5c0-1.9 1.7-3.4 3.9-3.4 2.2 0 3.9 1.5 3.9 3.4v11.5c1.1 0 1.5 0.5 1.6 0.8 0.2 0.4 0.1 1-0.4 1.4-0.4 0.4-0.9 1.2-1.2 2.2l-0.5 2.1c-0.3 1.1-1.4 2-2.5 2.2q0.3 0.3 0.5 0.7c0.4 0.7 1 0.7 1.5 0.7 0.3 0 0.5 0.3 0.5 0.5 0 0.3-0.2 0.5-0.5 0.5-0.5 0-1.7 0-2.3-1.2zm-20-10.1c-0.1 0.1 0 0.3 0.1 0.4 0.2 0.3 0.8 1.1 0.9 1.4q0 0 0 0.1c0.1 0.2 0.3 0.7 0.5 1.5l0.6 2.1c0.7 2.2 3.1 2.4 4.2 2.4h13.6c0.9 0 1.8-0.7 2-1.5l0.5-2c0.2-1 0.8-2.1 1.5-2.7 0.1-0.1 0.1-0.3 0.1-0.3 0-0.1-0.2-0.2-0.7-0.2h-10.7c-1.1 0-2.9-0.3-4-0.7l-0.2-0.1c-0.9-0.4-2.6-0.7-3.6-0.7h-3.9c-0.5 0-0.8 0.2-0.9 0.3zm14.8-8.9h2.4c-0.2-0.5-0.6-1-1.2-1-0.6 0-1 0.5-1.2 1zm-9.5 15.4c-1.3-0.1-2-1.5-2-1.6-0.1-0.2 0-0.5 0.2-0.6 0.3-0.1 0.6 0 0.7 0.2 0 0 0.4 1 1.1 1.1 0.3 0 0.5 0.2 0.5 0.5 0 0.2-0.2 0.4-0.5 0.4q0 0 0 0zm12.2-11.6v-1.4c0-0.3 0.2-0.5 0.5-0.5 0.2 0 0.4 0.2 0.4 0.5v1.4c0 0.3-0.2 0.5-0.4 0.5-0.3 0-0.5-0.2-0.5-0.5zm-2 0v-1.4c0-0.3 0.2-0.5 0.5-0.5 0.3 0 0.5 0.2 0.5 0.5v1.4c0 0.3-0.2 0.5-0.5 0.5-0.3 0-0.5-0.2-0.5-0.5zm-1.9 0v-1.4c0-0.3 0.2-0.5 0.5-0.5 0.2 0 0.4 0.2 0.4 0.5v1.4c0 0.3-0.2 0.5-0.4 0.5-0.3 0-0.5-0.2-0.5-0.5z"/></g></svg>