<svg version="1.2" xmlns="http://www.w3.org/2000/svg" viewBox="0 0 20 17" width="20" height="17"><defs><clipPath clipPathUnits="userSpaceOnUse" id="cp1"><path d="m-916-793h1920v3200h-1920z"/></clipPath></defs><style>.a{fill:#22262e}</style><g clip-path="url(#cp1)"><path fill-rule="evenodd" class="a" d="m11.3 0c1 0 1.8 0.8 1.8 1.7v0.9h0.8v1.8h-3.4v-1.8h0.8v-0.9h-2.6v4.4h10.5v1.7c-0.6 0-1.1 0.4-1.1 1l-0.3 2.2c-0.2 1.3-0.9 2.3-1.9 3l0.6 2.5h-1.7l-0.5-1.8q-0.4 0.1-0.8 0.1h-7.8q-0.4 0-0.8-0.1l-0.5 1.8h-1.8l0.6-2.5c-1-0.7-1.7-1.7-1.8-3l-0.3-2.2c-0.1-0.6-0.5-1-1.1-1v-1.7h7v-4.4c0-0.9 0.8-1.7 1.7-1.7zm-8.5 8.6l0.3 2.2c0.1 1.3 1.3 2.3 2.6 2.3h7.8c1.3 0 2.4-1 2.6-2.3l0.2-2.2q0.1-0.4 0.2-0.8h-13.9q0.2 0.4 0.2 0.8z"/></g></svg>