<svg version="1.2" xmlns="http://www.w3.org/2000/svg" viewBox="0 0 28 26" width="28" height="26"><defs><clipPath clipPathUnits="userSpaceOnUse" id="cp1"><path d="m-944-2035h1920v2530h-1920z"/></clipPath></defs><style>.a{fill:#fff}</style><g clip-path="url(#cp1)"><path class="a" d="m8.5 25.7c-0.1 0.2-0.3 0.3-0.5 0.3q-0.1 0-0.1 0c-0.6-0.2-1.9-1.1-1.9-2.5 0-1 0.4-1.5 0.8-2 0.3-0.4 0.5-0.7 0.6-1.2 0.2-0.9-0.6-1.5-0.9-1.6-0.3-0.1-0.4-0.4-0.4-0.6 0.1-0.3 0.4-0.4 0.6-0.3 0.9 0.2 1.9 1.3 1.7 2.7-0.2 0.7-0.5 1.2-0.8 1.6-0.4 0.5-0.6 0.8-0.6 1.4 0 0.9 1 1.5 1.2 1.5 0.2 0.1 0.4 0.4 0.3 0.7z"/><path class="a" d="m12.8 25.7c-0.1 0.2-0.3 0.3-0.5 0.3q0 0-0.1 0c-0.6-0.2-1.8-1.1-1.8-2.5 0-1 0.4-1.5 0.7-2 0.3-0.4 0.6-0.7 0.7-1.2 0.1-0.9-0.7-1.5-1-1.6-0.3-0.1-0.4-0.4-0.3-0.6 0-0.3 0.3-0.4 0.6-0.3 0.8 0.2 1.9 1.3 1.6 2.7-0.1 0.7-0.5 1.2-0.8 1.6-0.3 0.5-0.6 0.8-0.6 1.4 0 0.9 1 1.5 1.2 1.5 0.2 0.1 0.4 0.4 0.3 0.7z"/><path class="a" d="m17.1 25.7c0 0.2-0.2 0.3-0.4 0.3q-0.1 0-0.2 0c-0.6-0.2-1.8-1.1-1.8-2.5 0-1 0.4-1.5 0.8-2 0.3-0.4 0.5-0.7 0.6-1.2 0.2-0.9-0.6-1.5-1-1.6-0.2-0.1-0.4-0.4-0.3-0.6 0.1-0.3 0.3-0.4 0.6-0.3 0.9 0.2 1.9 1.3 1.7 2.7-0.2 0.7-0.5 1.2-0.9 1.6-0.3 0.5-0.5 0.8-0.5 1.4 0 0.9 0.9 1.5 1.1 1.5 0.3 0.1 0.4 0.4 0.3 0.7z"/><path class="a" d="m21.5 25.7c-0.1 0.2-0.3 0.3-0.5 0.3q-0.1 0-0.1 0c-0.6-0.2-1.9-1.1-1.9-2.5 0-1 0.4-1.5 0.8-2 0.3-0.4 0.5-0.7 0.6-1.2 0.2-0.9-0.6-1.5-0.9-1.6-0.3-0.1-0.4-0.4-0.4-0.6 0.1-0.3 0.4-0.4 0.6-0.3 0.9 0.2 1.9 1.3 1.7 2.7-0.2 0.7-0.5 1.2-0.8 1.6-0.4 0.5-0.6 0.8-0.6 1.4 0 0.9 1 1.5 1.2 1.5 0.2 0.1 0.4 0.4 0.3 0.7z"/><path fill-rule="evenodd" class="a" d="m27 3.5v8.9c0 1.4-1.1 2.5-2.4 2.5h-21.2c-1.3 0-2.4-1.1-2.4-2.5v-8.9c0-1.4 1.1-2.5 2.4-2.5h21.2c1.3 0 2.4 1.1 2.4 2.5zm-25 0v6.4h24v-6.4c0-0.8-0.6-1.5-1.4-1.5h-21.2c-0.8 0-1.4 0.7-1.4 1.5zm24 8.9v-1.5h-24v1.5c0 0.8 0.6 1.5 1.4 1.5h21.2c0.8 0 1.4-0.7 1.4-1.5z"/><path class="a" d="m23.6 12.4c0 0.3-0.2 0.5-0.5 0.5h-0.9c-0.3 0-0.5-0.2-0.5-0.5 0-0.3 0.2-0.5 0.5-0.5h0.9c0.3 0 0.5 0.2 0.5 0.5z"/><path fill-rule="evenodd" class="a" d="m20.9 26c-0.6-0.2-1.9-1.1-1.9-2.5 0-1 0.4-1.5 0.8-2 0.3-0.4 0.5-0.7 0.6-1.2 0.2-0.9-0.6-1.5-0.9-1.6-0.3-0.1-0.4-0.4-0.4-0.6 0.1-0.3 0.4-0.4 0.6-0.3 0.9 0.2 1.9 1.3 1.7 2.7-0.2 0.7-0.5 1.2-0.8 1.6-0.4 0.5-0.6 0.8-0.6 1.4 0 0.9 1 1.5 1.2 1.5 0.2 0.1 0.4 0.4 0.3 0.7-0.1 0.2-0.3 0.3-0.5 0.3q-0.1 0-0.1 0zm-4.4 0c-0.6-0.2-1.8-1.1-1.8-2.5 0-1 0.4-1.5 0.8-2 0.3-0.4 0.5-0.7 0.6-1.2 0.2-0.9-0.6-1.5-1-1.6-0.2-0.1-0.4-0.4-0.3-0.6 0.1-0.3 0.3-0.4 0.6-0.3 0.9 0.2 1.9 1.3 1.7 2.7-0.2 0.7-0.5 1.2-0.9 1.6-0.3 0.5-0.5 0.8-0.5 1.4 0 0.9 0.9 1.5 1.1 1.5 0.3 0.1 0.4 0.4 0.3 0.7 0 0.2-0.2 0.3-0.4 0.3q-0.1 0-0.2 0zm-4.3 0c-0.6-0.2-1.8-1.1-1.8-2.5 0-1 0.4-1.5 0.7-2 0.3-0.4 0.6-0.7 0.7-1.2 0.1-0.9-0.7-1.5-1-1.6-0.3-0.1-0.4-0.4-0.3-0.6 0-0.3 0.3-0.4 0.6-0.3 0.8 0.2 1.9 1.3 1.6 2.7-0.1 0.7-0.5 1.2-0.8 1.6-0.3 0.5-0.6 0.8-0.6 1.4 0 0.9 1 1.5 1.2 1.5 0.2 0.1 0.4 0.4 0.3 0.7-0.1 0.2-0.3 0.3-0.5 0.3q0 0-0.1 0zm-4.3 0c-0.6-0.2-1.9-1.1-1.9-2.5 0-1 0.4-1.5 0.8-2 0.3-0.4 0.5-0.7 0.6-1.2 0.2-0.9-0.6-1.5-0.9-1.6-0.3-0.1-0.4-0.4-0.4-0.6 0.1-0.3 0.4-0.4 0.6-0.3 0.9 0.2 1.9 1.3 1.7 2.7-0.2 0.7-0.5 1.2-0.8 1.6-0.4 0.5-0.6 0.8-0.6 1.4 0 0.9 1 1.5 1.2 1.5 0.2 0.1 0.4 0.4 0.3 0.7-0.1 0.2-0.3 0.3-0.5 0.3q-0.1 0-0.1 0zm-4.5-11.1c-1.3 0-2.4-1.1-2.4-2.5v-8.9c0-1.4 1.1-2.5 2.4-2.5h21.2c1.3 0 2.4 1.1 2.4 2.5v8.9c0 1.4-1.1 2.5-2.4 2.5zm-1.5-2.5c0 0.8 0.7 1.5 1.5 1.5h21.2c0.8 0 1.4-0.7 1.4-1.5v-1.5h-24.1zm0-8.9v6.4h24.1v-6.4c0-0.8-0.6-1.5-1.4-1.5h-21.2c-0.8 0-1.5 0.7-1.5 1.5zm20.3 9.4c-0.3 0-0.5-0.2-0.5-0.5 0-0.3 0.2-0.5 0.5-0.5h0.9c0.3 0 0.5 0.2 0.5 0.5 0 0.3-0.2 0.5-0.5 0.5z"/></g></svg>