<svg version="1.2" xmlns="http://www.w3.org/2000/svg" viewBox="0 0 27 22" width="27" height="22"><defs><clipPath clipPathUnits="userSpaceOnUse" id="cp1"><path d="m-642-1843h1920v2530h-1920z"/></clipPath></defs><style>.a{fill:#fff}</style><g clip-path="url(#cp1)"><path fill-rule="evenodd" class="a" d="m26 12.8v6.9c0 0.7-0.6 1.3-1.4 1.3h-1c-0.8 0-1.5-0.6-1.7-1.4-0.1-0.4-0.4-0.6-0.7-0.6h-16.4c-0.3 0-0.6 0.2-0.7 0.6-0.2 0.8-0.9 1.4-1.7 1.4h-1c-0.8 0-1.4-0.6-1.4-1.3v-6.9c0-0.7 0.5-1.3 1.1-1.5l0.5-1.8q0.1-0.2 0.3-0.5v-4.9c0-0.5 0.3-1 0.7-1.3 6.4-3.7 14.4-3.7 20.8 0 0.4 0.3 0.7 0.8 0.7 1.3v4.9q0.2 0.3 0.3 0.5l0.5 1.8c0.6 0.2 1.1 0.8 1.1 1.5zm-23.4-2.9l-0.5 1.4h21.8l-0.5-1.4c-0.1-0.4-0.4-0.7-0.8-0.7h-19.2c-0.4 0-0.7 0.3-0.8 0.7zm0.3-5.8v4.2q0.2-0.1 0.5-0.1h1.4v-1.5c0-0.9 0.7-1.5 1.5-1.5h4.8c0.8 0 1.4 0.6 1.4 1.5v1.5h1v-1.5c0-0.9 0.6-1.5 1.4-1.5h4.8c0.8 0 1.5 0.6 1.5 1.5v1.5h1.4q0.3 0 0.5 0.1v-4.2c0-0.1-0.1-0.3-0.2-0.4-6.1-3.6-13.7-3.6-19.8 0-0.1 0.1-0.2 0.3-0.2 0.4zm17.3 2.6c0-0.3-0.2-0.5-0.5-0.5h-4.8c-0.2 0-0.5 0.2-0.5 0.5v1.5h5.8zm-8.6 0c0-0.3-0.3-0.5-0.5-0.5h-4.8c-0.3 0-0.5 0.2-0.5 0.5v1.6h5.8zm13.4 6.1c0-0.3-0.2-0.5-0.4-0.5h-23.2c-0.2 0-0.4 0.2-0.4 0.5v6.9c0 0.1 0.2 0.2 0.4 0.2h1c0.3 0 0.7-0.2 0.7-0.6h0.1c0.1-0.8 0.9-1.4 1.6-1.4h16.4c0.7 0 1.5 0.6 1.6 1.4h0.1c0 0.4 0.4 0.6 0.7 0.6h1c0.2 0 0.4-0.1 0.4-0.2z"/><path fill-rule="evenodd" class="a" d="m23.6 21c-0.8 0-1.5-0.6-1.7-1.4-0.1-0.4-0.4-0.6-0.7-0.6h-16.4c-0.3 0-0.6 0.2-0.7 0.6-0.2 0.8-0.9 1.4-1.7 1.4h-1c-0.8 0-1.4-0.6-1.4-1.3v-6.9c0-0.7 0.5-1.3 1.1-1.5l0.5-1.8q0.1-0.2 0.3-0.5v-4.9c0-0.5 0.3-1 0.7-1.3 6.4-3.8 14.4-3.7 20.8 0 0.4 0.3 0.7 0.8 0.7 1.3v4.9q0.2 0.3 0.3 0.5l0.5 1.8c0.6 0.2 1.1 0.8 1.1 1.5v6.9c0 0.7-0.6 1.3-1.4 1.3zm-2.5-3.1c0.8 0 1.5 0.6 1.7 1.4v0.1c0.1 0.3 0.4 0.6 0.8 0.6h0.9c0.3 0 0.5-0.2 0.5-0.3v-6.9c0-0.3-0.2-0.5-0.5-0.5h-23.1c-0.3 0-0.5 0.2-0.5 0.5v6.9c0 0.1 0.2 0.3 0.5 0.3h1c0.3 0 0.6-0.3 0.7-0.6v-0.1c0.2-0.8 0.9-1.4 1.7-1.4zm-18.6-8l-0.5 1.4h21.8l-0.5-1.4c-0.1-0.4-0.5-0.7-0.8-0.7h-19.2c-0.4 0-0.7 0.3-0.8 0.7zm17.1-4.7c0.8 0 1.5 0.6 1.5 1.5v1.5h1.4q0.3 0 0.5 0.1v-4.2c0-0.1-0.1-0.3-0.2-0.4-6.1-3.6-13.7-3.6-19.8 0-0.1 0.1-0.2 0.3-0.2 0.4v4.2q0.2-0.1 0.5-0.1h1.4v-1.5c0-0.9 0.7-1.5 1.5-1.5h4.8c0.8 0 1.4 0.6 1.4 1.5v1.5h1v-1.5c0-0.9 0.6-1.5 1.4-1.5zm-5.3 1.5v1.5h5.8v-1.5c0-0.3-0.2-0.5-0.5-0.5h-4.8c-0.3 0-0.5 0.2-0.5 0.5zm-8.6 0v1.5h5.7v-1.5c0-0.3-0.2-0.5-0.4-0.5h-4.9c-0.2 0-0.4 0.2-0.4 0.5z"/></g></svg>