<svg version="1.2" xmlns="http://www.w3.org/2000/svg" viewBox="0 0 16 16" width="16" height="16"><defs><clipPath clipPathUnits="userSpaceOnUse" id="cp1"><path d="m-729-793h1920v3200h-1920z"/></clipPath></defs><style>.a{fill:#22262e}</style><g clip-path="url(#cp1)"><path class="a" d="m6.5 0l3.1 3.1-1.3 1.2-2.6-2.6h-4v12.2h4.4v-5.2h-1.7v-1.7h5.2v1.7h-1.8v5.2h6.1v-5.2h-1.7v-1.7h1.7v-5.3h-3.4v-1.7h3.4c1 0 1.8 0.8 1.8 1.7v12.2c0 1-0.8 1.8-1.8 1.8h-12.2c-0.9 0-1.7-0.8-1.7-1.8v-12.2c0-0.9 0.8-1.7 1.7-1.7z"/></g></svg>