<svg version="1.2" xmlns="http://www.w3.org/2000/svg" viewBox="0 0 26 24" width="26" height="24"><defs><clipPath clipPathUnits="userSpaceOnUse" id="cp1"><path d="m-642-2036h1920v2530h-1920z"/></clipPath></defs><style>.a{fill:#fff}</style><g clip-path="url(#cp1)"><path class="a" d="m14.9 4.9q-0.5 1.1-0.5 2.2 0 0.9 0.4 1.8c0.1 0.2-0.1 0.5-0.3 0.6q-0.1 0-0.2 0c-0.2 0-0.4-0.1-0.4-0.3q-0.4-1-0.4-2.1 0-1.3 0.5-2.5c0.2-0.3 0.4-0.4 0.7-0.3 0.2 0.1 0.3 0.4 0.2 0.6z"/><path fill-rule="evenodd" class="a" d="m16.9 7.1c0-1.6 1.2-2.8 2.8-2.8 1.6 0 2.9 1.2 2.9 2.8 0 1.5-1.3 2.8-2.9 2.8-1.6 0-2.8-1.3-2.8-2.8zm0.9 0c0 1 0.9 1.9 1.9 1.9 1.1 0 2-0.9 2-1.9 0-1-0.9-1.9-2-1.9-1 0-1.9 0.9-1.9 1.9z"/><path fill-rule="evenodd" class="a" d="m7.7 5.7v2.8c0 0.7-0.5 1.5-1.1 1.8l-1.2 0.5q-0.3 0.2-0.6 0.2c-0.5 0-0.9-0.5-0.9-1.1v-5.6c0-0.6 0.4-1.1 0.9-1.1q0.3 0 0.6 0.1l1.2 0.6c0.6 0.3 1.1 1.1 1.1 1.8zm-1 0c0-0.4-0.2-0.8-0.6-1l-1.1-0.5q-0.1-0.1-0.2-0.1 0 0 0 0.2v5.6q0 0.1 0 0.1 0.1 0 0.2 0l1.1-0.6c0.4-0.1 0.6-0.6 0.6-0.9z"/><path class="a" d="m2.9 5.2c0 0.3-0.2 0.5-0.5 0.5h-1.9c-0.3 0-0.5-0.2-0.5-0.5 0-0.2 0.2-0.5 0.5-0.5h1.9c0.3 0 0.5 0.3 0.5 0.5z"/><path class="a" d="m2.9 7.1c0 0.2-0.2 0.5-0.5 0.5h-1.9c-0.3 0-0.5-0.3-0.5-0.5 0-0.3 0.2-0.5 0.5-0.5h1.9c0.3 0 0.5 0.2 0.5 0.5z"/><path class="a" d="m2.9 9c0 0.2-0.2 0.4-0.5 0.4h-1.9c-0.3 0-0.5-0.2-0.5-0.4 0-0.3 0.2-0.5 0.5-0.5h1.9c0.3 0 0.5 0.2 0.5 0.5z"/><path fill-rule="evenodd" class="a" d="m26 16.9c0 0.3-0.2 0.5-0.5 0.5 0 0-1.2 0-2 1.2-0.3 0.4-0.5 1-0.8 1.6-0.6 1.4-1.2 2.8-2.5 2.8-1.9 0-2.6-1.1-2.8-1.9-1-0.3-1.5-1.3-1.5-1.8 0-1.1 0.1-4.5 1.7-6.5q-0.1 0-0.2-0.1h-0.1l-6.8-1.6c-1.3-0.2-2.3-1.4-2.3-2.6v-2.8c0-1.3 1-2.5 2.3-2.7l6.9-1.6q1.1-0.4 2.3-0.4c3.5 0 6.3 2.7 6.3 6.1 0 1.2-0.4 2.3-1 3.2q0 0.2 0 0.3c-0.1 0.1-4.3 6-4.8 9.2 0 0.3-0.2 1.1-1.8 1.3 0.2 0.4 0.6 1 1.8 1 0.7 0 1.2-1.2 1.6-2.2 0.3-0.7 0.6-1.3 0.9-1.8 1.1-1.6 2.7-1.7 2.8-1.7 0.3 0 0.5 0.3 0.5 0.5zm-8.3-5.1q1 0.4 2 0.4c3 0 5.3-2.3 5.3-5.1 0-2.9-2.3-5.2-5.3-5.2q-1 0-2 0.4l-0.2 0.1-6.8 1.5c-0.9 0.2-1.6 1-1.6 1.8v2.8c0 0.8 0.7 1.6 1.5 1.7zm0.2 8.4c1 0 1.4-0.3 1.4-0.5q0 0 0-0.1c0.3-2 2-5 3.3-7.1-0.8 0.4-1.8 0.7-2.8 0.7q-0.6 0-1.1-0.1c-1.3 1.3-1.8 4-1.8 6.1 0 0.3 0.3 1 1 1z"/><path fill-rule="evenodd" class="a" d="m17.4 21.1c-1-0.3-1.5-1.3-1.5-1.8 0-1.1 0.1-4.5 1.7-6.5q-0.1 0-0.2-0.1h-0.1l-6.8-1.6c-1.3-0.2-2.3-1.4-2.3-2.6v-2.8c0-1.3 1-2.5 2.3-2.7l6.9-1.6q1.1-0.4 2.3-0.4c3.5 0 6.3 2.7 6.3 6.1 0 1.2-0.4 2.3-1 3.2q0 0.2 0 0.3c-0.1 0.1-4.3 6-4.8 9.2 0 0.3-0.2 1.1-1.8 1.3 0.2 0.4 0.6 1 1.8 1 0.7 0 1.2-1.2 1.6-2.2 0.3-0.7 0.6-1.3 0.9-1.8 1.1-1.6 2.7-1.7 2.8-1.7 0.3 0 0.5 0.3 0.5 0.5 0 0.3-0.2 0.5-0.5 0.5 0 0-1.2 0-2 1.2-0.3 0.4-0.5 1-0.8 1.6-0.6 1.4-1.2 2.8-2.5 2.8-1.9 0-2.6-1.1-2.8-1.9zm-0.5-1.8c0 0.2 0.2 0.9 0.9 0.9 1 0 1.5-0.3 1.5-0.5q0 0 0 0c0.3-2.1 1.9-5.1 3.3-7.2-0.9 0.4-1.8 0.7-2.9 0.7q-0.5 0-1.1-0.1c-1.3 1.3-1.7 4-1.7 6.2zm0.8-17l-0.3 0.1-6.7 1.5c-0.9 0.2-1.6 1-1.6 1.8v2.8c0 0.8 0.7 1.6 1.5 1.7l7.1 1.6q1 0.4 2 0.4c3 0 5.3-2.3 5.3-5.1 0-2.9-2.3-5.2-5.3-5.2q-1 0-2 0.4zm-13.8 7.6v-5.6c0-0.6 0.4-1.1 0.9-1.1q0.3 0 0.6 0.1l1.2 0.6c0.6 0.3 1.1 1.1 1.1 1.8v2.8c0 0.7-0.5 1.5-1.1 1.8l-1.2 0.5q-0.3 0.2-0.6 0.2c-0.5 0-0.9-0.5-0.9-1.1zm0.9-5.6v5.6q0 0.1 0 0.1 0.1 0 0.2 0l1.1-0.6c0.4-0.1 0.6-0.6 0.6-0.9v-2.8c0-0.4-0.2-0.8-0.6-1l-1.1-0.5q-0.1-0.1-0.2-0.1 0 0 0 0.2zm12.1 2.8c0-1.6 1.2-2.8 2.8-2.8 1.6 0 2.9 1.2 2.9 2.8 0 1.5-1.3 2.8-2.9 2.8-1.6 0-2.8-1.3-2.8-2.8zm0.9 0c0 1 0.9 1.9 1.9 1.9 1.1 0 2-0.9 2-1.9 0-1-0.9-1.9-2-1.9-1 0-1.9 0.9-1.9 1.9zm-3.9 2.1q-0.4-1-0.4-2.1 0-1.3 0.5-2.5c0.2-0.3 0.4-0.4 0.7-0.3 0.2 0.1 0.3 0.4 0.2 0.7q-0.5 1-0.5 2.1 0 0.9 0.4 1.8c0.1 0.2-0.1 0.5-0.3 0.6q-0.1 0-0.2 0c-0.2 0-0.4-0.1-0.4-0.3zm-13.4 0.2c-0.3 0-0.5-0.2-0.5-0.4 0-0.3 0.2-0.5 0.5-0.5h1.9c0.3 0 0.5 0.2 0.5 0.5 0 0.2-0.2 0.4-0.5 0.4zm0-1.8c-0.3 0-0.5-0.3-0.5-0.5 0-0.3 0.2-0.5 0.5-0.5h1.9c0.3 0 0.5 0.2 0.5 0.5 0 0.2-0.2 0.5-0.5 0.5zm0-1.9c-0.2 0-0.5-0.2-0.5-0.5 0-0.2 0.3-0.5 0.5-0.5h2c0.2 0 0.4 0.3 0.4 0.5 0 0.3-0.2 0.5-0.4 0.5z"/></g></svg>