<svg version="1.2" xmlns="http://www.w3.org/2000/svg" viewBox="0 0 19 18" width="19" height="18"><defs><clipPath clipPathUnits="userSpaceOnUse" id="cp1"><path d="m-1079-793h1920v3200h-1920z"/></clipPath></defs><style>.a{fill:#22262e}</style><g clip-path="url(#cp1)"><path fill-rule="evenodd" class="a" d="m15.9 0.2c1.5 0 2.7 1.2 2.7 2.7v8.9c0 1.5-1.2 2.7-2.7 2.7h-13.2c-1.5 0-2.7-1.2-2.7-2.7v-8.9c0-1.5 1.2-2.7 2.7-2.7zm-14.5 2.7v8.9c0 0.7 0.6 1.2 1.3 1.2h13.2c0.7 0 1.2-0.5 1.2-1.2v-8.9c0-0.7-0.5-1.2-1.2-1.2h-13.2c-0.7 0-1.3 0.5-1.3 1.2zm3.8 2c0.1 0.2 0.2 0.4 0.1 0.6l-0.3 1.4h2.5l0.3-1.7c0.1-0.3 0.4-0.6 0.8-0.6 0.2 0 0.4 0.1 0.5 0.3 0.2 0.2 0.2 0.4 0.2 0.6l-0.5 2.1q0 0.2 0 0.3 0 0 0 0l-0.5 2.1c-0.1 0.4-0.5 0.6-0.9 0.5-0.4-0.1-0.6-0.5-0.6-0.9l0.3-1.3h-2.4l-0.3 1.7c-0.1 0.4-0.5 0.6-0.9 0.5-0.4-0.1-0.7-0.5-0.6-0.9l0.5-2.1q0-0.1 0-0.2l0.5-2.1c0.1-0.3 0.4-0.6 0.7-0.6 0.3 0 0.5 0.1 0.6 0.3zm8-0.3c1.6 0 2.8 1.5 2.4 3l-0.2 0.8c-0.2 1.3-1.3 2.1-2.6 2.1h-2.3c-0.2 0-0.4-0.1-0.6-0.2-0.1-0.2-0.2-0.4-0.1-0.7l1-4.4c0.1-0.3 0.4-0.6 0.7-0.6zm-1.8 4.5h1.4c0.6 0 1.1-0.4 1.2-1l0.2-0.8q0 0 0 0c0.1-0.6-0.4-1.2-1-1.2h-1.1zm2 6.9c0.4 0 0.7 0.3 0.7 0.7 0 0.4-0.3 0.8-0.7 0.8h-8.4c-0.4 0-0.7-0.4-0.7-0.8 0-0.4 0.3-0.7 0.7-0.7z"/></g></svg>