<svg version="1.2" xmlns="http://www.w3.org/2000/svg" viewBox="0 0 16 18" width="16" height="18"><defs><clipPath clipPathUnits="userSpaceOnUse" id="cp1"><path d="m-1008-793h1920v3200h-1920z"/></clipPath></defs><style>.a{fill:#22262e}</style><g clip-path="url(#cp1)"><path fill-rule="evenodd" class="a" d="m13.4 2.3c3 3 3 8 0 11.1l-1.3-1.3c2.4-2.3 2.4-6.2 0-8.6-2.3-2.4-6.2-2.4-8.6 0-2.4 2.4-2.4 6.3 0 8.6l-1.2 1.3c-3.1-3.1-3.1-8.1 0-11.1 1.5-1.5 3.5-2.3 5.5-2.3 2 0 4 0.8 5.6 2.3zm-2.5 2.5c1.7 1.6 1.7 4.4 0 6.1l-1.2-1.2c1-1 1-2.7 0-3.7-1-1-2.7-1-3.7 0-1 1-1 2.7 0 3.7l-1.2 1.2c-1.7-1.7-1.7-4.5 0-6.1 0.8-0.9 1.9-1.3 3-1.3 1.1 0 2.3 0.4 3.1 1.3zm-2.2 3v7.9h4.4v1.7h-10.5v-1.7h4.4v-7.9c0-0.4 0.4-0.8 0.8-0.8 0.5 0 0.9 0.4 0.9 0.8z"/></g></svg>