<svg version="1.2" xmlns="http://www.w3.org/2000/svg" viewBox="0 0 22 27" width="22" height="27"><defs><clipPath clipPathUnits="userSpaceOnUse" id="cp1"><path d="m-1232-2073h1920v2530h-1920z"/></clipPath></defs><style>.a{fill:#fff}</style><g clip-path="url(#cp1)"><path fill-rule="evenodd" class="a" d="m21 3.4v21.2c0 1.3-1 2.4-2.3 2.4h-16.4c-1.3 0-2.3-1.1-2.3-2.4v-21.2c0-1.3 1-2.4 2.3-2.4h16.4c1.3 0 2.3 1.1 2.3 2.4zm-20.1 0v3.4h19.2v-3.4c0-0.8-0.6-1.4-1.4-1.4h-9.1v2c0 0.8-0.6 1.3-1.4 1.3h-4.1c-0.8 0-1.4-0.5-1.4-1.3v-2h-0.4c-0.8 0-1.4 0.6-1.4 1.4zm2.8 0.6c0 0.4 0.3 0.4 0.4 0.4h4.1c0.1 0 0.5 0 0.5-0.4v-2h-5zm16.4 20.5v-16.8h-19.2v16.8c0 0.8 0.6 1.5 1.4 1.5h16.4c0.8 0 1.4-0.7 1.4-1.5z"/><path fill-rule="evenodd" class="a" d="m16.9 16.9c0 3.7-2.9 6.7-6.4 6.7-3.5 0-6.4-3-6.4-6.7 0-3.7 2.9-6.8 6.4-6.8 3.5 0 6.4 3.1 6.4 6.8zm-11.9-0.5c0.7 0 1 0.4 1.3 0.6 0.2 0.3 0.3 0.4 0.6 0.4 0.3 0 0.4-0.1 0.7-0.4 0.2-0.2 0.6-0.6 1.2-0.6 0.7 0 1 0.4 1.3 0.6 0.2 0.3 0.3 0.4 0.6 0.4 0.3 0 0.4-0.1 0.7-0.4 0.2-0.2 0.6-0.6 1.2-0.6 0.7 0 1 0.4 1.3 0.6 0.2 0.3 0.4 0.4 0.6 0.4 0.3 0 0.4-0.1 0.7-0.4 0.2-0.2 0.4-0.4 0.8-0.5-0.2-3-2.6-5.4-5.5-5.4-2.9 0-5.2 2.3-5.5 5.3zm10.9 1.2q0 0-0.1 0.1c-0.3 0.3-0.6 0.6-1.3 0.6-0.6 0-1-0.3-1.2-0.6-0.3-0.2-0.4-0.3-0.7-0.3-0.3 0-0.4 0.1-0.6 0.3-0.3 0.3-0.6 0.6-1.3 0.6-0.6 0-1-0.3-1.2-0.6-0.3-0.2-0.4-0.3-0.7-0.3-0.3 0-0.4 0.1-0.6 0.3-0.3 0.3-0.6 0.6-1.3 0.6-0.6 0-1-0.3-1.2-0.6-0.3-0.2-0.4-0.3-0.7-0.3 0.3 2.9 2.6 5.3 5.5 5.3 2.8 0 5.1-2.3 5.4-5.1z"/><path class="a" d="m11 3.9c0-0.3 0.2-0.5 0.4-0.5h0.9c0.3 0 0.5 0.2 0.5 0.5 0 0.3-0.2 0.5-0.5 0.5h-0.9c-0.2 0-0.4-0.2-0.4-0.5z"/><path class="a" d="m15.5 3.9c0-0.3 0.2-0.5 0.5-0.5h1.8c0.3 0 0.5 0.2 0.5 0.5 0 0.3-0.2 0.5-0.5 0.5h-1.8c-0.3 0-0.5-0.2-0.5-0.5z"/><path fill-rule="evenodd" class="a" d="m2.3 27c-1.3 0-2.3-1.1-2.3-2.4v-21.2c0-1.3 1-2.4 2.3-2.4h16.4c1.3 0 2.3 1.1 2.3 2.4v21.2c0 1.3-1 2.4-2.3 2.4zm-1.4-2.4c0 0.8 0.7 1.4 1.4 1.4h16.5c0.7 0 1.3-0.6 1.3-1.4v-16.9h-19.2zm0-21.1v3.3h19.2v-3.3c0-0.8-0.6-1.5-1.3-1.5h-9.2v2.1c0 0.7-0.6 1.3-1.3 1.3h-4.2c-0.7 0-1.3-0.6-1.3-1.3v-2.1h-0.5c-0.7 0-1.4 0.7-1.4 1.5zm2.8 0.6c0 0.3 0.4 0.3 0.4 0.3h4.2c0 0 0.4 0 0.4-0.3v-2.1h-5zm0.4 12.9c0-3.7 2.9-6.8 6.4-6.8 3.6 0 6.4 3.1 6.4 6.8 0 3.7-2.8 6.7-6.4 6.7-3.5 0-6.4-3-6.4-6.7zm6.4 5.8c2.8 0 5.1-2.3 5.5-5.1q-0.1 0-0.2 0.1c-0.2 0.3-0.6 0.6-1.2 0.6-0.7 0-1-0.3-1.3-0.6-0.2-0.2-0.4-0.3-0.6-0.3-0.3 0-0.4 0.1-0.7 0.3-0.2 0.3-0.6 0.6-1.2 0.6-0.7 0-1.1-0.3-1.3-0.6-0.2-0.2-0.4-0.3-0.6-0.3-0.3 0-0.4 0.1-0.7 0.3-0.2 0.3-0.6 0.6-1.2 0.6-0.7 0-1.1-0.3-1.3-0.6-0.2-0.2-0.4-0.3-0.6-0.3 0.2 2.9 2.6 5.3 5.4 5.3zm3.4-5.7c0.3 0.3 0.4 0.4 0.7 0.4 0.2 0 0.4-0.1 0.6-0.4 0.2-0.2 0.4-0.4 0.8-0.5-0.2-3-2.6-5.4-5.5-5.4-2.8 0-5.2 2.3-5.4 5.3 0.6 0 1 0.4 1.2 0.6 0.3 0.3 0.4 0.4 0.7 0.4 0.2 0 0.4-0.1 0.6-0.4 0.2-0.2 0.6-0.6 1.3-0.6 0.6 0 1 0.4 1.2 0.6 0.3 0.3 0.4 0.4 0.7 0.4 0.2 0 0.4-0.1 0.6-0.4 0.3-0.2 0.6-0.6 1.3-0.6 0.6 0 1 0.4 1.2 0.6zm2.1-12.6c-0.2 0-0.4-0.2-0.4-0.5 0-0.3 0.2-0.5 0.4-0.5h1.8c0.3 0 0.5 0.2 0.5 0.5 0 0.3-0.2 0.5-0.5 0.5zm-4.5 0c-0.3 0-0.5-0.2-0.5-0.5 0-0.3 0.2-0.5 0.5-0.5h0.9c0.2 0 0.4 0.2 0.4 0.5 0 0.3-0.2 0.5-0.4 0.5z"/></g></svg>