<svg version="1.2" xmlns="http://www.w3.org/2000/svg" viewBox="0 0 60 36" width="60" height="36"><defs><clipPath clipPathUnits="userSpaceOnUse" id="cp1"><path d="m-1035-1080h1920v1870h-1920z"/></clipPath></defs><style>.a{fill:#006}.b{fill:#c00}.c{fill:#06c}.d{fill:#fff}</style><g clip-path="url(#cp1)"><path class="a" d="m4 0h52c2.2 0 4 1.8 4 4v28c0 2.2-1.8 4-4 4h-52c-2.2 0-4-1.8-4-4v-28c0-2.2 1.8-4 4-4z"/><path class="b" d="m50.2 18c0 6.6-5.4 12-12 12-6.6 0-11.9-5.4-11.9-12 0-6.6 5.3-12 11.9-12 6.6 0 12 5.4 12 12z"/><path class="c" d="m31.4 25.6q-0.6 0.7-1.2 1.3c-2.1 1.9-4.9 3.1-8 3.1-6.6 0-12-5.4-12-12 0-6.6 5.4-12 12-12 3.1 0 5.9 1.2 8 3.1q-0.7 0.6-1.2 1.3h2.4q0.5 0.6 0.9 1.2h-4.2q-0.4 0.6-0.7 1.3h5.6q0.3 0.6 0.5 1.3h-6.6q-0.2 0.6-0.4 1.2h7.4q0.2 1.3 0.2 2.6 0 2-0.6 3.8h-6.6q0.2 0.7 0.5 1.3h5.6q-0.3 0.6-0.7 1.2h-4.2q0.4 0.7 0.9 1.3z"/><path fill-rule="evenodd" class="a" d="m28.5 21.4c-1.7 0-2.5-0.7-2.5-2.2 0-1.7 1.1-2.9 2.6-2.9 1.2 0 2 0.7 2 1.8 0 0.3-0.1 0.7-0.2 1.2h-3q0 0.4 0.2 0.7 0.3 0.3 1.1 0.3c0.6 0 1-0.1 1.6-0.3l-0.3 1.2q-0.7 0.2-1.5 0.2zm0-4c-0.4 0-0.8 0.3-0.9 0.9h1.6v-0.1c0-0.1 0.1-0.4-0.1-0.6q-0.2-0.2-0.6-0.2z"/><path class="a" d="m33.3 16.3c0.4 0 1 0 1.3 0.1l-0.2 1.1c-0.4 0-0.8-0.1-1.1-0.1q-0.7 0-0.7 0.4c0 0.3 0.1 0.3 0.7 0.6 0.8 0.3 1.1 0.7 1.1 1.4 0 1.1-0.8 1.6-2.4 1.6-0.5 0-1.1 0-1.5-0.1l0.2-1.2c0.5 0.2 0.9 0.2 1.3 0.2q0.9 0 0.9-0.4c0-0.2-0.1-0.3-0.7-0.6-0.8-0.3-1.2-0.7-1.2-1.4 0-0.9 0.6-1.6 2.3-1.6z"/><path fill-rule="evenodd" class="a" d="m22.4 21.4c-0.8 0-1.4-0.5-1.4-1.3 0-1.2 1-1.9 2.6-1.9q0.3 0 0.6 0c0.1-0.2 0.1-0.2 0.1-0.3 0-0.4-0.3-0.5-1-0.5-0.7 0-1.2 0.1-1.6 0.2l0.3-1.1c0.7-0.2 1.2-0.2 1.7-0.2 1.3 0 2 0.5 2 1.4 0 0.3-0.1 0.9-0.1 1 0 0.1-0.1 0.3-0.1 0.6-0.1 0.7-0.3 1.7-0.4 2.1h-1.2v-0.6c-0.3 0.4-0.8 0.6-1.5 0.6zm1.3-2.3q-1.3 0-1.3 0.8c0 0.3 0.3 0.5 0.6 0.5 0.6 0 1-0.5 1.1-1.3-0.2 0-0.3 0-0.4 0z"/><path class="a" d="m37 21.3c-0.4 0.1-0.7 0.1-1.1 0.1-0.7 0-1.2-0.4-1.2-1.1 0-0.1 0.2-1 0.3-1.3 0-0.2 0.7-3.8 0.7-3.8h1.4l-0.2 1.2h0.8l-0.2 1.2h-0.8c0 0-0.4 2.1-0.4 2.3q0 0.3 0.5 0.3 0.2 0 0.4 0z"/><path fill-rule="evenodd" class="a" d="m43.1 21.4c-1.5 0-2.4-0.8-2.4-2.2q0-0.8 0.3-1.4-0.2 0-0.3 0c-0.7 0-1.1 0.5-1.4 1.6q-0.1 0.8-0.3 2h-1.5v-0.4q0.2-0.8 0.3-1.5c0.2-1 0.4-2.1 0.5-3.1h1.4v0.8c0.1 0 0.2-0.1 0.2-0.1 0.3-0.4 0.7-0.8 1.2-0.8q0.3 0 0.5 0l-0.4 1.2c0.5-0.8 1.4-1.2 2.4-1.2 1.4 0 2.4 0.8 2.4 2.2q0 1.5-0.9 2.2c-0.5 0.5-1.2 0.7-2 0.7zm0.4-4c-0.7 0-1.2 0.9-1.2 1.7 0 0.7 0.4 1.1 0.9 1.1 0.7 0 1.2-0.7 1.2-1.8 0-0.3-0.1-1-0.9-1z"/><path class="a" d="m20.3 21.4h-1.5l0.9-4.7-2 4.7h-1.4l-0.2-4.7-0.9 4.7h-1.4l1.2-6.1h2.3l0.2 3.4 1.5-3.4h2.5z"/><path fill-rule="evenodd" class="d" d="m28.9 21.1c-1.7 0-2.6-0.8-2.6-2.3 0-1.7 1.1-2.9 2.6-2.9 1.3 0 2.1 0.7 2.1 1.8 0 0.4-0.1 0.7-0.2 1.2h-3q-0.1 0.4 0.2 0.7 0.3 0.3 1.1 0.3c0.5 0 1-0.1 1.5-0.3l-0.2 1.3q-0.8 0.2-1.5 0.2zm0-4.1c-0.5 0-0.8 0.3-0.9 0.9h1.6c0-0.2 0-0.5-0.1-0.7q-0.2-0.2-0.6-0.2z"/><path class="d" d="m33.7 15.9c0.3 0 0.9 0 1.3 0.1l-0.2 1.1c-0.4 0-0.8 0-1.1 0q-0.7 0-0.7 0.4c0 0.2 0 0.3 0.7 0.5 0.7 0.3 1 0.7 1 1.4 0 1.1-0.7 1.7-2.3 1.7-0.5-0.1-1.1-0.1-1.6-0.2l0.2-1.1c0.5 0.1 0.9 0.2 1.4 0.2 0.6 0 0.9-0.2 0.9-0.5 0-0.2-0.1-0.3-0.7-0.5-0.8-0.4-1.2-0.8-1.2-1.4 0-0.9 0.6-1.7 2.3-1.7z"/><path fill-rule="evenodd" class="d" d="m22.7 21.1c-0.8 0-1.3-0.6-1.3-1.4 0-1.2 0.9-1.9 2.6-1.9q0.3 0 0.6 0c0.1-0.1 0.1-0.2 0.1-0.3 0-0.3-0.3-0.5-1-0.5-0.7 0-1.2 0.2-1.6 0.3l0.2-1.2c0.8-0.1 1.3-0.2 1.8-0.2 1.3 0 2 0.5 2 1.4 0 0.3-0.1 0.9-0.1 1 0 0.1-0.1 0.4-0.1 0.7-0.2 0.6-0.4 1.7-0.4 2h-1.2v-0.5c-0.4 0.4-0.9 0.6-1.6 0.6zm1.4-2.4q-1.3 0-1.3 0.8c0 0.3 0.2 0.5 0.6 0.5 0.6 0 1-0.5 1-1.2-0.1-0.1-0.2-0.1-0.3-0.1z"/><path class="d" d="m37.4 20.9c-0.4 0.1-0.8 0.2-1.1 0.2-0.8 0-1.2-0.4-1.2-1.1 0-0.2 0.2-1.1 0.2-1.3 0.1-0.3 0.7-3.9 0.7-3.9h1.5l-0.2 1.2h0.7l-0.2 1.2h-0.7c0 0-0.4 2.1-0.4 2.3q-0.1 0.4 0.5 0.4 0.2 0 0.4-0.1z"/><path fill-rule="evenodd" class="d" d="m43.4 21.1c-1.5 0-2.3-0.9-2.3-2.3 0-0.9 0.3-1.6 0.8-2.1 0.5-0.5 1.2-0.8 2.1-0.8 1.4 0 2.3 0.9 2.3 2.2q0 1.5-0.8 2.3c-0.5 0.4-1.2 0.7-2.1 0.7zm0.5-4c-0.7 0-1.2 0.8-1.2 1.7 0 0.6 0.3 1.1 0.8 1.1 0.8 0 1.2-0.7 1.2-1.8 0-0.3 0-1-0.8-1z"/><path class="d" d="m40.1 16c0 0.2-0.1 0.5-0.1 0.8 0.4-0.6 0.9-1.1 1.7-0.8l-0.5 1.4c-1.1-0.3-1.3 0.6-1.9 3.6h-1.5l0.1-0.4c0.3-1.5 0.6-3.1 0.8-4.6z"/><path class="d" d="m20.7 21h-1.5l0.9-4.7-2.1 4.7h-1.3l-0.3-4.7-0.9 4.7h-1.3l1.1-6.1h2.4l0.1 3.8 1.6-3.8h2.4z"/></g></svg>