<svg version="1.2" xmlns="http://www.w3.org/2000/svg" viewBox="0 0 60 36" width="60" height="36"><defs><clipPath clipPathUnits="userSpaceOnUse" id="cp1"><path d="m-965-1080h1920v1870h-1920z"/></clipPath></defs><style>.a{fill:#006}.b{fill:#c00}.c{fill:#f90}.d{fill:#fff}</style><g clip-path="url(#cp1)"><path class="a" d="m4 0h52c2.2 0 4 1.8 4 4v28c0 2.2-1.8 4-4 4h-52c-2.2 0-4-1.8-4-4v-28c0-2.2 1.8-4 4-4z"/><path class="b" d="m33.7 18.3c0 6.5-5.3 11.7-11.7 11.7-6.5 0-11.7-5.2-11.7-11.7 0-6.5 5.2-11.7 11.7-11.7 6.4 0 11.7 5.2 11.7 11.7z"/><path class="c" d="m49.4 18.3c0 6.5-5.2 11.7-11.7 11.7-3 0-5.8-1.1-7.9-3q0.7-0.6 1.2-1.3h-2.4q-0.4-0.6-0.8-1.2h4.1q0.4-0.6 0.7-1.2h-5.5q-0.3-0.7-0.5-1.3h6.5q0.6-1.8 0.6-3.7 0-1.3-0.3-2.5h-7.2q0.2-0.6 0.4-1.2h6.5q-0.2-0.7-0.5-1.3h-5.5q0.3-0.6 0.7-1.2h4.1q-0.4-0.7-0.9-1.2h-2.4q0.6-0.7 1.2-1.3c2.1-1.9 4.9-3 7.9-3 6.5 0 11.7 5.2 11.7 11.7z"/><path fill-rule="evenodd" class="a" d="m17.8 21.8c-0.7 0-1.2-0.5-1.2-1.3 0-1.2 0.8-1.9 2.3-1.9q0.2 0 0.5 0.1c0-0.2 0-0.3 0-0.3 0-0.4-0.2-0.5-0.8-0.5q-0.7 0-1.3 0.2c0 0 0.1-1 0.2-1.1 0.6-0.1 1-0.2 1.5-0.2q0.8 0 1.2 0.3 0.4 0.4 0.4 1.1 0 0.4-0.1 1c-0.1 0.6-0.3 2.1-0.3 2.5h-1.1v-0.5c-0.3 0.4-0.7 0.6-1.3 0.6zm1.1-2.2q-1 0-1 0.7c0 0.3 0.1 0.5 0.4 0.5 0.5 0 0.9-0.5 0.9-1.2-0.1 0-0.2 0-0.3 0z"/><path class="a" d="m16.1 21.7h-1.3l0.8-4.5-1.7 4.5h-0.8l-0.1-4.5-0.8 4.5h-1.2l1-5.9h1.8l0.1 3.3 1.2-3.3h2z"/><path fill-rule="evenodd" class="a" d="m37.8 21.8c-0.7 0-1.1-0.5-1.1-1.3 0-1.2 0.8-1.9 2.2-1.9q0.2 0 0.5 0.1c0-0.2 0.1-0.3 0.1-0.3 0-0.4-0.3-0.5-0.9-0.5q-0.6 0-1.3 0.2c0 0 0.2-1 0.2-1.1 0.6-0.1 1-0.2 1.5-0.2q0.8 0 1.2 0.3 0.5 0.4 0.5 1.1 0 0.4-0.1 1l-0.1 0.1c-0.1 0.7-0.3 2.1-0.3 2.4h-1.1l0.1-0.5c-0.4 0.4-0.8 0.6-1.4 0.6zm1.2-2.2q-1.1 0-1.1 0.7c0 0.3 0.2 0.5 0.4 0.5 0.6 0 0.9-0.5 1-1.2-0.2 0-0.2 0-0.3 0z"/><path class="a" d="m25.8 21.7c-0.3 0.1-0.6 0.1-0.9 0.1-0.7 0-1-0.4-1-1.1 0-0.2 0.1-0.7 0.2-1.2 0-0.5 0.5-3.3 0.5-3.3h1.3l-0.2 0.7h0.8l-0.2 1.2h-0.7c-0.2 0.9-0.4 2-0.4 2.2q0 0.3 0.4 0.3 0.2 0 0.4 0z"/><path fill-rule="evenodd" class="a" d="m28.4 21.8c-1.4 0-2.2-0.7-2.2-2.1 0-1.7 1-2.9 2.2-2.9 1.1 0 1.8 0.7 1.8 1.7 0 0.4-0.1 0.7-0.2 1.2h-2.5q-0.1 0.5 0.1 0.7 0.3 0.3 1 0.3c0.4 0 0.8-0.1 1.3-0.3l-0.2 1.2q-0.7 0.2-1.3 0.2zm0-3.9c-0.4 0-0.7 0.3-0.8 0.8h1.4q0 0 0 0c0-0.1 0-0.4-0.2-0.6q-0.1-0.2-0.4-0.2z"/><path class="a" d="m22.8 16.8c0.3 0 0.8 0 1.1 0.1l-0.1 1.1c-0.4 0-0.7-0.1-0.9-0.1q-0.7 0-0.7 0.4c0 0.2 0.1 0.3 0.6 0.5 0.7 0.3 0.9 0.7 0.9 1.4 0 1.1-0.6 1.6-1.9 1.6-0.8 0-1.1-0.1-1.4-0.1 0-0.1 0.2-1.2 0.2-1.2 0.4 0.2 0.8 0.2 1.2 0.2q0.7 0 0.7-0.4c0-0.2-0.1-0.3-0.6-0.5-0.7-0.3-1-0.8-1-1.4 0-0.9 0.5-1.6 1.9-1.6z"/><path class="a" d="m34.2 19.1c0 0.9 0.5 1.5 1.2 1.5q0.5 0 1.1-0.3l-0.2 1.3c-0.5 0.2-0.8 0.2-1.1 0.2-1.4 0-2.3-1-2.3-2.6q0-0.5 0.1-0.9c-0.4-0.1-0.6 0-0.7 0.3l-0.5 0.3c-0.1 0.6-0.2 1.4-0.4 2.8h-1.3l0.1-0.3c0.2-1.5 0.5-3 0.7-4.5h1.1q0 0.2 0 0.5l0.3-0.1c0.4-0.5 0.7-1 1.4-0.7 0.5-0.7 1.3-1.2 2.1-1.2 0.6 0 1.2 0.5 1.4 0.5l-0.2 1.3c-0.5-0.2-0.8-0.3-1.1-0.3-1 0-1.7 0.9-1.7 2.2z"/><path fill-rule="evenodd" class="a" d="m44.6 21.8c-0.9 0-1.5-0.8-1.5-2q0-0.8 0.3-1.6-0.1 0-0.1 0c-0.3 0-0.5 0.2-0.8 0.5q-0.1 0.1-0.2 0.3-0.2 1.2-0.4 2.7h-1.3l0.1-0.3q0.1-0.7 0.2-1.5c0.2-1 0.3-2 0.4-3h1.2c0 0.1 0 0.3-0.1 0.7 0 0 0.6 0.2 1.1 0.3 0.4-0.7 1-1.2 1.6-1.2 0.6 0 1 0.4 1.2 0.8l0.3-1.7h1.3l-1 5.9h-1.2l0.1-0.4c-0.4 0.3-0.7 0.5-1.2 0.5zm0.8-3.8c-0.6 0-1 0.7-1 1.7q0 0.9 0.6 0.9c0.6 0 1-0.7 1-1.6 0-0.6-0.2-1-0.6-1z"/><path class="d" d="m16.5 21.4h-1.3l0.7-4.6-1.6 4.6h-0.9l-0.1-4.6-0.7 4.6h-1.2l1-6h1.8v3.7l1.3-3.7h2z"/><path fill-rule="evenodd" class="d" d="m18.2 21.5c-0.7 0-1.2-0.6-1.2-1.4 0-1.1 0.8-1.8 2.2-1.8q0.3 0 0.6 0c0-0.1 0-0.2 0-0.3 0-0.3-0.2-0.4-0.8-0.4h-0.1q-0.6 0-1.3 0.2c0.1-0.1 0.2-1.1 0.2-1.1 0.7-0.2 1.1-0.3 1.5-0.3q0.9 0 1.3 0.4 0.4 0.4 0.4 1.1 0 0.3-0.1 0.9c-0.1 0.9-0.3 2.2-0.4 2.6h-1v-0.5q-0.5 0.6-1.3 0.6zm1.1-2.3q-1.1 0-1.1 0.7c0 0.3 0.2 0.5 0.5 0.5 0.5 0 0.9-0.5 0.9-1.2-0.1 0-0.2 0-0.3 0z"/><path class="d" d="m37.6 15.6l-0.2 1.3c-0.5-0.2-0.8-0.3-1.2-0.3-0.9 0-1.6 0.9-1.6 2.2 0 0.9 0.5 1.4 1.2 1.4q0.5 0 1.1-0.3l-0.2 1.4c-0.5 0.1-0.8 0.2-1.2 0.2-1.3 0-2.2-1-2.2-2.6 0-2.1 1.2-3.6 2.9-3.6 0.5 0 1.2 0.2 1.4 0.3z"/><path fill-rule="evenodd" class="d" d="m38.2 21.5c-0.7 0-1.2-0.6-1.2-1.4 0-1.1 0.8-1.8 2.3-1.8q0.2 0 0.5 0c0-0.1 0-0.2 0-0.3 0-0.3-0.2-0.4-0.8-0.4q-0.7 0-1.3 0.2c0-0.1 0.1-1 0.1-1.1 0.7-0.2 1.1-0.3 1.6-0.3q0.9 0 1.3 0.5 0.3 0.3 0.3 1 0 0.3-0.1 0.9v0.1c-0.1 0.7-0.3 2.1-0.3 2.5h-1.1v-0.5c-0.3 0.4-0.7 0.6-1.3 0.6zm1.1-2.3q-1 0-1 0.7c0 0.3 0.1 0.5 0.4 0.5 0.5 0 0.9-0.5 0.9-1.2-0.1 0-0.2 0-0.3 0z"/><path class="d" d="m26.2 21.3c-0.4 0.1-0.6 0.2-0.9 0.2-0.7 0-1-0.4-1-1.1-0.1-0.2 0-0.8 0.1-1.3 0.1-0.4 0.6-3.3 0.6-3.3h1.2l-0.1 0.7h0.6l-0.1 1.2h-0.7c-0.1 0.9-0.3 2.1-0.3 2.2q0 0.4 0.4 0.4 0.2 0 0.3-0.1z"/><path fill-rule="evenodd" class="d" d="m28.8 21.5c-1.5 0-2.2-0.8-2.2-2.2 0-1.7 0.9-2.9 2.2-2.9 1 0 1.7 0.7 1.7 1.8 0 0.3 0 0.7-0.1 1.2h-2.6q0 0.4 0.2 0.7 0.3 0.3 0.9 0.3c0.5 0 0.9-0.1 1.4-0.3l-0.3 1.2q-0.6 0.2-1.2 0.2zm-0.1-4c-0.4 0-0.6 0.3-0.8 0.9h1.4q0 0 0 0c0.1-0.1 0.1-0.5-0.1-0.7q-0.2-0.2-0.5-0.2z"/><path class="d" d="m23.2 16.4c0.3 0 0.8 0.1 1.1 0.1l-0.2 1.1c-0.3 0-0.6 0-0.9 0q-0.6 0-0.6 0.4c0 0.2 0.1 0.3 0.6 0.5 0.6 0.3 0.9 0.7 0.9 1.3 0 1.1-0.6 1.7-2 1.7-0.7-0.1-1-0.1-1.3-0.2 0 0 0.2-1.1 0.2-1.1 0.4 0.1 0.7 0.2 1.1 0.2q0.8 0 0.7-0.4c0-0.3 0-0.3-0.5-0.6-0.7-0.3-1-0.7-1-1.3 0-0.9 0.5-1.7 1.9-1.7z"/><path fill-rule="evenodd" class="d" d="m45 21.5c-1 0-1.6-0.8-1.6-2 0-1.7 1-3 2.1-3 0.5 0 0.9 0.2 1.2 0.7l0.3-1.8h1.2l-0.9 6h-1.2v-0.5c-0.3 0.4-0.7 0.6-1.1 0.6zm0.7-3.8c-0.5 0-0.9 0.6-0.9 1.6q0 1 0.6 1c0.6 0 1-0.7 1-1.7 0-0.6-0.2-0.9-0.7-0.9z"/><path class="d" d="m42.9 16.5c0 0.3-0.1 0.5-0.1 0.8 0.4-0.6 0.7-0.9 1.2-0.8-0.2 0.3-0.4 0.8-0.5 1.4-0.7-0.1-0.8 0.5-1.3 3.5h-1.2v-0.4c0.3-1.4 0.5-3 0.7-4.5z"/><path class="d" d="m32.4 16.5c0 0.3 0 0.5-0.1 0.8 0.4-0.6 0.7-0.9 1.2-0.8-0.1 0.3-0.3 0.8-0.4 1.4-0.8-0.1-0.9 0.5-1.3 3.5h-1.3l0.1-0.4c0.2-1.4 0.5-3 0.6-4.5z"/></g></svg>