<svg version="1.2" xmlns="http://www.w3.org/2000/svg" viewBox="0 0 25 27" width="25" height="27"><defs><clipPath clipPathUnits="userSpaceOnUse" id="cp1"><path d="m-946-1878h1920v2530h-1920z"/></clipPath></defs><style>.a{fill:#fff}</style><g clip-path="url(#cp1)"><path fill-rule="evenodd" class="a" d="m12.3 10.4c0 0.2 2.1 5 0.3 7.4q-0.9 1.3-2.8 1.5v6.7h1c0.2 0 0.5 0.3 0.5 0.5 0 0.3-0.3 0.5-0.5 0.5h-3.1c-0.3 0-0.5-0.2-0.5-0.5 0-0.2 0.2-0.5 0.5-0.5h1v-6.7q-1.3-0.2-2.1-1-0.9 0.9-2.4 1v6.7h1c0.3 0 0.5 0.3 0.5 0.5 0 0.3-0.2 0.5-0.5 0.5h-3.1c-0.3 0-0.5-0.2-0.5-0.5 0-0.2 0.2-0.5 0.5-0.5h1v-6.7q-1.6-0.2-2.4-1.3c-1.7-2.4 0.4-7.3 0.4-7.6 0.1-0.1 0.3-0.3 0.5-0.3h4.6c0.2 0 0.4 0.2 0.5 0.3q0 0.1 0 0.1 0 0 0-0.1c0.1-0.1 0.3-0.3 0.5-0.3h4.6c0.2 0 0.4 0.2 0.5 0.3zm-5.1 1.6c0.2 0.7 0.4 1.6 0.5 2.5h4.6c-0.2-1.4-0.6-2.8-0.9-3.4h-3.8q-0.2 0.3-0.4 0.9 0 0 0 0zm-6.1 2.5h5.6c-0.2-1.4-0.6-2.8-0.9-3.4h-3.8c-0.3 0.8-0.8 2.1-0.9 3.4zm5.1 2.8c0.3-0.5 0.5-1.2 0.5-1.9q0 0 0 0h-5.7c0 0.8 0.1 1.5 0.5 2q0.6 0.9 2.2 0.9 1.8 0 2.5-1zm5.6 0c0.3-0.5 0.5-1.2 0.5-1.9q0 0 0 0h-4.6c0 0.8-0.2 1.5-0.5 2.1q0.6 0.8 2 0.8 1.8 0 2.6-1z"/><path fill-rule="evenodd" class="a" d="m17 2.5c0-0.4 0.1-0.8 0.3-1.1 0.3-0.2 0.7-0.4 1.1-0.4h2c0.4 0 0.8 0.2 1.1 0.4 0.2 0.3 0.3 0.7 0.3 1.1l-0.2 1c-0.1 0.7-0.5 1.4-1.2 1.4h-2c-0.7 0-1.1-0.7-1.2-1.4zm1-0.2l0.2 1c0 0.3 0.2 0.5 0.2 0.6h1.9c0.1-0.1 0.2-0.3 0.3-0.6l0.1-1q0.1-0.1 0-0.2-0.1-0.1-0.3-0.1h-2q-0.2 0-0.3 0.1-0.1 0.1-0.1 0.2z"/><path fill-rule="evenodd" class="a" d="m25 18.3v6.3c0 1.3-1.1 2.4-2.5 2.4h-6.1c-1.4 0-2.6-1.1-2.6-2.4v-6.3c0-1.1 0.4-2.8 0.8-3.9l2-4.6c0.4-0.9 0.8-2.5 0.9-3.5 0 0 0-0.1-0.1-0.3-0.1-0.3 0.1-0.6 0.3-0.6 0.3-0.1 0.6 0 0.7 0.3 0.1 0.3 0.1 0.6 0.1 0.6-0.1 1.1-0.5 2.9-0.9 3.9l-2 4.6c-0.4 0.9-0.8 2.5-0.8 3.5h9.2c0-1-0.4-2.6-0.8-3.5l-2-4.6c-0.4-1-0.8-2.8-0.8-3.9 0 0 0-0.2 0-0.6 0.1-0.2 0.3-0.4 0.6-0.4 0.3 0.1 0.5 0.3 0.4 0.6 0 0.2 0 0.4 0 0.4 0 1 0.4 2.6 0.8 3.5l2 4.6c0.4 1.1 0.8 2.8 0.8 3.9zm-10.2 1v3.4h9.2v-3.4zm9.1 5.3v-1h-9.1v1c0 0.8 0.7 1.4 1.5 1.4h6.1c0.8 0 1.5-0.6 1.5-1.4z"/><path fill-rule="evenodd" class="a" d="m16.4 27c-1.4 0-2.6-1.1-2.6-2.4v-6.3c0-1.1 0.4-2.8 0.8-3.9l2-4.6c0.4-0.9 0.8-2.5 0.9-3.5 0 0 0-0.1-0.1-0.3-0.1-0.3 0.1-0.6 0.3-0.6 0.3-0.1 0.6 0 0.7 0.3 0.1 0.3 0.1 0.6 0.1 0.6-0.1 1.1-0.5 2.9-0.9 3.9l-2 4.6c-0.4 0.9-0.8 2.5-0.8 3.5h9.2c0-1-0.4-2.6-0.8-3.5l-2-4.6c-0.4-1-0.8-2.8-0.8-3.9 0 0 0-0.2 0-0.6 0.1-0.2 0.3-0.4 0.6-0.4 0.3 0.1 0.5 0.3 0.4 0.6 0 0.2 0 0.4 0 0.4 0 1 0.4 2.6 0.8 3.5l2 4.6c0.4 1.1 0.8 2.8 0.8 3.9v6.3c0 1.3-1.1 2.4-2.5 2.4zm-1.6-2.4c0 0.8 0.7 1.4 1.6 1.4h6.1c0.8 0 1.5-0.6 1.5-1.4v-1h-9.2zm0-1.9h9.2v-3.4h-9.2zm-7.1 4.4c-0.3 0-0.5-0.2-0.5-0.5 0-0.3 0.2-0.5 0.5-0.5h1v-6.8q-1.3-0.1-2.1-0.9-0.9 0.8-2.4 0.9v6.8h1c0.3 0 0.5 0.2 0.5 0.5 0 0.3-0.2 0.5-0.5 0.5h-3.1c-0.3 0-0.5-0.2-0.5-0.5 0-0.3 0.2-0.5 0.5-0.5h1v-6.8q-1.6-0.1-2.4-1.3c-1.7-2.4 0.4-7.3 0.4-7.5 0.1-0.2 0.3-0.3 0.5-0.3h4.6c0.2 0 0.4 0.1 0.5 0.3q0 0 0 0.1 0-0.1 0-0.1c0.1-0.2 0.3-0.3 0.5-0.3h4.6c0.2 0 0.4 0.1 0.5 0.3 0 0.2 2.1 4.9 0.3 7.4q-0.9 1.3-2.8 1.4v6.8h1c0.2 0 0.5 0.2 0.5 0.5 0 0.3-0.3 0.5-0.5 0.5zm-0.6-9.5q0.7 0.8 2.1 0.8 1.8 0 2.5-1c0.4-0.5 0.5-1.2 0.6-1.9q-0.1 0-0.1 0h-4.5c-0.1 0.8-0.2 1.5-0.6 2.1zm-5.6-0.1q0.6 0.9 2.1 0.9 1.8 0 2.5-1c0.4-0.5 0.5-1.2 0.6-1.9q0 0 0 0h-5.7c0 0.8 0.1 1.5 0.5 2zm5.7-5.4q0 0 0 0c0.2 0.7 0.4 1.6 0.4 2.4h4.6c-0.1-1.4-0.6-2.7-0.8-3.3h-3.9q-0.1 0.3-0.3 0.9zm-6.2 2.4h5.6c-0.1-1.4-0.6-2.7-0.8-3.3h-3.9c-0.3 0.8-0.7 2.1-0.9 3.3zm17.3-9.6c-0.6 0-1-0.7-1.1-1.3l-0.2-1c-0.1-0.4 0-0.8 0.3-1.1 0.2-0.3 0.6-0.4 1-0.4h2.1c0.4 0 0.8 0.1 1 0.4 0.3 0.3 0.4 0.7 0.3 1.1l-0.1 1c-0.2 0.6-0.6 1.3-1.2 1.3zm-0.3-2.8q-0.1 0.1-0.1 0.3l0.2 1c0 0.3 0.2 0.5 0.2 0.6h1.9c0.1-0.1 0.2-0.3 0.3-0.6l0.2-1q0-0.2-0.1-0.3-0.1-0.1-0.3-0.1h-2q-0.2 0-0.3 0.1z"/></g></svg>