<svg version="1.2" xmlns="http://www.w3.org/2000/svg" viewBox="0 0 27 23" width="27" height="23"><defs><clipPath clipPathUnits="userSpaceOnUse" id="cp1"><path d="m-1229-1958h1920v2530h-1920z"/></clipPath></defs><style>.a{fill:#fff}</style><g clip-path="url(#cp1)"><path fill-rule="evenodd" class="a" d="m1.4 17.1c-0.8 0-1.4-0.6-1.4-1.4v-3c0-0.8 0.6-1.4 1.4-1.4h7.3c0.2 0 0.4 0.2 0.4 0.4 0 0.3-0.2 0.5-0.4 0.5h-2v3.9h2c0.2 0 0.4 0.3 0.4 0.5 0 0.3-0.2 0.5-0.4 0.5zm0-1h4.3v-3.9h-4.3c-0.3 0-0.5 0.3-0.5 0.5v3c0 0.2 0.2 0.4 0.5 0.4z"/><path class="a" d="m22.1 12.7v3c0 0.8-0.6 1.4-1.4 1.4h-4.3c-0.3 0-0.5-0.2-0.5-0.5 0-0.2 0.2-0.5 0.5-0.5h4.3c0.3 0 0.5-0.2 0.5-0.4v-3c0-0.2-0.2-0.5-0.5-0.5h-4.3c-0.3 0-0.5-0.2-0.5-0.5 0-0.2 0.2-0.4 0.5-0.4h4.3c0.8 0 1.4 0.6 1.4 1.4z"/><path class="a" d="m24.7 8.5c0.2 0.2 0.2 0.5 0 0.7q-0.2 0.1-0.4 0.1-0.2 0-0.3-0.1c-0.8-0.9-1.8-2.9 0-4.7q0.8-0.8 0.7-1.5c-0.1-0.7-0.6-1.1-0.6-1.1-0.3-0.2-0.3-0.5-0.2-0.7 0.2-0.2 0.5-0.3 0.7-0.1 0 0 1 0.7 1.1 1.8q0.1 1.1-1 2.3c-1.6 1.6-0.1 3.2 0 3.3z"/><path class="a" d="m24.1 11.7v4.9c0 0.3-0.2 0.5-0.5 0.5-0.3 0-0.5-0.2-0.5-0.5v-4.9c0-0.2 0.2-0.4 0.5-0.4 0.3 0 0.5 0.2 0.5 0.4z"/><path class="a" d="m26 11.7v4.9c0 0.3-0.2 0.5-0.5 0.5-0.2 0-0.5-0.2-0.5-0.5v-4.9c0-0.2 0.3-0.4 0.5-0.4 0.3 0 0.5 0.2 0.5 0.4z"/><path class="a" d="m20.1 21.2c0.2 0.2 0.2 0.5 0 0.7q-0.2 0.1-0.4 0.1-0.2 0-0.3-0.1l-6.9-7-6.9 7q-0.1 0.1-0.3 0.1-0.2 0-0.3-0.1c-0.2-0.2-0.2-0.5 0-0.7l6.8-7-6.8-7c-0.2-0.2-0.2-0.5 0-0.7 0.1-0.2 0.4-0.2 0.6 0l6.9 7 6.9-7c0.2-0.2 0.5-0.2 0.7 0 0.2 0.2 0.2 0.5 0 0.7l-6.9 7z"/><path class="a" d="m11.6 11.7c0-0.2 0.2-0.4 0.4-0.4h1c0.3 0 0.5 0.2 0.5 0.4 0 0.3-0.2 0.5-0.5 0.5h-1c-0.2 0-0.4-0.2-0.4-0.5z"/><path class="a" d="m13.5 16.6c0 0.3-0.2 0.5-0.5 0.5h-1c-0.2 0-0.4-0.2-0.4-0.5 0-0.2 0.2-0.5 0.4-0.5h1c0.3 0 0.5 0.3 0.5 0.5z"/><path fill-rule="evenodd" class="a" d="m19.4 21.9l-6.9-7-6.9 7q-0.1 0.1-0.3 0.1-0.2 0-0.3-0.1c-0.2-0.2-0.2-0.5 0-0.7l6.8-7-6.8-7c-0.2-0.2-0.2-0.5 0-0.7 0.1-0.2 0.4-0.2 0.6 0l6.9 7 6.9-7c0.2-0.2 0.5-0.2 0.7 0 0.2 0.2 0.2 0.5 0 0.7l-6.9 7 6.9 7c0.2 0.2 0.2 0.5 0 0.7q-0.2 0.1-0.4 0.1-0.2 0-0.3-0.1zm5.6-5.3v-4.9c0-0.2 0.3-0.4 0.5-0.4 0.3 0 0.5 0.2 0.5 0.4v4.9c0 0.3-0.2 0.5-0.5 0.5-0.2 0-0.5-0.2-0.5-0.5zm-1.9 0v-4.9c0-0.2 0.2-0.4 0.5-0.4 0.3 0 0.5 0.2 0.5 0.4v4.9c0 0.3-0.2 0.5-0.5 0.5-0.3 0-0.5-0.2-0.5-0.5zm-6.7 0.5c-0.3 0-0.5-0.2-0.5-0.5 0-0.2 0.2-0.5 0.5-0.5h4.3c0.3 0 0.5-0.2 0.5-0.4v-3c0-0.2-0.2-0.5-0.5-0.5h-4.3c-0.3 0-0.5-0.2-0.5-0.5 0-0.2 0.2-0.4 0.5-0.4h4.3c0.8 0 1.4 0.6 1.4 1.4v3c0 0.8-0.6 1.4-1.4 1.4zm-4.3 0c-0.3 0-0.5-0.2-0.5-0.5 0-0.2 0.2-0.5 0.5-0.5h0.9c0.3 0 0.5 0.3 0.5 0.5 0 0.3-0.2 0.5-0.5 0.5zm-10.6 0c-0.8 0-1.4-0.6-1.4-1.4v-3c0-0.8 0.6-1.4 1.4-1.4h7.3c0.2 0 0.4 0.2 0.4 0.4 0 0.3-0.2 0.5-0.4 0.5h-2v3.9h2c0.2 0 0.4 0.3 0.4 0.5 0 0.3-0.2 0.5-0.4 0.5zm-0.5-4.4v3c0 0.2 0.2 0.4 0.5 0.4h4.3v-3.9h-4.3c-0.3 0-0.5 0.3-0.5 0.5zm11.1-0.5c-0.3 0-0.5-0.2-0.5-0.5 0-0.2 0.2-0.4 0.5-0.4h0.9c0.3 0 0.5 0.2 0.5 0.4 0 0.3-0.2 0.5-0.5 0.5zm12-3c-0.8-0.9-1.9-2.9 0-4.7q0.8-0.8 0.7-1.5c-0.1-0.7-0.7-1.1-0.7-1.1-0.2-0.2-0.2-0.5-0.1-0.7 0.1-0.2 0.4-0.3 0.7-0.1 0 0 0.9 0.7 1.1 1.8q0.1 1.1-1.1 2.3c-1.6 1.6 0 3.2 0 3.3 0.2 0.2 0.2 0.5 0 0.7q-0.1 0.1-0.3 0.1-0.2 0-0.3-0.1z"/></g></svg>