<svg version="1.2" xmlns="http://www.w3.org/2000/svg" viewBox="0 0 27 27" width="27" height="27"><defs><clipPath clipPathUnits="userSpaceOnUse" id="cp1"><path d="m-1229-1878h1920v2530h-1920z"/></clipPath></defs><style>.a{fill:#fff}</style><g clip-path="url(#cp1)"><path fill-rule="evenodd" class="a" d="m26 16.6l-0.5 5.2c0 0.6-0.3 1.2-0.7 1.8q0 0 0 0v2.1c0 0.7-0.7 1.3-1.4 1.3h-1.9c-0.8 0-1.5-0.6-1.5-1.3v-2.1h-10.5v2.1c0 0.7-0.6 1.3-1.4 1.3h-1.9c-0.8 0-1.4-0.6-1.4-1.3v-2q-0.1 0-0.1-0.1c-0.4-0.4-0.9-1-1-1.8l-0.4-5.1c-0.1-1.4 0.7-2.6 2-3q0-0.2 0.2-0.5v-0.2h-3.1c-1.3 0-2.4-1-2.4-2.4v-7.2c0-1.3 1.1-2.4 2.4-2.4h7.6c1.3 0 2.4 1.1 2.4 2.4v2.9h6.5c1.9 0 3.4 0.8 4 2.2l1.5 4.9q0.1 0.2 0.1 0.5c1 0.5 1.6 1.6 1.5 2.7zm-23.6-4.5h7.6c0.8 0 1.5-0.7 1.5-1.5v-7.2c0-0.8-0.7-1.4-1.5-1.4h-7.6c-0.8 0-1.4 0.6-1.4 1.4v7.2c0 0.8 0.6 1.5 1.4 1.5zm21.5 2.5c-0.2 0-0.4-0.3-0.4-0.5q0.1-0.2 0-0.4l-1.5-4.9c-0.6-1.4-2.5-1.5-3.1-1.5h-6.5v3.3c0 1.4-1.1 2.4-2.4 2.4h-3.5l-0.2 0.6q-0.1 0.2-0.1 0.4c0.1 0.3-0.1 0.5-0.4 0.6-0.9 0.1-1.6 1-1.5 2l0.4 5.2c0 0.4 0.4 0.9 0.7 1.2 0.1 0.1 0.3 0.2 0.3 0.5v2.2c0 0.1 0.3 0.3 0.5 0.3h1.9c0.2 0 0.5-0.2 0.5-0.3v-2.6c0-0.2 0.2-0.4 0.5-0.4h11.4c0.3 0 0.5 0.2 0.5 0.4v2.6c0 0.1 0.2 0.3 0.5 0.3h1.9c0.2 0 0.5-0.2 0.5-0.3v-2.2q0-0.2 0-0.3 0-0.1 0.1-0.2c0.3-0.2 0.5-0.7 0.6-1.2l0.4-5.2c0.1-0.9-0.4-1.7-1.1-2z"/><path class="a" d="m7.6 14c0-0.3 0.2-0.5 0.5-0.5h13.4c0.2 0 0.4 0.2 0.4 0.5 0 0.3-0.2 0.5-0.4 0.5h-13.4c-0.3 0-0.5-0.2-0.5-0.5z"/><path fill-rule="evenodd" class="a" d="m24.1 18.1c0 1.1-0.9 2-2 2-1.1 0-2-0.9-2-2 0-1.1 0.9-2 2-2 1.1 0 2 0.9 2 2zm-1 0c0-0.5-0.4-1-1-1-0.5 0-1 0.5-1 1 0 0.6 0.5 1 1 1 0.6 0 1-0.4 1-1z"/><path fill-rule="evenodd" class="a" d="m9.2 18.1c0 1.1-0.9 2-2 2-1.1 0-2-0.9-2-2 0-1.1 0.9-2 2-2 1.1 0 2 0.9 2 2zm-1 0c0-0.5-0.5-1-1-1-0.6 0-1 0.5-1 1 0 0.6 0.4 1 1 1 0.5 0 1-0.4 1-1z"/><path fill-rule="evenodd" class="a" d="m18.5 17c0.3 0.4 0.4 0.9 0.2 1.4l-0.2 1.1c-0.3 0.9-1.3 1.7-2.3 1.7h-2.8c-1.1 0-2-0.8-2.3-1.7l-0.2-1.1c-0.2-0.5-0.1-1 0.2-1.4 0.3-0.4 0.8-0.6 1.3-0.6h4.8c0.5 0 1 0.2 1.3 0.6zm-0.8 0.6q-0.2-0.2-0.5-0.2h-4.8q-0.3 0-0.5 0.2-0.2 0.2-0.1 0.6l0.2 1c0.2 0.6 0.8 1.1 1.4 1.1h2.8c0.6 0 1.2-0.5 1.3-1.1l0.3-1q0.1-0.4-0.1-0.6z"/><path fill-rule="evenodd" class="a" d="m9.4 6.3c0 1.9-1.4 2.4-2.2 2.4h-2.4v1.4c0 0.3-0.2 0.5-0.5 0.5-0.3 0-0.5-0.2-0.5-0.5v-5.7c0-0.3 0.2-0.5 0.5-0.5h2.9c0.8 0 2.2 0.6 2.2 2.4zm-0.9 0c0-1.3-1.2-1.4-1.3-1.4h-2.4v2.8h2.4c0.3 0 1.3-0.1 1.3-1.4z"/><path fill-rule="evenodd" class="a" d="m21.5 27c-0.8 0-1.5-0.6-1.5-1.3v-2.1h-10.5v2.1c0 0.7-0.6 1.3-1.4 1.3h-1.9c-0.8 0-1.4-0.6-1.4-1.3v-2q-0.1 0-0.1-0.1c-0.4-0.4-0.9-1-1-1.8l-0.4-5.1c-0.1-1.4 0.7-2.6 2-3q0-0.2 0.2-0.5v-0.2h-3.1c-1.3 0-2.4-1-2.4-2.4v-7.2c0-1.3 1.1-2.4 2.4-2.4h7.6c1.3 0 2.4 1.1 2.4 2.4v2.9h6.5c1.9 0 3.4 0.8 4 2.2l1.5 4.9q0.1 0.2 0.1 0.5c1 0.5 1.6 1.6 1.5 2.7l-0.5 5.2c0 0.6-0.3 1.2-0.7 1.8q0 0 0 0v2.1c0 0.7-0.7 1.3-1.4 1.3zm-1-4.3c0.3 0 0.5 0.2 0.5 0.4v2.6c0 0.1 0.2 0.3 0.5 0.3h1.9c0.2 0 0.5-0.2 0.5-0.3v-2.2q0-0.2 0-0.3 0-0.1 0.1-0.2c0.3-0.2 0.6-0.7 0.6-1.2l0.4-5.2c0.1-0.9-0.4-1.7-1.1-2-0.2 0-0.4-0.3-0.3-0.5q0-0.2-0.1-0.4l-1.5-4.9c-0.6-1.4-2.5-1.5-3.1-1.5h-6.5v3.3c0 1.4-1.1 2.4-2.4 2.4h-3.4l-0.3 0.6q-0.1 0.2 0 0.4c0 0.3-0.2 0.5-0.5 0.6-0.9 0.1-1.6 1-1.5 2l0.4 5.2c0 0.4 0.4 0.9 0.7 1.2 0.1 0.1 0.3 0.2 0.3 0.5v2.2c0 0.1 0.3 0.3 0.5 0.3h1.9c0.2 0 0.5-0.2 0.5-0.3v-2.6c0-0.2 0.2-0.4 0.5-0.4zm-19.6-19.3v7.2c0 0.8 0.6 1.5 1.4 1.5h7.7c0.8 0 1.4-0.7 1.4-1.5v-7.2c0-0.8-0.6-1.4-1.4-1.4h-7.7c-0.8 0-1.4 0.6-1.4 1.4zm12.4 17.8c-1 0-2-0.8-2.2-1.7l-0.3-1.1c-0.1-0.5 0-1 0.3-1.4 0.3-0.4 0.7-0.6 1.3-0.6h4.7c0.6 0 1 0.2 1.3 0.6 0.3 0.4 0.4 0.9 0.3 1.4l-0.3 1.1c-0.2 0.9-1.2 1.7-2.2 1.7zm-1.5-3.6q-0.2 0.2-0.1 0.6l0.3 1c0.1 0.6 0.7 1.1 1.3 1.1h2.8c0.6 0 1.2-0.5 1.4-1.1l0.2-1q0.1-0.4-0.1-0.6-0.2-0.2-0.5-0.2h-4.8q-0.3 0-0.5 0.2zm8.3 0.5c0-1.1 0.8-2 1.9-2 1.1 0 2 0.9 2 2 0 1.1-0.9 2-2 2-1.1 0-1.9-0.9-1.9-2zm0.9 0c0 0.6 0.5 1 1 1 0.6 0 1-0.4 1-1 0-0.5-0.4-1-1-1-0.5 0-1 0.5-1 1zm-15.9 0c0-1.1 0.9-2 2-2 1.1 0 2 0.9 2 2 0 1.1-0.9 2-2 2-1.1 0-2-0.9-2-2zm1 0c0 0.6 0.4 1 1 1 0.6 0 1-0.4 1-1 0-0.5-0.4-1-1-1-0.6 0-1 0.5-1 1zm1.9-3.6c-0.2 0-0.5-0.2-0.5-0.5 0-0.3 0.3-0.5 0.5-0.5h13.4c0.3 0 0.5 0.2 0.5 0.5 0 0.3-0.2 0.5-0.5 0.5zm-4.3-4.4v-5.7c0-0.3 0.2-0.5 0.5-0.5h2.9c0.8 0 2.2 0.6 2.2 2.4 0 1.9-1.4 2.4-2.2 2.4h-2.5v1.4c0 0.3-0.2 0.5-0.4 0.5-0.3 0-0.5-0.2-0.5-0.5zm0.9-5.2v2.8h2.5c0.3 0 1.2-0.1 1.2-1.4 0-1.3-1.1-1.4-1.2-1.4z"/></g></svg>