<svg version="1.2" xmlns="http://www.w3.org/2000/svg" viewBox="0 0 64 18" width="64" height="18"><defs><clipPath clipPathUnits="userSpaceOnUse" id="cp1"><path d="m-1021-1221h1920v1870h-1920z"/></clipPath></defs><style>.a{fill:#0079c1}.b{fill:#00457c}</style><g clip-path="url(#cp1)"><path fill-rule="evenodd" class="a" d="m46.5 1.9q1 1.1 0.7 3.2c-0.5 3.1-2.4 4.6-5.6 4.6h-1.6c-0.3 0-0.6 0.3-0.7 0.6l-0.5 3.6c-0.1 0.2-0.3 0.4-0.5 0.4h-2.5q-0.2 0-0.3-0.1-0.1-0.2-0.1-0.4l2-12.6c0-0.3 0.3-0.6 0.6-0.6h5c1.6 0 2.8 0.5 3.5 1.3zm-6.6 5.1h0.7c1.3 0 2.7 0 2.9-1.8q0.2-0.9-0.2-1.3c-0.4-0.5-1.3-0.5-2.2-0.5h-0.3c-0.2 0-0.4 0.1-0.4 0.3z"/><path fill-rule="evenodd" class="b" d="m11.5 1.9q0.9 1.1 0.6 3.2c-0.5 3.1-2.3 4.6-5.6 4.6h-1.5c-0.4 0-0.6 0.3-0.7 0.6l-0.5 3.4c-0.1 0.4-0.4 0.6-0.7 0.6h-2.4q-0.1 0-0.3-0.1-0.1-0.2-0.1-0.4l2-12.6c0.1-0.3 0.4-0.6 0.7-0.6h4.9c1.7 0 2.9 0.5 3.6 1.3zm-6.7 5.1h0.8c1.3 0 2.6 0 2.9-1.8q0.1-0.9-0.3-1.3c-0.4-0.5-1.2-0.5-2.1-0.5h-0.4c-0.2 0-0.3 0.1-0.4 0.3z"/><path fill-rule="evenodd" class="b" d="m19.6 6l0.1 0.2 0.1-0.7c0.1-0.2 0.2-0.3 0.4-0.3h2.4q0.2 0 0.3 0.1 0.1 0.2 0.1 0.4l-1.3 8c0 0.4-0.3 0.6-0.6 0.6h-2.2q-0.1 0-0.3-0.1-0.1-0.2-0.1-0.4l0.1-0.6c0 0-1.1 1.3-3.2 1.3q-2 0-3-1.2c-0.8-0.9-1.1-2.2-0.9-3.6 0.5-2.7 2.7-4.7 5.3-4.7 1.3 0 2.3 0.3 2.8 1zm-0.3 3.8c0.1-0.7 0-1.3-0.4-1.7q-0.5-0.6-1.5-0.6c-1.4 0-2.5 0.9-2.7 2.2-0.1 0.7 0 1.3 0.4 1.7q0.5 0.6 1.6 0.6c1.3 0 2.4-0.9 2.6-2.2z"/><path fill-rule="evenodd" class="a" d="m54.6 6l0.2 0.2 0.1-0.7c0-0.2 0.2-0.3 0.4-0.3h2.4q0.1 0 0.3 0.1 0.1 0.2 0.1 0.4l-1.3 8c-0.1 0.4-0.4 0.6-0.7 0.6h-2.1q-0.2 0-0.3-0.1-0.1-0.2-0.1-0.4l0.1-0.6c0 0-1.2 1.3-3.3 1.3q-1.9 0-2.9-1.2c-0.8-0.9-1.1-2.2-0.9-3.6 0.4-2.7 2.6-4.7 5.2-4.7 1.4 0 2.4 0.3 2.8 1zm-0.2 3.8c0.1-0.7-0.1-1.3-0.4-1.7-0.4-0.4-0.9-0.6-1.6-0.6-1.3 0-2.4 0.9-2.6 2.2-0.1 0.7 0 1.3 0.3 1.7q0.6 0.6 1.6 0.6c1.4 0 2.4-0.9 2.7-2.2z"/><path class="b" d="m35.5 5.8l-7.9 11.4c-0.1 0.2-0.3 0.3-0.6 0.3h-2.3c-0.4 0-0.5-0.4-0.4-0.7l2.5-3.4-2.6-7.7c-0.1-0.2 0.1-0.5 0.4-0.5h2.3c0.3 0 0.6 0.2 0.7 0.5l1.3 4.6 3.3-4.8c0.1-0.2 0.3-0.3 0.6-0.3h2.3c0.4 0 0.6 0.4 0.4 0.6z"/><path class="a" d="m60.8 0.6h2.3c0.3 0 0.4 0.3 0.4 0.5l-2 12.6c0 0.4-0.3 0.6-0.7 0.6h-2c-0.2 0-0.4-0.2-0.4-0.5l2-12.8c0.1-0.2 0.2-0.4 0.4-0.4z"/></g></svg>