<svg version="1.2" xmlns="http://www.w3.org/2000/svg" viewBox="0 0 27 25" width="27" height="25"><defs><clipPath clipPathUnits="userSpaceOnUse" id="cp1"><path d="m-1229-1919h1920v2530h-1920z"/></clipPath></defs><style>.a{fill:#fff}</style><g clip-path="url(#cp1)"><path fill-rule="evenodd" class="a" d="m22.4 20.6v0.4c0 1.7-1.3 3-3 3q-0.3 0-0.5-0.1l-1-0.1c-1.6-0.3-3.8-0.5-4.8-0.5-1 0-3.1 0.2-4.8 0.5l-1.5 0.2q-0.2 0-0.5 0c-0.8 0-1.6-0.3-2.1-0.9-0.6-0.5-0.9-1.3-0.9-2.1v-0.4c0-1.8 1.1-3.7 2.5-4.4 1.1-0.4 2.4-1.8 2.7-2.8 0.4-1.4 2.3-2.6 4.2-2.6h0.3c1.9 0 3.8 1.2 4.2 2.6 0.3 1 1.6 2.3 2.7 2.8 1.4 0.6 2.5 2.6 2.5 4.4zm-1 0c0-1.4-0.9-3-1.9-3.5-1.4-0.6-2.8-2.1-3.3-3.4-0.3-1-1.8-1.9-3.2-1.9h-0.3c-1.4 0-2.9 0.9-3.2 1.9-0.5 1.3-1.9 2.9-3.3 3.4-1 0.5-1.9 2.1-1.9 3.5v0.4c0 0.5 0.2 1.1 0.6 1.4 0.4 0.5 1.1 0.7 1.8 0.6l1.5-0.2c1.7-0.2 3.9-0.4 4.9-0.4 1.1 0 3.3 0.2 5 0.4l0.9 0.2q0.2 0 0.4 0c1.2 0 2-0.9 2-2z"/><path fill-rule="evenodd" class="a" d="m6.4 5.3c-0.2-1.1-0.1-2.1 0.3-2.8 0.4-0.8 1.1-1.3 2-1.5q0.2 0 0.5 0c1.5 0 2.8 1.2 3.2 3.2 0.2 1 0.1 2.2-0.2 3.1-0.4 1.1-1.1 1.8-1.9 2q-0.2 0-0.4 0c-1.7 0-3.1-2.1-3.5-4zm1-0.2c0.3 1.8 1.6 3.4 2.7 3.2 0.4-0.1 0.8-0.6 1.1-1.3 0.3-0.8 0.3-1.7 0.2-2.6-0.3-1.5-1.2-2.4-2.2-2.4q-0.2 0-0.4 0-0.8 0.2-1.2 0.9c-0.3 0.6-0.4 1.3-0.2 2.2z"/><path fill-rule="evenodd" class="a" d="m4.2 14.1c-1.4 0-3-1.4-3.8-3.1-0.9-2-0.3-3.9 1.4-4.5q0.5-0.2 1-0.2c1.3 0 2.5 0.9 3.2 2.4 0.8 1.9 0.6 4.6-1 5.3q-0.4 0.1-0.8 0.1zm0-1q0.2 0 0.4-0.1c0.9-0.3 1.1-2.3 0.5-3.9-0.5-1.2-1.4-1.9-2.3-1.9q-0.3 0-0.7 0.2c-1.1 0.4-1.4 1.7-0.8 3.2 0.6 1.4 1.9 2.5 2.9 2.5z"/><path fill-rule="evenodd" class="a" d="m14.3 3.7c0.5-1.6 1.7-2.7 3.1-2.7q0.4 0 0.9 0.2c1.7 0.6 2.4 2.4 1.7 4.5-0.6 2-2.2 3.5-3.6 3.5q-0.4 0-0.7-0.1c-1.6-0.6-2.1-3.3-1.4-5.4zm1.8 4.5c0.9 0.3 2.4-1.1 3-2.8 0.5-1.5 0-2.9-1.1-3.3q-0.3-0.1-0.6-0.1c-0.9 0-1.8 0.8-2.2 2-0.5 1.8-0.1 3.8 0.9 4.2z"/><path fill-rule="evenodd" class="a" d="m25.6 11.3c-0.8 1.8-2.5 3.1-3.9 3.1q-0.3 0-0.7-0.1-0.8-0.3-1.1-1.2c-0.5-1-0.4-2.6 0.2-3.9 0.7-1.5 1.9-2.4 3.3-2.4q0.4 0 0.9 0.2c0.7 0.2 1.2 0.7 1.5 1.3 0.3 0.9 0.3 1.9-0.2 3zm-0.8-2.6q-0.2-0.6-0.8-0.8-0.3-0.1-0.6-0.1c-1 0-1.8 0.7-2.4 1.8-0.5 1.1-0.6 2.3-0.2 3.1q0.2 0.5 0.6 0.7 0.1 0 0.3 0c1 0 2.3-1.1 3-2.5 0.3-0.8 0.4-1.6 0.1-2.2z"/><path class="a" d="m13.5 13.5c-0.1 0.3-0.3 0.5-0.6 0.5-0.4-0.1-1 0-1.1 0.2q-0.2 0.4-0.4 0.8c-0.1 0.3-0.2 0.5-0.4 0.6q-0.1 0.1-0.3 0.1-0.2 0-0.4-0.2c-0.1-0.2-0.1-0.5 0.1-0.6 0-0.1 0.1-0.2 0.1-0.3 0.1-0.2 0.2-0.5 0.4-0.9 0.5-0.9 1.9-0.7 2.1-0.7 0.3 0 0.5 0.3 0.5 0.5z"/><path fill-rule="evenodd" class="a" d="m4.2 23.1c-0.6-0.5-0.9-1.3-0.9-2.1v-0.4c0-1.8 1.1-3.7 2.5-4.4 1.1-0.4 2.4-1.8 2.7-2.8 0.4-1.4 2.3-2.6 4.2-2.6h0.3c1.9 0 3.8 1.2 4.2 2.6 0.3 1 1.6 2.3 2.7 2.8 1.4 0.6 2.5 2.6 2.5 4.4v0.4c0 1.7-1.3 3-3 3q-0.3 0-0.5-0.1l-1-0.1c-1.6-0.3-3.8-0.5-4.8-0.5-1 0-3.1 0.2-4.8 0.5l-1.5 0.2q-0.2 0-0.5 0c-0.8 0-1.6-0.3-2.1-0.9zm5.3-9.4c-0.5 1.3-1.9 2.9-3.3 3.4-1 0.5-1.9 2.1-1.9 3.5v0.4c0 0.5 0.2 1.1 0.6 1.4 0.4 0.5 1.1 0.7 1.8 0.6l1.5-0.2c1.7-0.2 3.9-0.4 4.9-0.4 1.1 0 3.3 0.2 5 0.4l0.9 0.2q0.2 0 0.4 0c1.2 0 2-0.9 2-2v-0.4c0-1.4-0.9-3-1.9-3.5-1.4-0.6-2.8-2.1-3.3-3.4-0.3-1-1.8-1.9-3.2-1.9h-0.3c-1.4 0-2.9 0.9-3.2 1.9zm0.8 1.8c-0.1-0.2-0.1-0.5 0.1-0.6 0-0.1 0.1-0.2 0.1-0.3 0.1-0.2 0.2-0.5 0.4-0.9 0.5-0.9 1.9-0.7 2.1-0.7 0.3 0 0.5 0.3 0.5 0.5-0.1 0.3-0.3 0.5-0.6 0.5-0.4-0.1-1 0-1.1 0.2q-0.2 0.4-0.4 0.8c-0.1 0.3-0.2 0.5-0.4 0.6q-0.1 0.1-0.3 0.1-0.2 0-0.4-0.2zm10.7-1.2q-0.8-0.3-1.1-1.2c-0.5-1-0.4-2.6 0.2-3.9 0.7-1.5 1.9-2.4 3.3-2.4q0.4 0 0.9 0.2c0.7 0.2 1.2 0.7 1.5 1.3 0.3 0.9 0.3 1.9-0.2 3-0.8 1.8-2.5 3.1-3.9 3.1q-0.4 0-0.7-0.1zm0-4.7c-0.5 1.1-0.6 2.3-0.2 3.1q0.2 0.5 0.6 0.7 0.1 0 0.3 0c1 0 2.3-1.1 3-2.5 0.3-0.8 0.4-1.6 0.1-2.2q-0.2-0.6-0.8-0.8-0.3-0.1-0.6-0.1c-1 0-1.8 0.7-2.4 1.8zm-20.6 1.4c-0.9-2-0.3-3.9 1.4-4.5q0.5-0.2 1-0.2c1.3 0 2.5 0.9 3.2 2.4 0.8 1.9 0.6 4.6-1 5.3q-0.4 0.1-0.8 0.1c-1.4 0-3-1.4-3.8-3.1zm1.7-3.6c-1.1 0.4-1.4 1.7-0.8 3.2 0.6 1.4 1.9 2.5 2.9 2.5q0.2 0 0.4-0.1c0.9-0.3 1.1-2.3 0.5-3.9-0.5-1.2-1.4-1.9-2.3-1.9q-0.3 0-0.7 0.2zm4.3-2.1c-0.2-1.1-0.1-2.1 0.3-2.8 0.4-0.8 1.1-1.3 2-1.5q0.2 0 0.5 0c1.5 0 2.8 1.2 3.2 3.2 0.2 1 0.1 2.2-0.2 3.1-0.4 1.1-1.1 1.8-1.9 2q-0.2 0-0.4 0c-1.7 0-3.1-2.1-3.5-4zm2.4-3.3q-0.8 0.2-1.2 0.9c-0.3 0.6-0.4 1.3-0.2 2.2 0.3 1.8 1.6 3.4 2.7 3.2 0.4-0.1 0.8-0.6 1.1-1.3 0.3-0.8 0.3-1.7 0.2-2.6-0.3-1.5-1.2-2.4-2.2-2.4q-0.2 0-0.4 0zm7.6 7.2q-0.4 0-0.7-0.1c-1.6-0.6-2.1-3.3-1.4-5.4 0.5-1.6 1.7-2.7 3.1-2.7q0.4 0 0.9 0.2c1.7 0.6 2.4 2.4 1.7 4.5-0.6 2-2.2 3.5-3.6 3.5zm-1.2-5.2c-0.5 1.8-0.1 3.8 0.9 4.2 0.9 0.3 2.4-1.1 3-2.8 0.5-1.5 0-2.9-1.1-3.3q-0.3-0.1-0.6-0.1c-0.9 0-1.8 0.8-2.2 2z"/></g></svg>