<svg version="1.2" xmlns="http://www.w3.org/2000/svg" viewBox="0 0 27 27" width="27" height="27"><defs><clipPath clipPathUnits="userSpaceOnUse" id="cp1"><path d="m-1229-1995h1920v2530h-1920z"/></clipPath></defs><style>.a{fill:#fff}</style><g clip-path="url(#cp1)"><path fill-rule="evenodd" class="a" d="m26 21.7c0 0.3-0.2 0.5-0.5 0.5-0.6 0-0.9 0.2-1.3 0.4-0.4 0.3-0.9 0.5-1.8 0.5-0.9 0-1.4-0.2-1.8-0.5-0.4-0.2-0.7-0.4-1.3-0.4-0.7 0-1 0.2-1.4 0.4-0.4 0.3-0.9 0.5-1.8 0.5-0.9 0-1.4-0.2-1.8-0.5-0.4-0.2-0.7-0.4-1.3-0.4-0.7 0-0.9 0.2-1.3 0.4-0.4 0.3-0.9 0.5-1.8 0.5-1 0-1.4-0.2-1.8-0.5-0.4-0.2-0.7-0.4-1.4-0.4-0.6 0-0.9 0.2-1.3 0.4-0.4 0.3-0.9 0.5-1.8 0.5-0.9 0-1.4-0.2-1.8-0.5-0.4-0.2-0.7-0.4-1.3-0.4-0.3 0-0.5-0.2-0.5-0.5 0-0.3 0.2-0.5 0.5-0.5 0.9 0 1.4 0.3 1.8 0.6 0.4 0.2 0.7 0.4 1.3 0.4 0.7 0 1-0.2 1.3-0.4 0.4-0.3 0.9-0.6 1.8-0.6q0.3 0 0.5 0.1v-17.9c0-1.3 1.1-2.4 2.4-2.4h0.5c1.3 0 2.4 1.1 2.4 2.4v1.9h1c0.2 0 0.5 0.2 0.5 0.5 0 0.3-0.3 0.5-0.5 0.5h-1.5c-0.2 0-0.4-0.2-0.4-0.5v-2.4c0-0.8-0.7-1.4-1.5-1.4h-0.5c-0.8 0-1.4 0.6-1.4 1.4v6.7h11.1v-6.7c0-1.3 1-2.4 2.4-2.4h0.4c1.4 0 2.5 1.1 2.5 2.4v1.9h0.9c0.3 0 0.5 0.2 0.5 0.5 0 0.3-0.2 0.5-0.5 0.5h-1.4c-0.3 0-0.5-0.2-0.5-0.5v-2.4c0-0.8-0.7-1.4-1.5-1.4h-0.4c-0.8 0-1.5 0.6-1.5 1.4v18c0.4 0.1 0.6 0.2 0.9 0.4 0.3 0.2 0.6 0.4 1.3 0.4 0.6 0 0.9-0.2 1.3-0.4 0.4-0.3 0.9-0.6 1.8-0.6 0.3 0 0.5 0.2 0.5 0.5zm-17.8-10.6v5.8h11.1v-5.8zm11 10.1v-3.3h-11v3.7q0.2 0.1 0.3 0.2c0.4 0.2 0.7 0.4 1.3 0.4 0.7 0 1-0.2 1.4-0.4 0.4-0.3 0.9-0.6 1.8-0.6 0.9 0 1.4 0.3 1.8 0.6 0.4 0.2 0.7 0.4 1.3 0.4 0.6 0 0.9-0.2 1.3-0.4 0.4-0.3 0.9-0.6 1.8-0.6z"/><path class="a" d="m26 25.6c0 0.2-0.2 0.4-0.5 0.4-0.6 0-0.9 0.2-1.3 0.4-0.4 0.3-0.9 0.6-1.8 0.6-0.9 0-1.4-0.3-1.8-0.6-0.4-0.2-0.7-0.4-1.3-0.4-0.7 0-1 0.2-1.4 0.4-0.4 0.3-0.9 0.6-1.8 0.6-0.9 0-1.4-0.3-1.8-0.6-0.4-0.2-0.7-0.4-1.3-0.4-0.7 0-0.9 0.2-1.3 0.4-0.4 0.3-0.9 0.6-1.8 0.6-1 0-1.4-0.3-1.8-0.6-0.4-0.2-0.7-0.4-1.4-0.4-0.6 0-0.9 0.2-1.3 0.4-0.4 0.3-0.9 0.6-1.8 0.6-0.9 0-1.4-0.3-1.8-0.6-0.4-0.2-0.7-0.4-1.3-0.4-0.3 0-0.5-0.2-0.5-0.4 0-0.3 0.2-0.5 0.5-0.5 0.9 0 1.4 0.3 1.8 0.5 0.4 0.3 0.7 0.4 1.3 0.4 0.7 0 1-0.1 1.3-0.4 0.4-0.2 0.9-0.5 1.8-0.5 1 0 1.4 0.3 1.9 0.5 0.3 0.3 0.6 0.4 1.3 0.4 0.6 0 0.9-0.1 1.3-0.4 0.4-0.2 0.9-0.5 1.8-0.5 0.9 0 1.4 0.3 1.8 0.5 0.4 0.3 0.7 0.4 1.3 0.4 0.7 0 1-0.1 1.3-0.4 0.5-0.2 0.9-0.5 1.9-0.5 0.9 0 1.4 0.3 1.8 0.5 0.3 0.3 0.6 0.4 1.3 0.4 0.6 0 0.9-0.1 1.3-0.4 0.4-0.2 0.9-0.5 1.8-0.5 0.3 0 0.5 0.2 0.5 0.5z"/><path fill-rule="evenodd" class="a" d="m20.6 26.4c-0.4-0.2-0.7-0.4-1.3-0.4-0.7 0-1 0.2-1.4 0.4-0.4 0.3-0.9 0.6-1.8 0.6-0.9 0-1.4-0.3-1.8-0.6-0.4-0.2-0.7-0.4-1.3-0.4-0.7 0-0.9 0.2-1.3 0.4-0.4 0.3-0.9 0.6-1.8 0.6-1 0-1.4-0.3-1.8-0.6-0.4-0.2-0.7-0.4-1.4-0.4-0.6 0-0.9 0.2-1.3 0.4-0.4 0.3-0.9 0.6-1.8 0.6-0.9 0-1.4-0.3-1.8-0.6-0.4-0.2-0.7-0.4-1.3-0.4-0.3 0-0.5-0.2-0.5-0.4 0-0.3 0.2-0.5 0.5-0.5 0.9 0 1.4 0.3 1.8 0.5 0.4 0.3 0.7 0.4 1.3 0.4 0.7 0 0.9-0.1 1.3-0.4 0.4-0.2 0.9-0.5 1.8-0.5 1 0 1.4 0.3 1.9 0.5 0.3 0.3 0.6 0.4 1.3 0.4 0.6 0 0.9-0.1 1.3-0.4 0.4-0.2 0.9-0.5 1.8-0.5 0.9 0 1.4 0.3 1.8 0.5 0.4 0.3 0.7 0.4 1.3 0.4 0.7 0 1-0.1 1.3-0.4 0.5-0.2 0.9-0.5 1.9-0.5 0.9 0 1.4 0.3 1.8 0.5 0.3 0.3 0.6 0.4 1.3 0.4 0.6 0 0.9-0.1 1.3-0.4 0.4-0.2 0.9-0.5 1.8-0.5 0.3 0 0.5 0.2 0.5 0.5 0 0.2-0.2 0.4-0.5 0.4-0.6 0-0.9 0.2-1.3 0.4-0.4 0.3-0.9 0.6-1.8 0.6-0.9 0-1.4-0.3-1.8-0.6zm0-3.8c-0.4-0.2-0.7-0.4-1.3-0.4-0.7 0-1 0.2-1.4 0.4-0.4 0.3-0.9 0.5-1.8 0.5-0.9 0-1.4-0.2-1.8-0.5-0.4-0.2-0.7-0.4-1.3-0.4-0.7 0-0.9 0.2-1.3 0.4-0.4 0.3-0.9 0.5-1.8 0.5-1 0-1.4-0.2-1.8-0.5-0.4-0.2-0.7-0.4-1.4-0.4-0.6 0-0.9 0.2-1.3 0.4-0.4 0.3-0.9 0.5-1.8 0.5-0.9 0-1.4-0.2-1.8-0.5-0.4-0.2-0.7-0.4-1.3-0.4-0.3 0-0.5-0.2-0.5-0.5 0-0.3 0.2-0.5 0.5-0.5 0.9 0 1.4 0.3 1.8 0.6 0.4 0.2 0.7 0.4 1.3 0.4 0.7 0 0.9-0.2 1.3-0.4 0.4-0.3 0.9-0.6 1.8-0.6q0.3 0 0.5 0.1v-17.9c0-1.3 1.1-2.4 2.4-2.4h0.5c1.3 0 2.4 1.1 2.4 2.4v1.9h1c0.2 0 0.5 0.2 0.5 0.5 0 0.3-0.3 0.5-0.5 0.5h-1.5c-0.2 0-0.4-0.2-0.4-0.5v-2.4c0-0.8-0.7-1.4-1.5-1.4h-0.5c-0.8 0-1.4 0.6-1.4 1.4v6.7h11.1v-6.7c0-1.3 1-2.4 2.4-2.4h0.4c1.4 0 2.5 1.1 2.5 2.4v1.9h0.9c0.3 0 0.5 0.2 0.5 0.5 0 0.3-0.2 0.5-0.5 0.5h-1.4c-0.3 0-0.5-0.2-0.5-0.5v-2.4c0-0.8-0.7-1.4-1.5-1.4h-0.4c-0.8 0-1.5 0.6-1.5 1.4v18c0.4 0.1 0.6 0.2 0.9 0.4 0.3 0.2 0.6 0.4 1.3 0.4 0.6 0 0.9-0.2 1.3-0.4 0.4-0.3 0.9-0.6 1.8-0.6 0.3 0 0.5 0.2 0.5 0.5 0 0.3-0.2 0.5-0.5 0.5-0.6 0-0.9 0.2-1.3 0.4-0.4 0.3-0.9 0.5-1.8 0.5-0.9 0-1.4-0.2-1.8-0.5zm-5.8-0.8c0.4 0.2 0.7 0.4 1.3 0.4 0.7 0 1-0.2 1.3-0.4 0.5-0.3 0.9-0.6 1.9-0.6v-3.3h-11.1v3.7q0.2 0.1 0.4 0.2c0.3 0.2 0.6 0.4 1.3 0.4 0.6 0 0.9-0.2 1.3-0.4 0.4-0.3 0.9-0.6 1.8-0.6 0.9 0 1.4 0.3 1.8 0.6zm-6.6-4.9h11.1v-5.8h-11.1z"/></g></svg>