<svg version="1.2" xmlns="http://www.w3.org/2000/svg" viewBox="0 0 27 27" width="27" height="27"><defs><clipPath clipPathUnits="userSpaceOnUse" id="cp1"><path d="m-1229-2034h1920v2530h-1920z"/></clipPath></defs><style>.a{fill:#fff}</style><g clip-path="url(#cp1)"><path class="a" d="m26 17.2c0 0.3-0.2 0.5-0.5 0.5h-25c-0.3 0-0.5-0.2-0.5-0.5 0-0.3 0.2-0.5 0.5-0.5h25c0.3 0 0.5 0.2 0.5 0.5z"/><path fill-rule="evenodd" class="a" d="m1.4 15.7c0-5.9 4.4-10.8 10-11.6q-0.3-0.5-0.3-1.1c0-1.1 0.8-2 1.9-2 1.1 0 1.9 0.9 1.9 2q0 0.6-0.3 1.1c5.6 0.7 9.9 5.6 10 11.5q0 0.1 0 0.1c0 0.3-0.2 0.5-0.5 0.5h-22.2c-0.2 0-0.5-0.2-0.5-0.5zm11.6-11.8c0.5 0 1-0.4 1-0.9 0-0.6-0.5-1-1-1-0.5 0-1 0.4-1 1 0 0.5 0.5 0.9 1 0.9zm-10.6 11.3h21.2c-0.3-5.7-4.9-10.3-10.6-10.3-5.7 0-10.3 4.6-10.6 10.3z"/><path class="a" d="m10.2 7.3c0.1 0.3 0 0.6-0.2 0.7-2.4 1-4.3 3.1-4.9 5.6-0.1 0.2-0.3 0.4-0.5 0.4q0 0-0.1 0c-0.3-0.1-0.4-0.4-0.4-0.6 0.8-2.9 2.8-5.2 5.5-6.3 0.2-0.1 0.5 0 0.6 0.2z"/><path fill-rule="evenodd" class="a" d="m23.5 19.1q0.1 0.2 0.1 0.4c-0.6 1.3-3.6 6-9.2 6h-6.1c-0.1 0.1-0.5 0.5-0.7 1.1 0 0.2-0.2 0.4-0.4 0.4h-6.7c-0.2 0-0.3-0.1-0.4-0.2-0.1-0.2-0.1-0.4 0-0.5 0.1-0.3 4.2-7.6 8.1-7.6h9.1c0.3 0 0.5 0.2 0.5 0.4 0 0 0.1 1.1-0.5 1.8q-0.7 0.7-1.8 0.7h-3.5c0.6 0.3 1.5 0.5 2.9 0.5h0.1c2.4 0 4.1-1.5 4.4-1.8 0.1-0.3 1-1.6 2.7-1.6q0.6 0 1.1 0.2 0.2 0 0.3 0.2zm-1.1 0.6q-0.2 0-0.3 0c-1.3 0-1.9 1.1-1.9 1.1q-0.1 0.1-0.1 0.2c-0.1 0-2.1 2.1-5.1 2.1h-0.1c-3.9-0.1-4.7-1.6-4.7-1.8q-0.1-0.2 0-0.5 0.1-0.2 0.4-0.2h4.9q0.7 0 1-0.3c0.2-0.2 0.3-0.5 0.3-0.7h-8.6c-2.5 0-5.5 4.1-6.9 6.4h5.5c0.4-1 1.1-1.4 1.2-1.4q0.1-0.1 0.2-0.1h6.2c4.6 0 7.1-3.4 8-4.8z"/><path fill-rule="evenodd" class="a" d="m0.5 27c-0.2 0-0.3-0.1-0.4-0.2-0.1-0.2-0.1-0.4 0-0.5 0.1-0.3 4.2-7.6 8.1-7.6h9.1c0.3 0 0.5 0.2 0.5 0.4 0 0 0.1 1.1-0.5 1.8q-0.7 0.7-1.8 0.7h-3.5c0.6 0.3 1.5 0.5 2.9 0.5h0.1c2.4 0 4.1-1.5 4.4-1.8 0.1-0.3 1-1.6 2.7-1.6q0.6 0 1.1 0.2 0.2 0 0.3 0.2 0.1 0.2 0.1 0.4c-0.6 1.3-3.6 6-9.2 6h-6.1c-0.1 0.1-0.5 0.5-0.7 1.1 0 0.2-0.2 0.4-0.4 0.4zm0.8-1h5.5c0.3-1 1.1-1.4 1.2-1.4q0.1-0.1 0.2-0.1h6.2c4.6 0 7.1-3.4 7.9-4.8q-0.1 0-0.2 0c-1.4 0-1.9 1.1-1.9 1.1q-0.1 0.1-0.1 0.2c-0.1 0-2.1 2.1-5.1 2.1h-0.1c-3.9-0.1-4.7-1.6-4.8-1.8q-0.1-0.2 0.1-0.5c0.1-0.1 0.2-0.2 0.4-0.2h4.9q0.7 0 1-0.3c0.2-0.2 0.3-0.5 0.3-0.7h-8.6c-2.5 0-5.5 4.1-6.9 6.4zm-0.8-8.3c-0.3 0-0.5-0.2-0.5-0.5 0-0.3 0.2-0.5 0.5-0.5h25c0.3 0 0.5 0.2 0.5 0.5 0 0.3-0.2 0.5-0.5 0.5zm23.6-1.5h-22.2c-0.2 0-0.4-0.2-0.4-0.5 0-5.9 4.3-10.8 9.9-11.6q-0.3-0.5-0.3-1.1c0-1.1 0.9-2 1.9-2 1.1 0 1.9 0.9 1.9 2q0 0.6-0.3 1.1c5.6 0.7 9.9 5.6 10 11.5q0 0.1 0 0.1c0 0.3-0.2 0.5-0.5 0.5zm-21.7-1h21.2c-0.3-5.7-4.9-10.3-10.6-10.3-5.7 0-10.3 4.6-10.6 10.3zm9.7-12.2c0 0.5 0.4 0.9 0.9 0.9 0.5 0 1-0.4 1-0.9 0-0.6-0.5-1-1-1-0.5 0-0.9 0.4-0.9 1zm-7.6 11c-0.3-0.1-0.4-0.4-0.3-0.6 0.7-2.9 2.7-5.2 5.4-6.3 0.3-0.1 0.5 0 0.6 0.2 0.1 0.3 0 0.6-0.2 0.7-2.4 1-4.3 3.1-4.9 5.6-0.1 0.2-0.3 0.4-0.5 0.4q0 0-0.1 0z"/></g></svg>