<svg version="1.2" xmlns="http://www.w3.org/2000/svg" viewBox="0 0 26 28" width="26" height="28"><defs><clipPath clipPathUnits="userSpaceOnUse" id="cp1"><path d="m-945-1917h1920v2530h-1920z"/></clipPath></defs><style>.a{fill:#fff}</style><g clip-path="url(#cp1)"><path fill-rule="evenodd" class="a" d="m26 6.8v15.9c0 0.8-0.6 1.4-1.4 1.4h-10.6v1.9h3.7c0.2 0 0.4 0.3 0.4 0.5 0 0.3-0.2 0.5-0.4 0.5h-8.4c-0.2 0-0.4-0.2-0.4-0.5 0-0.2 0.2-0.5 0.4-0.5h3.7v-1.9h-10.6c-0.8 0-1.4-0.6-1.4-1.4v-15.9c0-0.8 0.6-1.5 1.4-1.5h8.8l-2.7-3.5c-0.2-0.2-0.1-0.5 0.1-0.7 0.2-0.2 0.5-0.1 0.6 0.1l3.1 4.1h2.8l1.7-3.1c0.1-0.2 0.4-0.3 0.6-0.2 0.3 0.2 0.3 0.5 0.2 0.7l-1.5 2.6h8.5c0.8 0 1.4 0.7 1.4 1.5zm-24.1 0v12.5h23.2v-12.5c0-0.3-0.2-0.5-0.5-0.5h-22.2c-0.3 0-0.5 0.2-0.5 0.5zm23.2 15.9v-2.4h-23.2v2.4c0 0.2 0.2 0.4 0.5 0.4h22.2c0.3 0 0.5-0.2 0.5-0.4z"/><path class="a" d="m22.8 21.7c0 0.3-0.2 0.5-0.5 0.5h-0.9c-0.3 0-0.5-0.2-0.5-0.5 0-0.3 0.2-0.5 0.5-0.5h0.9c0.3 0 0.5 0.2 0.5 0.5z"/><path fill-rule="evenodd" class="a" d="m9.3 27c-0.2 0-0.4-0.2-0.4-0.5 0-0.2 0.2-0.5 0.4-0.5h3.7v-1.9h-10.6c-0.8 0-1.4-0.6-1.4-1.4v-15.9c0-0.8 0.6-1.5 1.4-1.5h8.8l-2.7-3.5c-0.2-0.2-0.1-0.5 0.1-0.7 0.2-0.2 0.5-0.1 0.6 0.1l3.1 4.1h2.8l1.7-3.1c0.1-0.2 0.4-0.3 0.6-0.2 0.3 0.2 0.3 0.5 0.2 0.7l-1.5 2.6h8.5c0.8 0 1.4 0.7 1.4 1.5v15.9c0 0.8-0.6 1.4-1.4 1.4h-10.6v1.9h3.7c0.2 0 0.4 0.3 0.4 0.5 0 0.3-0.2 0.5-0.4 0.5zm-7.4-4.3c0 0.2 0.2 0.4 0.4 0.4h22.2c0.3 0 0.5-0.2 0.5-0.4v-2.4h-23.1zm0-15.9v12.5h23.1v-12.5c0-0.3-0.2-0.5-0.5-0.5h-22.2c-0.2 0-0.4 0.2-0.4 0.5zm19.4 15.4c-0.3 0-0.5-0.2-0.5-0.5 0-0.3 0.2-0.5 0.5-0.5h0.9c0.3 0 0.5 0.2 0.5 0.5 0 0.3-0.2 0.5-0.5 0.5z"/></g></svg>