<svg version="1.2" xmlns="http://www.w3.org/2000/svg" viewBox="0 0 27 24" width="27" height="24"><defs><clipPath clipPathUnits="userSpaceOnUse" id="cp1"><path d="m-1229-1841h1920v2530h-1920z"/></clipPath></defs><style>.a{fill:#fff}</style><g clip-path="url(#cp1)"><path class="a" d="m7.2 22.5c0 0.3-0.2 0.5-0.5 0.5h-2.8c-0.3 0-0.5-0.2-0.5-0.5 0-0.3 0.2-0.5 0.5-0.5h2.8c0.3 0 0.5 0.2 0.5 0.5z"/><path class="a" d="m22.6 22.5c0 0.3-0.2 0.5-0.5 0.5h-2.8c-0.3 0-0.5-0.2-0.5-0.5 0-0.3 0.2-0.5 0.5-0.5h2.8c0.3 0 0.5 0.2 0.5 0.5z"/><path fill-rule="evenodd" class="a" d="m26 3.4v15.2c0 1.3-1.1 2.4-2.4 2.4h-21.2c-1.3 0-2.4-1.1-2.4-2.4v-15.2c0-1.3 1.1-2.4 2.4-2.4h21.2c1.3 0 2.4 1.1 2.4 2.4zm-1 0c0-0.8-0.6-1.4-1.4-1.4h-21.2c-0.8 0-1.4 0.6-1.4 1.4v15.2c0 0.8 0.6 1.5 1.4 1.5h21.2c0.8 0 1.4-0.7 1.4-1.5z"/><path class="a" d="m13.5 10.3v1.5c0 0.2-0.2 0.4-0.5 0.4h-1.4c-0.3 0-0.5-0.2-0.5-0.4 0-0.3 0.2-0.5 0.5-0.5h0.9v-1c0-0.3 0.2-0.5 0.5-0.5 0.3 0 0.5 0.2 0.5 0.5z"/><path class="a" d="m17.3 10.3v1.5c0 0.2-0.2 0.4-0.4 0.4h-1.5c-0.3 0-0.5-0.2-0.5-0.4 0-0.3 0.2-0.5 0.5-0.5h1v-1c0-0.3 0.2-0.5 0.5-0.5 0.2 0 0.4 0.2 0.4 0.5z"/><path class="a" d="m21.2 10.3v1.5c0 0.2-0.2 0.4-0.5 0.4h-1.4c-0.3 0-0.5-0.2-0.5-0.4 0-0.3 0.2-0.5 0.5-0.5h0.9v-1c0-0.3 0.2-0.5 0.5-0.5 0.3 0 0.5 0.2 0.5 0.5z"/><path class="a" d="m13.5 6.9v1.4c0 0.3-0.2 0.5-0.5 0.5h-1.4c-0.3 0-0.5-0.2-0.5-0.5 0-0.2 0.2-0.5 0.5-0.5h0.9v-0.9c0-0.3 0.2-0.5 0.5-0.5 0.3 0 0.5 0.2 0.5 0.5z"/><path class="a" d="m17.3 6.9v1.4c0 0.3-0.2 0.5-0.4 0.5h-1.5c-0.3 0-0.5-0.2-0.5-0.5 0-0.2 0.2-0.5 0.5-0.5h1v-0.9c0-0.3 0.2-0.5 0.5-0.5 0.2 0 0.4 0.2 0.4 0.5z"/><path class="a" d="m21.2 6.9v1.4c0 0.3-0.2 0.5-0.5 0.5h-1.4c-0.3 0-0.5-0.2-0.5-0.5 0-0.2 0.2-0.5 0.5-0.5h0.9v-0.9c0-0.3 0.2-0.5 0.5-0.5 0.3 0 0.5 0.2 0.5 0.5z"/><path class="a" d="m13.5 13.7v1.5c0 0.2-0.2 0.5-0.5 0.5h-1.4c-0.3 0-0.5-0.3-0.5-0.5 0-0.3 0.2-0.5 0.5-0.5h0.9v-1c0-0.3 0.2-0.5 0.5-0.5 0.3 0 0.5 0.2 0.5 0.5z"/><path class="a" d="m17.3 13.7v1.5c0 0.2-0.2 0.5-0.4 0.5h-1.5c-0.3 0-0.5-0.3-0.5-0.5 0-0.3 0.2-0.5 0.5-0.5h1v-1c0-0.3 0.2-0.5 0.5-0.5 0.2 0 0.4 0.2 0.4 0.5z"/><path class="a" d="m21.2 13.7v1.5c0 0.2-0.2 0.5-0.5 0.5h-1.4c-0.3 0-0.5-0.3-0.5-0.5 0-0.3 0.2-0.5 0.5-0.5h0.9v-1c0-0.3 0.2-0.5 0.5-0.5 0.3 0 0.5 0.2 0.5 0.5z"/><path class="a" d="m6.3 6.9v8.3c0 0.2-0.3 0.5-0.5 0.5-0.3 0-0.5-0.3-0.5-0.5v-8.3c0-0.3 0.2-0.5 0.5-0.5 0.2 0 0.5 0.2 0.5 0.5z"/><path fill-rule="evenodd" class="a" d="m19.3 23c-0.3 0-0.5-0.2-0.5-0.5 0-0.3 0.2-0.5 0.5-0.5h2.8c0.3 0 0.5 0.2 0.5 0.5 0 0.3-0.2 0.5-0.5 0.5zm-15.4 0c-0.2 0-0.4-0.2-0.4-0.5 0-0.3 0.2-0.5 0.4-0.5h2.9c0.3 0 0.5 0.2 0.5 0.5 0 0.3-0.2 0.5-0.5 0.5zm-1.4-2c-1.3 0-2.4-1.1-2.4-2.4v-15.2c0-1.3 1.1-2.4 2.4-2.4h21.2c1.3 0 2.4 1.1 2.4 2.4v15.2c0 1.3-1.1 2.4-2.4 2.4zm-1.5-17.6v15.2c0 0.8 0.7 1.5 1.5 1.5h21.2c0.8 0 1.4-0.7 1.4-1.5v-15.2c0-0.8-0.6-1.4-1.4-1.4h-21.2c-0.8 0-1.5 0.6-1.5 1.4zm18.3 12.3c-0.2 0-0.5-0.3-0.5-0.5 0-0.3 0.3-0.5 0.5-0.5h1v-1c0-0.3 0.2-0.5 0.5-0.5 0.2 0 0.4 0.2 0.4 0.5v1.5c0 0.2-0.2 0.5-0.4 0.5zm-3.9 0c-0.2 0-0.5-0.3-0.5-0.5 0-0.3 0.3-0.5 0.5-0.5h1v-1c0-0.3 0.2-0.5 0.5-0.5 0.2 0 0.4 0.2 0.4 0.5v1.5c0 0.2-0.2 0.5-0.4 0.5zm-3.9 0c-0.3 0-0.5-0.3-0.5-0.5 0-0.3 0.2-0.5 0.5-0.5h1v-1c0-0.3 0.2-0.5 0.5-0.5 0.2 0 0.4 0.2 0.4 0.5v1.5c0 0.2-0.2 0.5-0.4 0.5zm-6.3-0.5v-8.3c0-0.3 0.2-0.5 0.5-0.5 0.2 0 0.5 0.2 0.5 0.5v8.3c0 0.2-0.3 0.5-0.5 0.5-0.3 0-0.5-0.3-0.5-0.5zm14-3c-0.3 0-0.5-0.2-0.5-0.4 0-0.3 0.2-0.5 0.5-0.5h0.9v-1c0-0.3 0.2-0.5 0.5-0.5 0.3 0 0.5 0.2 0.5 0.5v1.5c0 0.2-0.2 0.4-0.5 0.4zm-3.9 0c-0.2 0-0.4-0.2-0.4-0.4 0-0.3 0.2-0.5 0.4-0.5h1v-1c0-0.3 0.2-0.5 0.5-0.5 0.3 0 0.5 0.2 0.5 0.5v1.5c0 0.2-0.2 0.4-0.5 0.4zm-3.9 0c-0.2 0-0.4-0.2-0.4-0.4 0-0.3 0.2-0.5 0.4-0.5h1v-1c0-0.3 0.2-0.5 0.5-0.5 0.3 0 0.5 0.2 0.5 0.5v1.5c0 0.2-0.2 0.4-0.5 0.4zm7.7-3.4c-0.3 0-0.5-0.2-0.5-0.5 0-0.2 0.2-0.5 0.5-0.5h1v-0.9c0-0.3 0.2-0.5 0.4-0.5 0.3 0 0.5 0.2 0.5 0.5v1.4c0 0.3-0.2 0.5-0.5 0.5zm-3.8 0c-0.3 0-0.5-0.2-0.5-0.5 0-0.2 0.2-0.5 0.5-0.5h0.9v-0.9c0-0.3 0.3-0.5 0.5-0.5 0.3 0 0.5 0.2 0.5 0.5v1.4c0 0.3-0.2 0.5-0.5 0.5zm-3.8 0c-0.3 0-0.5-0.2-0.5-0.5 0-0.2 0.2-0.5 0.5-0.5h0.9v-0.9c0-0.3 0.3-0.5 0.5-0.5 0.3 0 0.5 0.2 0.5 0.5v1.4c0 0.3-0.2 0.5-0.5 0.5z"/></g></svg>