<svg version="1.2" xmlns="http://www.w3.org/2000/svg" viewBox="0 0 24 27" width="24" height="27"><defs><clipPath clipPathUnits="userSpaceOnUse" id="cp1"><path d="m-642-1995h1920v2530h-1920z"/></clipPath></defs><style>.a{fill:#fff}</style><g clip-path="url(#cp1)"><path fill-rule="evenodd" class="a" d="m11 17.9c0 1.3-1.1 2.4-2.4 2.4-1.3 0-2.4-1.1-2.4-2.4 0-1.4 1.1-2.5 2.4-2.5 1.3 0 2.4 1.1 2.4 2.5zm-1 0c0-0.9-0.6-1.5-1.4-1.5-0.8 0-1.5 0.6-1.5 1.5 0 0.8 0.7 1.4 1.5 1.4 0.8 0 1.4-0.6 1.4-1.4z"/><path class="a" d="m8.1 14.5v-1c0-0.2 0.2-0.5 0.5-0.5 0.2 0 0.4 0.3 0.4 0.5v1c0 0.2-0.2 0.5-0.4 0.5-0.3 0-0.5-0.3-0.5-0.5z"/><path class="a" d="m9 21.2v1c0 0.3-0.2 0.5-0.4 0.5-0.3 0-0.5-0.2-0.5-0.5v-1c0-0.2 0.2-0.5 0.5-0.5 0.2 0 0.4 0.3 0.4 0.5z"/><path class="a" d="m13.3 17.9c0 0.2-0.2 0.4-0.5 0.4h-0.9c-0.3 0-0.5-0.2-0.5-0.4 0-0.3 0.2-0.5 0.5-0.5h0.9c0.3 0 0.5 0.2 0.5 0.5z"/><path class="a" d="m5.3 18.3h-1c-0.2 0-0.5-0.2-0.5-0.4 0-0.3 0.3-0.5 0.5-0.5h1c0.2 0 0.4 0.2 0.4 0.5 0 0.2-0.2 0.4-0.4 0.4z"/><path class="a" d="m12 20.6c0.2 0.2 0.2 0.5 0 0.7q-0.1 0.2-0.3 0.2-0.2 0-0.4-0.2l-0.7-0.7c-0.2-0.2-0.2-0.5 0-0.7 0.2-0.2 0.5-0.2 0.7 0z"/><path class="a" d="m5.2 15.1c-0.2-0.2-0.2-0.5 0-0.7 0.1-0.2 0.4-0.2 0.6 0l0.7 0.7c0.2 0.2 0.2 0.5 0 0.7q-0.1 0.1-0.3 0.1-0.2 0-0.3-0.1z"/><path class="a" d="m10.6 15.8c-0.2-0.2-0.2-0.5 0-0.7l0.7-0.7c0.2-0.2 0.5-0.2 0.7 0 0.2 0.2 0.2 0.5 0 0.7l-0.7 0.7q-0.2 0.1-0.4 0.1-0.1 0-0.3-0.1z"/><path class="a" d="m6.5 19.9c0.2 0.2 0.2 0.5 0 0.7l-0.7 0.7q-0.1 0.2-0.3 0.2-0.2 0-0.3-0.2c-0.2-0.2-0.2-0.5 0-0.7l0.7-0.7c0.2-0.2 0.5-0.2 0.6 0z"/><path fill-rule="evenodd" class="a" d="m16.9 10.3c-0.2-0.2-0.2-0.4-0.2-0.7l0.4-3.4c0-0.5 0.4-0.9 0.9-0.9h1.9c0.5 0 1 0.4 1 0.9l0.4 3.4c0 0.3 0 0.5-0.2 0.7-0.2 0.2-0.4 0.3-0.7 0.3h-2.8c-0.3 0-0.5-0.1-0.7-0.3zm0.7-0.6h2.8l-0.4-3.4c0 0 0 0-0.1 0h-1.9c0 0 0 0 0 0z"/><path fill-rule="evenodd" class="a" d="m23.8 26.5c-0.3 0.3-0.6 0.5-1 0.5h-8.1q-0.1 0-0.3-0.1-0.3 0.1-0.6 0.1h-10.4c-1.3 0-2.4-1.1-2.4-2.4v-12c0-1.3 0.8-2.8 1.8-3.4l1.1-0.8c0.7-0.5 1.4-1.7 1.4-2.6 0 0 0-0.1 0-0.3q-0.1-0.2 0-0.3c-0.3-0.3-0.5-0.7-0.5-1.3v-1.5c0-0.8 0.6-1.4 1.4-1.4h4.7c0.8 0 1.5 0.6 1.5 1.4v1.5c0 0.6-0.2 1-0.5 1.3q0 0.1 0 0.2c-0.1 0.2-0.1 0.4-0.1 0.4 0.1 0.9 0.7 2.1 1.5 2.6l1.1 0.8c1 0.6 1.8 2.1 1.8 3.4 0.2-0.2 0.4-0.5 0.5-0.7l-0.1-0.2c0-0.2 0.1-0.5 0.3-0.6 0.3 0 0.6 0.1 0.6 0.3l0.1 0.3q0.1 0.1 0.1 0.2c-0.1 0.6-0.5 1.2-1 1.5l-0.5 0.4v3.6h6l-0.3-2.9c0-0.4-0.3-0.9-0.6-1.1-0.4-0.3-0.8-0.8-0.9-1.3-0.1-0.2-0.1-0.4-0.1-0.6 0.1-0.2 0.3-0.4 0.6-0.4 0.2 0.1 0.4 0.3 0.4 0.6q0 0.1 0 0.1c0 0.2 0.3 0.6 0.6 0.8 0.5 0.4 0.9 1.2 1 1.8l0.7 9.2c0.1 0.5 0.2 1.3 0.3 1.8l0.1 0.1c0.1 0.4 0 0.7-0.2 1zm-7.6-8.2v3.4h6.3l-0.3-3.4zm-10.4-14.4c0 0.2 0.1 0.4 0.1 0.5h5.5c0.1-0.1 0.1-0.3 0.1-0.5v-1.5c0-0.2-0.2-0.4-0.5-0.4h-4.7c-0.3 0-0.5 0.2-0.5 0.4zm8.1 22.2c0.8 0 1.4-0.7 1.4-1.5v-12c0-0.9-0.6-2.1-1.4-2.6l-1.1-0.7c-1-0.7-1.8-2.2-1.8-3.4 0 0 0-0.2 0-0.5h-4.7c0.1 0.3 0.1 0.5 0.1 0.5-0.1 1.2-0.9 2.7-1.9 3.4l-1.1 0.7c-0.7 0.5-1.4 1.7-1.4 2.6v12c0 0.8 0.7 1.5 1.5 1.5zm9.2-0.3v-0.1c-0.1-0.5-0.3-1.4-0.3-2l-0.1-1h-6.5v1.9c0 0.6-0.2 1.1-0.5 1.5h7.2q0.1 0 0.2-0.1 0.1-0.1 0-0.2z"/><path fill-rule="evenodd" class="a" d="m14.7 27q-0.1 0-0.3-0.1-0.3 0.1-0.6 0.1h-10.4c-1.3 0-2.4-1.1-2.4-2.4v-12c0-1.3 0.8-2.8 1.8-3.4l1.1-0.8c0.7-0.5 1.4-1.7 1.4-2.6 0 0 0-0.1 0-0.3q-0.1-0.2 0-0.3c-0.3-0.3-0.5-0.7-0.5-1.3v-1.5c0-0.8 0.6-1.4 1.4-1.4h4.7c0.8 0 1.5 0.6 1.5 1.4v1.5c0 0.6-0.2 1-0.5 1.3q0 0.1 0 0.2c-0.1 0.2-0.1 0.4-0.1 0.4 0.1 0.9 0.7 2.1 1.5 2.6l1.1 0.8c1 0.6 1.8 2.1 1.8 3.4 0.2-0.2 0.4-0.5 0.5-0.7v-0.2c-0.1-0.2 0-0.5 0.2-0.6 0.3 0 0.6 0.1 0.6 0.3l0.1 0.3q0.1 0.1 0.1 0.2c-0.1 0.6-0.5 1.2-1 1.5l-0.5 0.4v3.6h6l-0.3-2.9c0-0.4-0.3-0.9-0.6-1.1-0.4-0.3-0.8-0.8-0.9-1.3-0.1-0.2-0.1-0.4-0.1-0.6 0.1-0.2 0.3-0.4 0.6-0.4 0.2 0.1 0.4 0.3 0.4 0.6q0 0.1 0 0.1c0 0.2 0.3 0.6 0.6 0.8 0.5 0.4 0.9 1.2 1 1.8l0.7 9.2c0.1 0.5 0.2 1.3 0.3 1.8l0.1 0.1c0.1 0.4 0 0.7-0.2 1-0.3 0.3-0.6 0.5-1 0.5zm1.4-2.4c0 0.5-0.2 1-0.5 1.4h7.1q0.2 0 0.3-0.1 0 0 0-0.2v-0.1c-0.2-0.5-0.3-1.4-0.3-1.9l-0.1-1h-6.5zm-9.9-18.8c0 1.2-0.8 2.7-1.8 3.4l-1.1 0.7c-0.8 0.5-1.4 1.7-1.4 2.6v12.1c0 0.8 0.6 1.4 1.4 1.4h10.4c0.8 0 1.5-0.6 1.5-1.4v-12.1c0-0.9-0.7-2.1-1.4-2.6l-1.1-0.7c-1-0.7-1.8-2.2-1.8-3.4 0 0 0-0.2 0-0.5h-4.7c0 0.3 0 0.5 0 0.5zm9.9 15.9h6.4l-0.3-3.4h-6.1zm-10.4-19.3v1.5c0 0.2 0 0.4 0.1 0.5h5.5c0-0.1 0.1-0.3 0.1-0.5v-1.5c0-0.2-0.2-0.4-0.5-0.4h-4.7c-0.3 0-0.5 0.2-0.5 0.4zm2.4 19.8v-1c0-0.2 0.2-0.5 0.4-0.5 0.3 0 0.5 0.3 0.5 0.5v1c0 0.3-0.2 0.5-0.5 0.5-0.2 0-0.4-0.2-0.4-0.5zm3.2-0.9l-0.7-0.7c-0.2-0.2-0.2-0.5 0-0.7 0.1-0.2 0.4-0.2 0.6 0l0.7 0.8c0.2 0.1 0.2 0.4 0 0.6q-0.1 0.2-0.3 0.2-0.2 0-0.3-0.2zm-6.2 0c-0.2-0.2-0.2-0.5 0-0.6l0.7-0.8c0.2-0.2 0.5-0.2 0.7 0 0.2 0.2 0.2 0.5 0 0.7l-0.7 0.7q-0.2 0.2-0.4 0.2-0.1 0-0.3-0.2zm1-3.4c0-1.4 1.1-2.5 2.4-2.5 1.3 0 2.4 1.1 2.4 2.5 0 1.3-1.1 2.4-2.4 2.4-1.3 0-2.4-1.1-2.4-2.4zm1 0c0 0.8 0.6 1.4 1.4 1.4 0.8 0 1.5-0.6 1.5-1.4 0-0.9-0.7-1.5-1.5-1.5-0.8 0-1.4 0.6-1.4 1.5zm4.7 0.4c-0.2 0-0.4-0.2-0.4-0.4 0-0.3 0.2-0.5 0.4-0.5h1c0.3 0 0.5 0.2 0.5 0.5 0 0.2-0.2 0.4-0.5 0.4zm-7.6 0c-0.2 0-0.5-0.2-0.5-0.4 0-0.3 0.3-0.5 0.5-0.5h1c0.2 0 0.4 0.2 0.4 0.5 0 0.2-0.2 0.4-0.4 0.4zm6.3-2.5c-0.2-0.2-0.2-0.5 0-0.7l0.7-0.7c0.2-0.2 0.5-0.2 0.6 0 0.2 0.2 0.2 0.5 0 0.7l-0.7 0.7q-0.1 0.1-0.3 0.1-0.2 0-0.3-0.1zm-4.8 0l-0.7-0.7c-0.2-0.2-0.2-0.5 0-0.7 0.2-0.2 0.5-0.2 0.7 0l0.7 0.7c0.2 0.2 0.2 0.5 0 0.7q-0.2 0.1-0.3 0.1-0.2 0-0.4-0.1zm2.2-1.3v-1c0-0.2 0.3-0.5 0.5-0.5 0.3 0 0.5 0.3 0.5 0.5v1c0 0.3-0.2 0.5-0.5 0.5-0.2 0-0.5-0.2-0.5-0.5zm9.5-3.9c-0.2 0-0.5-0.1-0.7-0.3-0.1-0.2-0.2-0.4-0.2-0.7l0.4-3.4c0.1-0.5 0.5-0.9 1-0.9h1.9c0.5 0 0.9 0.4 1 0.9l0.4 3.4c0 0.3-0.1 0.5-0.3 0.7-0.1 0.2-0.4 0.3-0.6 0.3zm0.4-4.3l-0.4 3.4h2.8l-0.4-3.4c0 0-0.1 0-0.1 0h-1.9c0 0 0 0 0 0z"/></g></svg>