<svg version="1.2" xmlns="http://www.w3.org/2000/svg" viewBox="0 0 23 27" width="23" height="27"><defs><clipPath clipPathUnits="userSpaceOnUse" id="cp1"><path d="m-643-1956h1920v2530h-1920z"/></clipPath></defs><style>.a{fill:#fff}</style><g clip-path="url(#cp1)"><path class="a" d="m7 8.2c0.2 0.3 0.1 0.5-0.2 0.7-1.2 0.5-1.4 1.7-1.6 2.8-0.1 0.5-0.2 1-0.3 1.3-0.1 0.2-0.3 0.3-0.5 0.3q-0.1 0-0.2 0c-0.2-0.1-0.4-0.4-0.3-0.6 0.2-0.3 0.2-0.7 0.3-1.1 0.2-1.2 0.5-2.8 2.2-3.6 0.2-0.1 0.5 0 0.6 0.2z"/><path fill-rule="evenodd" class="a" d="m22 4.4v22.1c0 0.3-0.2 0.5-0.5 0.5-0.3 0-0.5-0.2-0.5-0.5v-22.1c0-1.4-1.1-2.4-2.5-2.4h-6.4c-1.4 0-2.5 0.8-2.5 1.9v1.9c5.7 0.2 6.2 3.5 6.6 5.9 0.2 1.2 0.4 2.2 1 2.5 0.4 0.2 1 0.6 1 1.5 0 1.2-0.9 1.2-1.2 1.2h-15.8c-0.3 0-1.2 0-1.2-1.2 0-0.9 0.6-1.3 1-1.5 0.6-0.3 0.8-1.3 1-2.5 0.4-2.4 1-5.7 6.6-5.9v-1.9c0-1.6 1.6-2.9 3.5-2.9h6.4c1.9 0 3.5 1.5 3.5 3.4zm-12.9 2.4c-5.3 0-5.7 2.6-6.1 5.1-0.3 1.3-0.5 2.6-1.5 3.2q-0.1 0-0.1 0c-0.1 0-0.4 0.2-0.4 0.6q0 0.2 0 0.2c0.1 0 0.2 0 0.2 0h15.8q0.1 0 0.2 0 0 0 0-0.2c0-0.4-0.3-0.6-0.4-0.6q0 0 0 0c-1.1-0.6-1.3-1.9-1.5-3.2-0.5-2.5-0.9-5.1-6.2-5.1z"/><path class="a" d="m5.6 21.7v1.4c0 0.3-0.2 0.5-0.5 0.5-0.2 0-0.5-0.2-0.5-0.5v-1.4c0-0.3 0.3-0.5 0.5-0.5 0.3 0 0.5 0.2 0.5 0.5z"/><path class="a" d="m5.6 18.3v1.5c0 0.2-0.2 0.5-0.5 0.5-0.2 0-0.5-0.3-0.5-0.5v-1.5c0-0.2 0.3-0.4 0.5-0.4 0.3 0 0.5 0.2 0.5 0.4z"/><path class="a" d="m5.6 25.1v1.4c0 0.3-0.2 0.5-0.5 0.5-0.2 0-0.5-0.2-0.5-0.5v-1.4c0-0.3 0.3-0.5 0.5-0.5 0.3 0 0.5 0.2 0.5 0.5z"/><path class="a" d="m9.6 21.7v1.4c0 0.3-0.2 0.5-0.5 0.5-0.3 0-0.5-0.2-0.5-0.5v-1.4c0-0.3 0.2-0.5 0.5-0.5 0.3 0 0.5 0.2 0.5 0.5z"/><path class="a" d="m9.6 25.1v1.4c0 0.3-0.2 0.5-0.5 0.5-0.3 0-0.5-0.2-0.5-0.5v-1.4c0-0.3 0.2-0.5 0.5-0.5 0.3 0 0.5 0.2 0.5 0.5z"/><path class="a" d="m9.6 18.3v1.5c0 0.2-0.2 0.5-0.5 0.5-0.3 0-0.5-0.3-0.5-0.5v-1.5c0-0.2 0.2-0.4 0.5-0.4 0.3 0 0.5 0.2 0.5 0.4z"/><path class="a" d="m13.6 18.3v1.5c0 0.2-0.3 0.5-0.5 0.5-0.3 0-0.5-0.3-0.5-0.5v-1.5c0-0.2 0.2-0.4 0.5-0.4 0.2 0 0.5 0.2 0.5 0.4z"/><path class="a" d="m13.6 25.1v1.4c0 0.3-0.3 0.5-0.5 0.5-0.3 0-0.5-0.2-0.5-0.5v-1.4c0-0.3 0.2-0.5 0.5-0.5 0.2 0 0.5 0.2 0.5 0.5z"/><path class="a" d="m13.6 21.7v1.4c0 0.3-0.3 0.5-0.5 0.5-0.3 0-0.5-0.2-0.5-0.5v-1.4c0-0.3 0.2-0.5 0.5-0.5 0.2 0 0.5 0.2 0.5 0.5z"/><path fill-rule="evenodd" class="a" d="m21 26.5v-22.1c0-1.4-1.1-2.4-2.5-2.4h-6.4c-1.4 0-2.5 0.8-2.5 1.9v1.9c5.7 0.2 6.2 3.5 6.6 5.9 0.2 1.2 0.4 2.2 1 2.5 0.4 0.2 1 0.6 1 1.5 0 1.2-0.9 1.2-1.2 1.2h-15.8c-0.3 0-1.2 0-1.2-1.2 0-0.9 0.6-1.3 1-1.5 0.6-0.3 0.8-1.3 1-2.5 0.4-2.4 1-5.7 6.6-5.9v-1.9c0-1.6 1.6-2.9 3.5-2.9h6.4c1.9 0 3.5 1.5 3.5 3.4v22.1c0 0.3-0.2 0.5-0.5 0.5-0.3 0-0.5-0.2-0.5-0.5zm-18-14.6c-0.3 1.3-0.5 2.6-1.5 3.2q-0.1 0-0.1 0c-0.1 0-0.4 0.2-0.4 0.6q0 0.2 0 0.2 0.1 0 0.2 0h15.8q0.1 0 0.2 0 0 0 0-0.2c0-0.4-0.3-0.6-0.4-0.6q0 0 0 0c-1.1-0.6-1.3-1.9-1.5-3.2-0.5-2.5-0.9-5.1-6.2-5.1-5.3 0-5.7 2.6-6.1 5.1zm9.6 14.6v-1.4c0-0.3 0.2-0.5 0.5-0.5 0.2 0 0.5 0.2 0.5 0.5v1.4c0 0.3-0.3 0.5-0.5 0.5-0.3 0-0.5-0.2-0.5-0.5zm-4 0v-1.4c0-0.3 0.2-0.5 0.5-0.5 0.3 0 0.5 0.2 0.5 0.5v1.4c0 0.3-0.2 0.5-0.5 0.5-0.3 0-0.5-0.2-0.5-0.5zm-4 0v-1.4c0-0.3 0.3-0.5 0.5-0.5 0.3 0 0.5 0.2 0.5 0.5v1.4c0 0.3-0.2 0.5-0.5 0.5-0.2 0-0.5-0.2-0.5-0.5zm8-3.4v-1.4c0-0.3 0.2-0.5 0.5-0.5 0.2 0 0.5 0.2 0.5 0.5v1.4c0 0.3-0.3 0.5-0.5 0.5-0.3 0-0.5-0.2-0.5-0.5zm-4 0v-1.4c0-0.3 0.2-0.5 0.5-0.5 0.3 0 0.5 0.2 0.5 0.5v1.4c0 0.3-0.2 0.5-0.5 0.5-0.3 0-0.5-0.2-0.5-0.5zm-4 0v-1.4c0-0.3 0.3-0.5 0.5-0.5 0.3 0 0.5 0.2 0.5 0.5v1.4c0 0.3-0.2 0.5-0.5 0.5-0.2 0-0.5-0.2-0.5-0.5zm8-3.3v-1.5c0-0.2 0.2-0.4 0.5-0.4 0.2 0 0.5 0.2 0.5 0.4v1.5c0 0.2-0.3 0.5-0.5 0.5-0.3 0-0.5-0.3-0.5-0.5zm-4 0v-1.5c0-0.2 0.2-0.4 0.5-0.4 0.3 0 0.5 0.2 0.5 0.4v1.5c0 0.2-0.2 0.5-0.5 0.5-0.3 0-0.5-0.3-0.5-0.5zm-4 0v-1.5c0-0.2 0.3-0.4 0.5-0.4 0.3 0 0.5 0.2 0.5 0.4v1.5c0 0.2-0.2 0.5-0.5 0.5-0.2 0-0.5-0.3-0.5-0.5zm-0.4-6.5c-0.2-0.1-0.4-0.4-0.3-0.6 0.2-0.3 0.2-0.7 0.3-1.1 0.2-1.2 0.5-2.8 2.2-3.6 0.2-0.1 0.5 0 0.6 0.2 0.2 0.3 0.1 0.5-0.2 0.7-1.2 0.5-1.4 1.7-1.6 2.8-0.1 0.5-0.2 1-0.3 1.3-0.1 0.2-0.3 0.3-0.5 0.3q-0.1 0-0.2 0z"/></g></svg>