<svg version="1.2" xmlns="http://www.w3.org/2000/svg" viewBox="0 0 16 16" width="16" height="16"><defs><clipPath clipPathUnits="userSpaceOnUse" id="cp1"><path d="m-833-793h1920v3200h-1920z"/></clipPath></defs><style>.a{fill:#22262e}</style><g clip-path="url(#cp1)"><path fill-rule="evenodd" class="a" d="m13.1 0c0.9 0 1.7 0.8 1.7 1.7v4.6c0.5 0.3 0.9 0.9 0.9 1.5v7.9h-1.8v-1.8h-12.2v1.8h-1.7v-7.9c0-0.6 0.4-1.2 0.9-1.5v-4.6c0-0.9 0.8-1.7 1.7-1.7zm-10.4 6.1h1.7v-1.7c0-0.5 0.4-0.9 0.9-0.9h5.2c0.5 0 0.9 0.4 0.9 0.9v1.7h1.7v-4.4h-10.4zm-0.9 6.1h12.2v-4.3h-12.2z"/></g></svg>