<svg version="1.2" xmlns="http://www.w3.org/2000/svg" viewBox="0 0 26 27" width="26" height="27"><defs><clipPath clipPathUnits="userSpaceOnUse" id="cp1"><path d="m-642-2073h1920v2530h-1920z"/></clipPath></defs><style>.a{fill:#fff}</style><g clip-path="url(#cp1)"><path fill-rule="evenodd" class="a" d="m26 8.5c-0.2 3.8-3.1 14.4-6.2 15.3q-0.6 0.2-1.3 0.2c-1.2 0-2.4-0.5-3.2-1.3-0.6-0.7-0.9-1.5-0.9-2.4 0.1-0.5 0.2-1.2 0.3-2.1 0.3-2.5 0.8-6 0.3-8.4-0.6-2.5 0-5.4 1.4-7.1 1-1.3 2.2-1.8 3.6-1.7 2.2 0.3 6.2 2.1 6 7.5zm-1-0.1c0.2-4.6-3.2-6.2-5.1-6.4q-0.2 0-0.3 0c-1.2 0-2 0.7-2.4 1.3-1.3 1.5-1.8 4.1-1.3 6.2 0.6 2.7 0.1 6.2-0.2 8.9-0.2 0.8-0.3 1.5-0.3 2 0 0.7 0.3 1.3 0.6 1.6 0.9 0.9 2.3 1.3 3.5 0.9 2.2-0.7 5.3-10.2 5.5-14.5z"/><path fill-rule="evenodd" class="a" d="m12.7 22.9c0.2 0.9-0.1 1.8-0.7 2.6-0.8 0.9-2.1 1.5-3.4 1.5q-0.4 0-0.9-0.1c-3.2-0.7-7.1-10.9-7.6-14.7-0.8-5.3 3.1-7.6 5.2-8 1.5-0.3 2.9 0.2 4 1.5 1.5 1.7 2.2 4.4 1.9 6.7-0.3 2.5 0.5 5.9 1.1 8.4 0.2 0.9 0.3 1.6 0.4 2.1zm-0.9 0.2c-0.1-0.5-0.3-1.2-0.5-2-0.4-1.8-1-4.1-1.1-6.2q0 1.2-0.3 2.7v0.1c0 0.2-0.2 0.4-0.4 0.4-0.3 0-0.5-0.1-0.6-0.4 0-0.1 0-0.1 0.1-0.3 0.3-1.8 0.7-6.2-2.2-7.8q-0.5-0.2-0.9-0.4c-0.1 0.6-0.6 1.3-1.6 2.1-0.7 0.7-1.1 1.9-1 3.4 0 1.9 0.9 3.7 2.1 4.7 0.2 0.1 0.2 0.4 0.1 0.7q-0.2 0.1-0.4 0.1-0.2 0-0.3-0.1c-1.5-1.1-2.4-3.1-2.5-5.4-0.1-1.7 0.4-3.2 1.4-4.1 1.4-1.3 1.4-2 1.3-2.6-0.1-0.2-0.2-0.3-0.1-0.5 0-0.2 0.2-0.3 0.4-0.3 0.3 0 0.5 0 0.5 0.3 0 0.1 0.1 0.1 0.1 0.2q0 0 0 0c0.2 0.3 0.6 0.8 1.2 1q0.1 0 0.1 0c1.7 1 2.7 2.7 2.9 5.1q0-0.8 0.1-1.5c0.3-2.1-0.4-4.5-1.7-6-0.5-0.5-1.3-1.2-2.4-1.2q-0.3 0-0.6 0.1c-1.8 0.3-5.1 2.3-4.4 6.9 0.6 4.2 4.6 13.4 6.8 13.8q0.4 0.1 0.7 0.1c1 0 2-0.4 2.6-1.1 0.5-0.6 0.7-1.2 0.6-1.8z"/><path class="a" d="m22.1 17q-0.1 0.2-0.4 0.2-0.1 0-0.3-0.1c-0.2-0.1-0.3-0.4-0.1-0.7 2.3-3.6 2.5-7.6 0.4-9.1-0.8-0.5-1.3-1-1.7-1.4q-0.1 0.3-0.3 0.3c-3.5 0.8-2.4 6.9-2 8.7 0 0.2 0 0.2 0 0.3 0 0.2-0.2 0.4-0.5 0.4-0.2 0-0.4-0.1-0.5-0.4v-0.1c-0.5-2.6-1.4-8.7 2.5-9.8 0.1-0.1 0.2-0.4 0.2-0.7q0-0.2 0-0.5v-0.1c0-0.2 0.2-0.4 0.5-0.5 0.2 0 0.4 0.1 0.5 0.4 0 0.1 0 0.4 0 0.7 0.1 0.4 0.4 1 1.9 1.9 2.6 1.8 2.5 6.3-0.2 10.5z"/><path fill-rule="evenodd" class="a" d="m8.6 27q-0.4 0-0.9-0.1c-3.2-0.7-7.1-10.9-7.6-14.7-0.8-5.3 3.1-7.6 5.2-8 1.5-0.3 2.9 0.2 4 1.5 1.5 1.7 2.2 4.4 1.9 6.7-0.3 2.5 0.5 5.9 1.1 8.4 0.2 0.9 0.3 1.6 0.4 2.1 0.2 0.9-0.1 1.8-0.7 2.6-0.8 0.9-2.1 1.5-3.4 1.5zm-3.1-21.8c-1.8 0.3-5.1 2.3-4.4 6.9 0.6 4.2 4.6 13.4 6.8 13.8q0.4 0.1 0.7 0.1c1 0 2-0.4 2.6-1.1 0.5-0.6 0.7-1.2 0.6-1.8-0.1-0.5-0.3-1.2-0.5-2-0.4-1.8-1-4.1-1.1-6.2q0 1.2-0.3 2.7v0.1c0 0.2-0.2 0.4-0.4 0.4-0.3 0-0.5-0.1-0.6-0.4 0-0.1 0-0.1 0.1-0.3 0.3-1.8 0.7-6.2-2.2-7.8q-0.5-0.2-0.9-0.4c-0.1 0.6-0.6 1.3-1.6 2.1-0.7 0.7-1.1 1.9-1 3.4 0 1.9 0.9 3.7 2.1 4.7 0.2 0.1 0.2 0.4 0.1 0.7q-0.2 0.1-0.4 0.1-0.2 0-0.3-0.1c-1.5-1.1-2.4-3.1-2.5-5.4-0.1-1.7 0.4-3.2 1.4-4.1 1.4-1.3 1.4-2 1.3-2.6-0.1-0.2-0.2-0.3-0.1-0.5 0-0.2 0.2-0.3 0.4-0.3 0.3 0 0.5 0 0.5 0.3 0 0.1 0.1 0.1 0.1 0.2q0 0 0 0c0.2 0.3 0.6 0.8 1.2 1q0.1 0 0.1 0c1.7 1 2.7 2.7 2.9 5.1q0-0.8 0.1-1.5c0.3-2.1-0.4-4.5-1.7-6-0.5-0.5-1.3-1.2-2.4-1.2q-0.3 0-0.6 0.1zm9.8 17.5c-0.6-0.7-0.9-1.5-0.9-2.4 0.1-0.5 0.2-1.2 0.3-2.1 0.3-2.5 0.8-6 0.3-8.4-0.6-2.5 0-5.4 1.4-7.1 1-1.3 2.2-1.8 3.6-1.7 2.2 0.3 6.2 2.1 6 7.5-0.2 3.8-3.1 14.4-6.2 15.3q-0.6 0.2-1.3 0.2c-1.2 0-2.4-0.5-3.2-1.3zm1.9-19.4c-1.3 1.5-1.8 4.1-1.3 6.2 0.6 2.7 0.1 6.2-0.2 8.9-0.2 0.8-0.3 1.5-0.3 2 0 0.7 0.3 1.3 0.6 1.6 0.9 0.9 2.3 1.3 3.5 0.9 2.2-0.7 5.3-10.2 5.5-14.5 0.2-4.6-3.2-6.2-5.1-6.4q-0.2 0-0.3 0c-1.2 0-2 0.7-2.4 1.3zm4.2 13.8c-0.2-0.1-0.3-0.4-0.1-0.7 2.3-3.6 2.5-7.6 0.4-9.1-0.8-0.5-1.3-1-1.7-1.4q-0.1 0.3-0.3 0.3c-3.5 0.8-2.4 6.9-2 8.7 0 0.2 0 0.2 0 0.3 0 0.2-0.2 0.4-0.5 0.4-0.2 0-0.4-0.1-0.5-0.4v-0.1c-0.5-2.6-1.4-8.7 2.5-9.8 0.1-0.1 0.2-0.4 0.2-0.7q0-0.2 0-0.5v-0.1c0-0.2 0.2-0.4 0.5-0.5 0.2 0 0.4 0.1 0.5 0.4 0 0.1 0 0.4 0 0.7 0.1 0.4 0.4 1 1.9 1.9 2.6 1.8 2.5 6.3-0.2 10.5-0.1 0.1-0.2 0.2-0.4 0.2q-0.1 0-0.3-0.1z"/></g></svg>