<svg version="1.2" xmlns="http://www.w3.org/2000/svg" viewBox="0 0 163 171" width="163" height="171"><defs><clipPath clipPathUnits="userSpaceOnUse" id="cp1"><path d="m-880-379h1920v1253h-1920z"/></clipPath></defs><style>.a{fill:#8a1e04}.b{fill:#601604}.c{fill:#2bd12b}.d{fill:#deb406}.e{fill:#30de30}.f{fill:#fff5cb}.g{fill:#f3e8bb}.h{fill:#e4fafc}.i{fill:#8dae17}.j{fill:#dede06}.k{fill:#cfcf0d}.l{fill:#b4b403}.m{fill:#cbe9fe}.n{fill:#b8ddf2}.o{fill:#bf9c08}.p{fill:#fff}.q{fill:#6e1804}</style><g clip-path="url(#cp1)"><path class="a" d="m99.3 1c1.5 0.5 3 0.9 4.4 1.5 5.8 2.5 9.2 7 10.9 12.9 0.3 1.8 0.3 3.6 0.3 5.4q0 40.8 0 81.5c-3.2 0.1-6.5 0.5-9.6 1.4q0-41.1 0-82.2c0-0.8 0-1.5 0-2.2-0.2-4.4-3.4-7.9-7.8-8.4-4-0.5-8-0.1-12-0.3-1.8 0-3.1 0.7-4 2.2-1.5 2.6-3.9 3.7-6.9 3.7q-10.1 0-20.3 0c-2.9 0-5.3-1-6.8-3.6-0.9-1.7-2.3-2.3-4.1-2.3-2.4 0.1-4.8 0-7.2 0 0.9-2.6 3-4.3 5-5.9 2.3-2.1 5.3-2.8 8.2-3.7q25 0 49.9 0z"/><path class="b" d="m49.4 1c-2.9 0.9-5.9 1.6-8.2 3.7-2 1.6-4.1 3.3-5 5.9q-0.3 0-0.7 0.1c-2.2-0.2-4.4-0.3-6.4 0.7-3.8 1.8-5.5 4.9-5.5 9q0 62.7 0 125.3-5.6-5.3-9.6-11.9 0-0.7 0-1.5 0-43.1 0-86.2 0-0.7 0-1.4c0-8.6 0-17.1 0.1-25.6 0-8.8 6.5-16.2 15.1-17.8 0.2 0 0.5-0.2 0.7-0.3q9.8 0 19.5 0z"/><path class="c" d="m135.7 163c-3.2 2.9-7.1 4.5-11.1 5.9-1.8 0.6-3.7 0.5-5.4 1.3h-8.3c-3.1-0.8-6.3-1.5-9.3-2.6-3.9-1.9-7.4-4.2-10.5-7.1q-0.3-0.3-0.5-0.6c-8.2-8.9-11.3-19.3-8.7-31 2.5-11.4 9.4-19.4 20.2-24 0.4 0.7-0.2 1.1-0.5 1.6-4.7 7.5-2.5 16.3 2.8 21.4 3.9 3.6 8.5 5.6 13.9 5.3-2.1 2.1-4.1 4.2-6.1 6.3-0.7 0.7-1.1 0.4-1.6-0.2-2-2-4-4.1-6.1-6-2-2-4.9-1.9-6.8 0-1.8 1.9-1.9 4.8 0 6.7q5.1 5.4 10.4 10.5c2 1.9 4.6 1.8 6.6 0.1 0.7-0.6 1.4-1.3 2.1-1.9 0.3 0.2 0.3 0.5 0.4 0.8 1 4.4 3.2 8 6.9 10.6 3.5 2.4 7.4 3.3 11.6 2.9z"/><path class="a" d="m91.1 160.5c3.1 2.9 6.6 5.2 10.5 7.1-2.5 0.8-5 1.2-7.5 1.6-2.1 0.4-4.3 0.3-6.3 1h-12.9c-2.7-0.4-5.3-0.8-7.9-1.3-8.3-1.6-16.2-4.1-23.5-8.3 0.7 0 1.5-0.1 2.3-0.1q22.6 0 45.3 0z"/><path class="d" d="m114.9 102.3q0-40.7 0-81.5c0-1.8 0-3.6-0.3-5.4 7 3 13.4 7.1 19.2 12.1 14.3 12.3 23.5 27.6 27.1 46.2 4 21 0.3 40.7-11 58.9-0.3 0.4-0.7 0.8-1 1.3q-0.1-0.9-0.3-1.8c-1.6-11.2-7.3-19.8-17.1-25.4-5.1-3-10.7-4.3-16.6-4.4z"/><path class="e" d="m114.9 102.3c5.9 0.1 11.5 1.4 16.6 4.4 9.8 5.6 15.5 14.2 17.1 25.4q0.2 0.9 0.3 1.8c0.2 6.9-1.1 13.4-4.6 19.4-2.2 3.8-5 7.1-8.6 9.7-4.2 0.4-8.1-0.5-11.6-2.9-3.7-2.6-5.9-6.2-6.9-10.6-0.1-0.3-0.1-0.6-0.4-0.8 0.3-0.4 0.7-0.8 1.1-1.2q7.4-7.5 14.9-15c1.4-1.3 2.2-2.9 1.7-4.8-0.8-3.9-5.3-5.1-8.2-2.3-2.8 2.5-5.4 5.2-8 7.8-5.4 0.3-10-1.7-13.9-5.3-5.3-5.1-7.5-13.9-2.8-21.4 0.3-0.5 0.9-0.9 0.5-1.6q0.1 0 0.1 0.1c0.2 0 0.3-0.1 0.4-0.2q1.4-0.6 2.7-1.1c3.1-0.9 6.4-1.3 9.6-1.4z"/><path fill-rule="evenodd" class="f" d="m105.3 103.7q-1.3 0.5-2.7 1.1l-0.4 0.2q0-0.1-0.1-0.1c-10.8 4.6-17.7 12.6-20.2 24-2.6 11.7 0.5 22.1 8.6 31q0.3 0.3 0.6 0.6-22.7 0-45.3 0c-0.8 0-1.6 0.1-2.3 0.1-3.5-1.4-6.7-3.5-9.6-5.9-0.1-1.1-0.3-2.2-0.3-3.2q-0.1-25.2 0-50.4c0-0.6-0.3-1.2 0.4-1.7 0.7 1 1.7 1.5 2.9 1.5q7.8-0.1 15.5-0.1 1.7 0 3.3 0 18 0 36 0c2.4 0 3.6-1 3.6-3.2 0.1-5.8 0-11.7 0-17.6q0-5.8 0-11.6c0-1.8 0.1-3.7 0.1-5.5-0.1-2.4-1.1-3.5-3.5-3.7q-0.8 0-1.5 0c0-2.7 0-5.3 0-8 0-2-0.9-2.9-2.9-2.9q-15.2 0-30.5 0c-5.3 0-10.5 0-15.8 0-1.8 0-2.7 1-2.7 2.8 0 2.7 0 5.4 0 8.1-2-0.1-3.9 0-4.9 2.2q0-12.7 0-25.3c0-0.2 0.1-0.5 0.2-0.7 1.1 1 2.3 1.7 3.8 1.7q4.6 0 9.2 0h1.6q0.6 0.5 1 0l0.1-0.1h0.2q8.8 0 17.6 0c0.9 0.6 1.8 0 2.8 0 7 0.1 14.1 0 21.1 0 3 0 4.8-1.9 4.8-4.9 0-2.6-2-4.7-4.8-4.7q-11.8 0-23.6 0-9 0.1-18 0.1-1.2 0-2.5 0c-2.8-0.1-5.6 0-8.4-0.1-2.1-0.1-3.8 0.5-5.1 2.1 0.1-4.9-0.5-9.7 0.6-14.5 0.3-1.5 1.4-2.7 1.3-4.3q0.4-0.1 0.7-0.1c2.4 0 4.8 0.1 7.2 0 1.8 0 3.2 0.6 4.1 2.3 1.5 2.6 3.9 3.6 6.8 3.6q10.2 0 20.3 0c3 0 5.4-1.1 6.9-3.7 0.9-1.5 2.2-2.2 4-2.2 4 0.2 8-0.2 12 0.3 4.4 0.5 7.6 4 7.8 8.4 0 0.7 0 1.4 0 2.2q0 41.1 0 82.2zm-38.4 31.1c-3 0-6.1 0-9.2 0-2.6 0.1-4.5 2.3-4.5 4.8 0 2.6 1.9 4.7 4.5 4.8 3.1 0.1 6.2 0 9.2 0 1.5 0 2.9 0.1 4.3 0 2.6-0.1 4.6-2.2 4.6-4.8 0-2.5-2-4.6-4.6-4.8-1.4 0-2.8 0-4.3 0zm-16.6-18.1c0.7 0 1.3 0 1.9 0 1.5-0.1 2.8-1.3 2.8-2.7 0-1.4-1.3-2.6-2.8-2.6q-1.9-0.1-3.8 0c-1.3 0-2.1 0.9-2.5 2-0.4 1.1 0.2 2 1 2.7 1.1 0.9 2.4 0.4 3.4 0.6zm14.4-5.3c-0.7 0-1.4-0.1-2.2 0-1.5 0.1-2.5 1.1-2.5 2.6 0 1.5 1 2.6 2.6 2.7 1.3 0 2.5 0 3.8 0 1.6-0.1 2.5-1.1 2.5-2.6 0-1.7-0.9-2.7-2.6-2.7q-0.8 0-1.6 0zm13.9 0c-0.7 0-1.4-0.1-2.1 0-1.4 0.1-2.3 1.1-2.3 2.5 0 1.5 0.9 2.7 2.2 2.7q2.2 0.1 4.3 0c1.5 0 2.4-1.1 2.4-2.6 0-1.4-0.9-2.5-2.4-2.6-0.7-0.1-1.4 0-2.1 0z"/><path class="g" d="m33.8 35.4c-0.1 0.2-0.2 0.5-0.2 0.7q0 12.6 0 25.3 0 3.5 0 7v11.6q0 8.2 0 16.4c-0.1 1 0 2 0.4 3-0.7 0.5-0.4 1.1-0.4 1.7q-0.1 25.2 0 50.4c0 1 0.2 2.1 0.3 3.2-2.5-1.5-4.7-3.4-6.8-5.3-1.2-1.2-2.3-2.4-3.5-3.7q0-62.6 0-125.3c0-4.1 1.7-7.2 5.5-9 2-1 4.2-0.9 6.4-0.7 0.1 1.6-1 2.8-1.3 4.3-1.1 4.8-0.5 9.6-0.6 14.5-1 2-1.1 4 0.2 5.9z"/><path class="d" d="m14 44.7q0 0.7 0 1.4 0 43.1 0 86.2 0 0.8 0 1.5c-6.3-9.3-10.3-19.5-12.2-30.5-3.6-21 0.4-40.5 11.9-58.4q0.1-0.1 0.3-0.2z"/><path class="h" d="m118.3 133.2c2.6-2.6 5.2-5.3 8-7.8 2.9-2.8 7.4-1.6 8.2 2.3 0.5 1.9-0.3 3.5-1.7 4.8q-7.5 7.5-14.9 15c-0.4 0.4-0.8 0.8-1.1 1.2-0.7 0.6-1.4 1.3-2.1 1.9-2 1.7-4.6 1.8-6.6-0.1q-5.3-5.1-10.4-10.5c-1.9-1.9-1.8-4.8 0-6.7 1.9-1.9 4.8-2 6.8 0 2.1 1.9 4.1 4 6.1 6 0.5 0.6 0.9 0.9 1.6 0.2 2-2.1 4-4.2 6.1-6.3z"/><path class="i" d="m102.2 105l0.4-0.2c-0.1 0.1-0.2 0.2-0.4 0.2z"/><path class="j" d="m95.3 80c0 5.9 0.1 11.8 0 17.6 0 2.2-1.2 3.2-3.6 3.2q-18 0-36 0-1.6 0-3.3 0c-1.3-0.8-1.7-2-1.7-3.6 0.1-5.7 0-11.4 0-17.1 0.8-0.1 1.5-0.1 2.2-0.1q21.2 0 42.4 0z"/><path class="a" d="m95.3 80q-21.2 0-42.4 0c-0.7 0-1.4 0-2.2 0.1v-0.1q0-5.8 0-11.5v-0.1h44.6q0 5.8 0 11.6z"/><path class="j" d="m95.3 68.4q-22.3 0-44.6 0c0.3-3.1-0.9-6.4 1.4-9.2h3.3q17.5 0 35 0 0.7 0 1.5 0c2.4 0.2 3.4 1.3 3.5 3.7 0 1.8-0.1 3.7-0.1 5.5z"/><path class="k" d="m90.4 59.2q-17.5 0-35 0c0-2.1 0-4.2-0.1-6.3 0-1.8 0.3-3.4 1.7-4.6q15.3 0 30.5 0c2 0 2.9 0.9 2.9 2.9 0 2.7 0 5.3 0 8z"/><path class="l" d="m50.7 80.1c0 5.7 0.1 11.4 0 17.1 0 1.6 0.4 2.8 1.7 3.6q-7.7 0-15.5 0.1c-1.2 0-2.2-0.5-2.9-1.5-0.4-1-0.5-2-0.4-3q0-8.2 0-16.4 8.6 0 17.1 0z"/><path class="m" d="m67.6 27.4q11.8 0 23.6 0c2.8 0 4.8 2.1 4.8 4.7 0 3-1.8 4.9-4.8 4.9-7 0-14.1 0.1-21.1 0-1 0-1.9 0.6-2.8 0-0.5-0.4-1-0.8-1.5-1.3-2.6-2.5-2.1-5.8 1-7.7 0.3-0.2 0.5-0.4 0.8-0.6z"/><path class="l" d="m57 48.3c-1.4 1.2-1.7 2.8-1.7 4.6 0.1 2.1 0.1 4.2 0.1 6.3q-1.7 0-3.3 0-6.8 0-13.6 0c0-2.7 0-5.4 0-8.1 0-1.8 0.9-2.8 2.7-2.8 5.3 0 10.5 0 15.8 0z"/><path class="l" d="m38.5 59.2q6.8 0 13.6 0c-2.3 2.8-1.1 6.1-1.4 9.2v0.1q-8.5 0-17.1-0.1 0-3.5 0-7c1-2.2 2.9-2.3 4.9-2.2z"/><path class="n" d="m67.6 27.4c-0.3 0.2-0.5 0.4-0.8 0.6-3.1 1.9-3.6 5.2-1 7.7 0.5 0.5 1 0.9 1.5 1.3q-8.8 0-17.6 0c1-0.6 2-1.1 2.7-2.1 1.7-2.7 0.6-5.6-2.8-7.4q9 0 18-0.1z"/><path class="o" d="m33.8 35.4c-1.3-1.9-1.2-3.9-0.2-5.9 1.3-1.6 3-2.2 5.1-2.1 2.8 0.1 5.6 0 8.4 0.1-2.9 1.3-3.9 2.8-3.6 5.4 0.2 2.1 1.7 3.1 3.3 4.2q-4.6 0-9.2 0c-1.5 0-2.7-0.7-3.8-1.7z"/><path class="c" d="m66.9 144.4c-3 0-6.1 0.1-9.2 0-2.6-0.1-4.4-2.2-4.5-4.8 0-2.5 1.9-4.7 4.5-4.8 3.1 0 6.2 0 9.2 0-1.7 1-3.1 2.3-3.3 4.4-0.2 2.6 1.4 4 3.3 5.2z"/><path class="e" d="m66.9 144.4c-1.9-1.2-3.5-2.6-3.3-5.2 0.2-2.1 1.6-3.4 3.3-4.4 1.5 0 2.9 0 4.3 0 2.6 0.2 4.6 2.3 4.6 4.8 0 2.6-2 4.7-4.6 4.8-1.4 0.1-2.8 0-4.3 0z"/><path class="d" d="m46.8 37.1c-1.6-1.1-3.1-2.1-3.3-4.2-0.3-2.6 0.7-4.1 3.6-5.4q1.3 0 2.5 0c3.4 1.8 4.5 4.7 2.8 7.4-0.7 1-1.7 1.5-2.7 2.1h-0.2l-0.1 0.1q-0.5 0-1 0z"/><path class="p" d="m50.3 116.7c-1-0.2-2.3 0.3-3.4-0.6-0.8-0.7-1.4-1.6-1-2.7 0.4-1.1 1.2-2 2.5-2q1.9-0.1 3.8 0c1.5 0 2.8 1.2 2.8 2.6 0 1.4-1.3 2.6-2.8 2.7-0.6 0-1.2 0-1.9 0z"/><path class="p" d="m64.7 111.4q0.8 0 1.6 0c1.7 0 2.6 1 2.6 2.7 0 1.5-0.9 2.5-2.5 2.6-1.3 0-2.5 0-3.8 0-1.6-0.1-2.6-1.2-2.6-2.7 0-1.5 1-2.5 2.5-2.6 0.8-0.1 1.5 0 2.2 0z"/><path class="p" d="m78.6 111.4c0.7 0 1.4-0.1 2.1 0 1.5 0.1 2.4 1.2 2.4 2.6 0 1.5-0.9 2.6-2.4 2.6q-2.1 0.1-4.3 0c-1.3 0-2.2-1.2-2.2-2.7 0-1.4 0.9-2.4 2.3-2.5 0.7-0.1 1.4 0 2.1 0z"/><path class="m" d="m48.4 37.1q0.5 0 1 0-0.4 0.5-1 0z"/><path class="q" d="m33.6 68.4q8.6 0.1 17.1 0.1 0 5.7 0 11.5-8.5 0-17.1 0 0-5.8 0-11.6z"/></g></svg>