<svg version="1.2" xmlns="http://www.w3.org/2000/svg" viewBox="0 0 27 27" width="27" height="27"><defs><clipPath clipPathUnits="userSpaceOnUse" id="cp1"><path d="m-944-1839h1920v2530h-1920z"/></clipPath></defs><style>.a{fill:#fff}</style><g clip-path="url(#cp1)"><path fill-rule="evenodd" class="a" d="m13.3 2.8c0-0.7 0.2-1.7 1-1.8 0.6-0.1 1.2 0.5 1.4 1.2q0 0.1 0 0.2c0.1 0.3 0.4 0.8 0.7 1l0.1 0.1c0.6 0.4 1 1.1 1.1 1.6 0.1 0.3-0.1 0.7-0.3 1-0.2 0.2-0.6 0.4-0.9 0.4l-2.4 0.4q-0.1 0-0.3 0c-0.7 0-1.2-0.4-1.3-0.9-0.1-0.6 0.1-1.4 0.5-1.9l0.1-0.1c0.2-0.3 0.4-0.9 0.3-1.2zm0.4 1.9c-0.3 0.3-0.4 0.9-0.4 1.1 0 0.1 0.3 0.2 0.5 0.2l2.4-0.4q0.3-0.1 0.4-0.2 0.1-0.1 0.1-0.1c-0.1-0.3-0.4-0.8-0.7-1l-0.1-0.1c-0.6-0.4-1.1-1.1-1.2-1.6q0-0.2 0-0.4c-0.1-0.2-0.2-0.2-0.3-0.2 0 0-0.1 0.4-0.1 0.6 0.1 0.6-0.2 1.4-0.5 2z"/><path fill-rule="evenodd" class="a" d="m27 11.1c0 0.3-0.2 0.5-0.5 0.5h-1.4v14.9c0 0.3-0.2 0.5-0.5 0.5-0.3 0-0.5-0.2-0.5-0.5v-3.4q-0.2 0-0.5 0h-7.2c-0.8 0-1.4-0.6-1.4-1.4v-6.7q0-0.3 0.1-0.5h-11.2v12c0 0.3-0.2 0.5-0.5 0.5-0.3 0-0.5-0.2-0.5-0.5v-14.9h-1.4c-0.3 0-0.5-0.2-0.5-0.5 0-0.3 0.2-0.5 0.5-0.5h4.8v-5.2l-0.8 0.3q-0.1 0.1-0.2 0.1c-0.1 0-0.3-0.1-0.4-0.3-0.1-0.2 0-0.5 0.2-0.6l7.3-3.4c0.2-0.1 0.5 0 0.6 0.2 0.1 0.3 0 0.6-0.2 0.7l-5.5 2.5v5.7h19.2c0.3 0 0.5 0.2 0.5 0.5zm-3.4 3.4h-7.2c-0.3 0-0.5 0.2-0.5 0.5v2.8h8.2v-2.8c0-0.3-0.2-0.5-0.5-0.5zm0.5 7.2v-2.9h-8.2v2.9c0 0.3 0.2 0.5 0.5 0.5h7.2c0.3 0 0.5-0.2 0.5-0.5zm0-10.1h-20.2v1.9h20.2z"/><path class="a" d="m18.8 15.9c0-0.3 0.2-0.5 0.5-0.5h1.4c0.3 0 0.5 0.2 0.5 0.5 0 0.3-0.2 0.5-0.5 0.5h-1.4c-0.3 0-0.5-0.2-0.5-0.5z"/><path class="a" d="m21.2 20.3c0 0.2-0.2 0.4-0.5 0.4h-1.4c-0.3 0-0.5-0.2-0.5-0.4 0-0.3 0.2-0.5 0.5-0.5h1.4c0.3 0 0.5 0.2 0.5 0.5z"/><path fill-rule="evenodd" class="a" d="m24.1 26.5v-3.4q-0.2 0-0.5 0h-7.2c-0.8 0-1.4-0.6-1.4-1.4v-6.7q0-0.3 0.1-0.5h-11.2v12c0 0.3-0.2 0.5-0.5 0.5-0.3 0-0.5-0.2-0.5-0.5v-14.9h-1.4c-0.3 0-0.5-0.2-0.5-0.5 0-0.3 0.2-0.5 0.5-0.5h4.8v-5.2l-0.8 0.3q-0.1 0.1-0.2 0.1c-0.1 0-0.3-0.1-0.4-0.3-0.1-0.2 0-0.5 0.2-0.6l7.3-3.4c0.2-0.1 0.5 0 0.6 0.2 0.1 0.3 0 0.6-0.2 0.7l-5.5 2.5v5.7h19.2c0.3 0 0.5 0.2 0.5 0.5 0 0.3-0.2 0.5-0.5 0.5h-1.4v14.9c0 0.3-0.2 0.5-0.5 0.5-0.3 0-0.5-0.2-0.5-0.5zm-8.2-4.8c0 0.3 0.2 0.5 0.5 0.5h7.2c0.3 0 0.5-0.2 0.5-0.5v-2.9h-8.2zm0-6.7v2.9h8.2v-2.9c0-0.3-0.2-0.5-0.5-0.5h-7.2c-0.3 0-0.5 0.2-0.5 0.5zm-12-1.5h20.2v-1.9h-20.2zm15.4 7.2c-0.3 0-0.5-0.2-0.5-0.5 0-0.2 0.2-0.4 0.5-0.4h1.4c0.3 0 0.5 0.2 0.5 0.4 0 0.3-0.2 0.5-0.5 0.5zm0-4.3c-0.2 0-0.4-0.2-0.4-0.5 0-0.3 0.2-0.5 0.4-0.5h1.5c0.3 0 0.5 0.2 0.5 0.5 0 0.3-0.2 0.5-0.5 0.5zm-6.9-10.5c-0.1-0.5 0.1-1.3 0.5-1.8l0.1-0.1c0.2-0.4 0.4-1 0.3-1.3-0.1-0.6 0.2-1.6 0.9-1.7 0.7-0.1 1.3 0.4 1.5 1.2q0 0.1 0 0.2c0.1 0.3 0.4 0.8 0.7 1l0.1 0.1c0.5 0.4 1 1.1 1.1 1.6 0.1 0.3-0.1 0.7-0.3 0.9-0.3 0.3-0.6 0.4-0.9 0.5l-2.4 0.4q-0.2 0-0.3 0c-0.7 0-1.2-0.4-1.3-1zm1.9-3.3c0.1 0.6-0.2 1.4-0.5 2h-0.1c-0.3 0.4-0.4 0.9-0.4 1.2 0 0.1 0.2 0.2 0.5 0.1l2.4-0.3q0.2-0.1 0.4-0.2 0.1-0.1 0-0.2c0-0.2-0.3-0.7-0.7-0.9l-0.1-0.1c-0.5-0.4-1-1.1-1.1-1.6q-0.1-0.2-0.1-0.4c0-0.2-0.1-0.3-0.2-0.3 0 0.1-0.1 0.4-0.1 0.7z"/></g></svg>