<svg version="1.2" xmlns="http://www.w3.org/2000/svg" viewBox="0 0 26 25" width="26" height="25"><defs><clipPath clipPathUnits="userSpaceOnUse" id="cp1"><path d="m-945-1958h1920v2530h-1920z"/></clipPath></defs><style>.a{fill:#fff}</style><g clip-path="url(#cp1)"><path fill-rule="evenodd" class="a" d="m18.4 24c-2.1 0-6.5-0.7-11.6-5.6-3-3-4.8-6.2-5.5-9.4-0.5-2.5-0.2-4.2-0.1-4.8q0-0.6 0.3-1.2c0.4-0.7 1.4-2 1.9-2.5q1.4-1.2 2.6 0.3l3.7 5.3c0.6 0.7 0.4 1.7-0.2 2.2l-1.9 1.5q-0.2 0.1-0.4 0.2-0.3 1.6 3.4 5.4c2.5 2.5 4 2.5 4.5 2.5 0-0.2 0-0.4 0.2-0.6l1.3-1.9c0.3-0.4 0.8-0.7 1.3-0.7q0.5 0 0.9 0.3l5.3 3.7q0.8 0.5 0.9 1.2 0.1 0.6-0.5 1.3c-0.5 0.6-1.6 1.6-2.4 2.1q-0.5 0.3-1.1 0.3c-0.4 0.2-1.3 0.4-2.6 0.4zm-13.8-23.1q-0.2 0-0.6 0.3c-0.5 0.5-1.4 1.6-1.7 2.2q-0.2 0.4-0.2 0.8 0 0.1 0 0.2c-0.2 0.6-1.5 6.6 5.4 13.3 4.7 4.7 8.9 5.4 10.9 5.4 1.3 0 2.1-0.3 2.3-0.4q0.2 0 0.3 0 0.3 0 0.7-0.2c0.6-0.4 1.7-1.3 2.1-1.9q0.3-0.4 0.3-0.6 0-0.3-0.5-0.6l-5.3-3.6c-0.3-0.3-0.7-0.2-0.9 0.1l-1.4 1.9c0 0.1 0 0.2 0 0.2q0 0.2 0 0.3 0 0.2-0.2 0.3c-0.2 0.1-0.5 0.2-0.9 0.2-1 0-2.7-0.5-5-2.8-3-3-4.1-5.1-3.5-6.6q0.1-0.2 0.3-0.3 0 0 0.1 0c0.1 0 0.2 0 0.2 0l1.9-1.5c0.3-0.2 0.4-0.7 0.1-1l-3.8-5.2c-0.3-0.5-0.5-0.5-0.6-0.5z"/><path fill-rule="evenodd" class="a" d="m6.8 18.4c-3-3-4.8-6.2-5.5-9.4-0.5-2.5-0.2-4.2-0.1-4.8q0-0.6 0.3-1.2c0.4-0.7 1.4-2 1.9-2.5q1.4-1.2 2.6 0.3l3.7 5.3c0.6 0.7 0.4 1.7-0.2 2.2l-1.9 1.5q-0.2 0.1-0.4 0.2-0.3 1.6 3.4 5.4c2.5 2.5 4 2.5 4.5 2.5 0-0.2 0-0.4 0.2-0.6l1.3-1.9c0.3-0.4 0.8-0.7 1.3-0.7q0.5 0 0.9 0.3l5.3 3.7q0.8 0.5 0.9 1.2 0.1 0.6-0.5 1.3c-0.5 0.6-1.6 1.6-2.4 2.1q-0.5 0.3-1.1 0.3c-0.4 0.2-1.3 0.4-2.6 0.4-2.1 0-6.5-0.7-11.6-5.6zm-2.8-17.2c-0.5 0.5-1.4 1.6-1.7 2.2q-0.2 0.4-0.2 0.8 0 0.1 0 0.2c-0.2 0.6-1.5 6.6 5.4 13.3 4.7 4.7 8.9 5.4 10.9 5.4 1.3 0 2.1-0.3 2.3-0.4q0.2 0 0.3 0 0.3 0 0.7-0.2c0.6-0.4 1.7-1.3 2.1-1.9q0.3-0.4 0.3-0.6 0-0.3-0.5-0.6l-5.3-3.6c-0.3-0.3-0.7-0.2-0.9 0.1l-1.4 1.9c0 0.1 0 0.2 0 0.2q0 0.2 0 0.3 0 0.2-0.2 0.3c-0.2 0.1-0.5 0.2-0.9 0.2-1 0-2.7-0.5-5-2.8-3-3-4.1-5.1-3.5-6.6q0.1-0.2 0.3-0.3 0 0 0.1 0c0.1 0 0.2 0 0.2 0l1.9-1.5c0.3-0.2 0.4-0.7 0.1-1l-3.8-5.2c-0.3-0.5-0.5-0.5-0.6-0.5q-0.2 0-0.6 0.3z"/></g></svg>