<svg version="1.2" xmlns="http://www.w3.org/2000/svg" viewBox="0 0 27 27" width="27" height="27"><defs><clipPath clipPathUnits="userSpaceOnUse" id="cp1"><path d="m-642-2112h1920v2530h-1920z"/></clipPath></defs><style>.a{fill:#fff}</style><g clip-path="url(#cp1)"><path fill-rule="evenodd" class="a" d="m26 15.8v1c0 0.8-0.6 1.4-1.4 1.4h-2.9v7.3c0 0.8-0.7 1.5-1.5 1.5h-14.4c-0.8 0-1.5-0.7-1.5-1.5v-7.3h-2.9c-0.8 0-1.4-0.6-1.4-1.4v-1c0-0.7 0.5-1.5 1.1-1.8l8.4-4.5c0.6-0.3 1.4-0.5 2.1-0.5h0.9v-1.8q0-0.2 0.1-0.3l1.7-2.4q0-0.1 0.1-0.1 0.2-0.4 0.2-0.9c0-0.8-0.7-1.5-1.5-1.5-0.9 0-1.5 0.7-1.5 1.5 0 0.3-0.3 0.5-0.5 0.5-0.3 0-0.5-0.2-0.5-0.5 0-1.4 1.1-2.5 2.5-2.5 1.4 0 2.5 1.1 2.5 2.5q0 0.8-0.4 1.4v0.1q-0.1 0-0.1 0l-1.6 2.3v1.7h0.9c0.6 0 1.5 0.2 2.1 0.5l8.4 4.5c0.6 0.3 1.1 1.1 1.1 1.8zm-5.3 1c0-0.3-0.2-0.5-0.5-0.5h-14.4c-0.3 0-0.5 0.2-0.5 0.5v8.7c0 0.3 0.2 0.5 0.5 0.5h1.4v-4.4c0-0.2 0.2-0.4 0.5-0.4 0.3 0 0.5 0.2 0.5 0.4v4.4h12c0.3 0 0.5-0.2 0.5-0.5zm4.3-0.9c0-0.4-0.2-0.9-0.6-1l-8.4-4.5c-0.4-0.2-1.1-0.4-1.6-0.4h-2.8c-0.5 0-1.2 0.2-1.6 0.4l-8.4 4.5c-0.4 0.1-0.6 0.6-0.6 1v0.9c0 0.3 0.2 0.5 0.4 0.5h2.9v-0.5c0-0.8 0.7-1.4 1.5-1.4h14.4c0.8 0 1.5 0.6 1.5 1.4v0.5h2.9c0.2 0 0.4-0.2 0.4-0.5z"/><path fill-rule="evenodd" class="a" d="m5.8 27c-0.8 0-1.5-0.7-1.5-1.5v-7.3h-2.9c-0.8 0-1.4-0.6-1.4-1.4v-1c0-0.7 0.5-1.5 1.1-1.8l8.4-4.5c0.6-0.3 1.4-0.5 2.1-0.5h0.9v-1.8q0-0.2 0.1-0.3l1.7-2.4q0-0.1 0.1-0.1 0.2-0.4 0.2-0.9c0-0.8-0.7-1.5-1.5-1.5-0.9 0-1.5 0.7-1.5 1.5 0 0.3-0.3 0.5-0.5 0.5-0.3 0-0.5-0.2-0.5-0.5 0-1.4 1.1-2.5 2.5-2.5 1.4 0 2.5 1.1 2.5 2.5q0 0.8-0.4 1.4v0.1q-0.1 0-0.1 0l-1.6 2.3v1.7h0.9c0.6 0 1.5 0.2 2.1 0.5l8.4 4.5c0.6 0.3 1.1 1.1 1.1 1.8v1c0 0.8-0.6 1.4-1.4 1.4h-2.9v7.3c0 0.8-0.7 1.5-1.5 1.5zm2.4-5.3v4.3h12.1c0.2 0 0.4-0.2 0.4-0.5v-8.7c0-0.3-0.2-0.5-0.4-0.5h-14.5c-0.2 0-0.5 0.2-0.5 0.5v8.7c0 0.3 0.3 0.5 0.5 0.5h1.5v-4.3c0-0.3 0.2-0.5 0.4-0.5 0.3 0 0.5 0.2 0.5 0.5zm12.1-6.4c0.8 0 1.4 0.7 1.4 1.5v0.5h2.9c0.3 0 0.5-0.2 0.5-0.5v-1c0-0.3-0.3-0.8-0.6-1l-8.4-4.4c-0.4-0.2-1.2-0.4-1.6-0.4h-2.9c-0.4 0-1.2 0.2-1.6 0.4l-8.4 4.4c-0.3 0.2-0.6 0.7-0.6 1v1c0 0.3 0.2 0.5 0.5 0.5h2.9v-0.5c0-0.8 0.6-1.5 1.4-1.5z"/></g></svg>