<svg version="1.2" xmlns="http://www.w3.org/2000/svg" viewBox="0 0 30 20" width="30" height="20"><defs><clipPath clipPathUnits="userSpaceOnUse" id="cp1"><path d="m-944-1999h1920v2530h-1920z"/></clipPath></defs><style>.a{fill:#fff}</style><g clip-path="url(#cp1)"><path fill-rule="evenodd" class="a" d="m11.7 16.6q0-0.3 0.1-0.5c0.3-1.1 1.2-1.8 2.3-1.8 1.3 0 2.4 1 2.4 2.3 0 1.3-1.1 2.4-2.4 2.4-1.1 0-2-0.8-2.3-1.8q-0.1-0.2-0.1-0.6zm1.2 0c0 0.7 0.5 1.2 1.2 1.2 0.7 0 1.2-0.5 1.2-1.2 0-0.6-0.5-1.1-1.2-1.1-0.7 0-1.2 0.5-1.2 1.1z"/><path class="a" d="m1.3 10.7c-0.2-0.1-0.3-0.3-0.3-0.5q0-0.2 0.1-0.3c2.5-4.9 7.5-7.9 13.1-7.9 5.2 0 10.1 2.8 12.7 7.3 0.2 0.2 0.1 0.6-0.2 0.8-0.3 0.1-0.6 0-0.8-0.2-2.4-4.2-6.9-6.7-11.7-6.7-5.1 0-9.7 2.8-12.1 7.3-0.1 0.2-0.5 0.4-0.8 0.2z"/><path class="a" d="m4.7 12.5c-0.2-0.2-0.3-0.4-0.3-0.6q0-0.1 0.1-0.2c1.8-3.7 5.6-5.9 9.7-5.9 3.8 0 7.4 2 9.4 5.3 0.2 0.3 0.1 0.7-0.2 0.8-0.3 0.2-0.6 0.1-0.8-0.2-1.8-2.9-5-4.7-8.4-4.7-3.7 0-7 2-8.7 5.2-0.1 0.3-0.5 0.4-0.8 0.3z"/><path class="a" d="m8.1 14.2c-0.2-0.1-0.3-0.3-0.3-0.5q0-0.2 0-0.3c1.3-2.4 3.7-3.8 6.4-3.8 2.5 0 4.8 1.3 6.1 3.4 0.2 0.3 0.1 0.7-0.2 0.8-0.3 0.2-0.6 0.1-0.8-0.2-1.1-1.7-3-2.9-5.1-2.9-2.3 0-4.3 1.3-5.3 3.2-0.2 0.3-0.5 0.4-0.8 0.3z"/><path fill-rule="evenodd" class="a" d="m13.8 16.2q-0.1-0.2-0.1-0.6 0-0.3 0.1-0.5c0.3-1.1 1.2-1.8 2.3-1.8 1.3 0 2.4 1 2.4 2.3 0 1.3-1.1 2.4-2.4 2.4-1.1 0-2-0.8-2.3-1.8zm1.1-0.6c0 0.7 0.5 1.2 1.2 1.2 0.7 0 1.2-0.5 1.2-1.2 0-0.6-0.5-1.1-1.2-1.1-0.7 0-1.2 0.5-1.2 1.1zm-4.8-2.4c-0.2-0.1-0.3-0.3-0.3-0.5q0-0.2 0-0.3c1.3-2.4 3.7-3.8 6.4-3.8 2.5 0 4.8 1.3 6.1 3.4 0.2 0.3 0.1 0.7-0.2 0.8-0.3 0.2-0.6 0.1-0.8-0.2-1.1-1.7-3-2.9-5.1-2.9-2.3 0-4.3 1.3-5.3 3.2-0.1 0.2-0.3 0.4-0.5 0.4q-0.2 0-0.3-0.1zm-3.4-1.7c-0.2-0.2-0.3-0.4-0.3-0.6q0-0.1 0.1-0.2c1.8-3.7 5.6-5.9 9.7-5.9 3.8 0 7.4 2 9.4 5.3 0.2 0.3 0.1 0.7-0.2 0.8-0.3 0.2-0.6 0.1-0.8-0.2-1.8-2.9-5-4.7-8.4-4.7-3.7 0-7 2-8.7 5.2-0.1 0.2-0.3 0.3-0.5 0.3q-0.2 0-0.3 0zm-3.4-1.8c-0.2-0.1-0.3-0.3-0.3-0.5q0-0.2 0.1-0.3c2.5-4.9 7.5-7.9 13.1-7.9 5.2 0 10.1 2.8 12.7 7.3 0.2 0.2 0.1 0.6-0.2 0.8-0.3 0.1-0.6 0-0.8-0.2-2.4-4.2-6.9-6.7-11.7-6.7-5.1 0-9.7 2.8-12.1 7.3-0.1 0.2-0.3 0.3-0.5 0.3q-0.1 0-0.3-0.1z"/></g></svg>